<svg width="120" height="120" viewBox="0 0 120 120" fill="none" xmlns="http://www.w3.org/2000/svg">
<path d="M59.9995 0C76.5677 0 91.5676 6.71582 102.426 17.5732C113.284 28.4307 120 43.4316 120 59.999C120 76.5684 113.284 91.5684 102.426 102.426C91.5676 113.283 76.5677 120 59.9995 120C43.4313 120 28.4314 113.284 17.5741 102.427C6.71674 91.5693 0 76.5684 0 59.999C0 43.4316 6.71577 28.4307 17.5741 17.5732C28.4324 6.71582 43.4313 0 59.9995 0ZM33.7458 65.6045C32.4636 64.4443 32.364 62.4639 33.5251 61.1816C34.6853 59.8994 36.6657 59.7998 37.9479 60.96L51.0738 72.8623L81.8773 40.6006C83.0716 39.3447 85.0589 39.2959 86.3138 40.4893C87.5686 41.6836 87.6184 43.6699 86.4241 44.9248L53.5044 79.3955C52.3375 80.6231 50.3971 80.7022 49.1344 79.5596L33.7458 65.6045ZM97.9777 22.0215C88.2581 12.3027 74.8304 6.29004 59.9995 6.29004C45.1676 6.29004 31.74 12.3018 22.0213 22.0205C12.3017 31.7402 6.29096 45.167 6.29096 59.999C6.29096 74.8311 12.3026 88.2588 22.0213 97.9785C31.74 107.697 45.1676 113.709 59.9995 113.709C74.8304 113.709 88.2581 107.697 97.9777 97.9785C107.697 88.2588 113.707 74.832 113.707 59.999C113.708 45.168 107.697 31.7402 97.9777 22.0215Z" fill="black"/>
</svg>
