<svg width="162" height="100" viewBox="0 0 162 100" fill="none" xmlns="http://www.w3.org/2000/svg">
<path d="M133.623 78.3975C130.837 78.3975 128.57 80.664 128.57 83.4497C128.57 86.2354 130.837 88.502 133.623 88.502C136.408 88.502 138.675 86.2354 138.675 83.4497C138.675 80.664 136.408 78.3975 133.623 78.3975Z" fill="black"/>
<path d="M33.2769 78.3975C30.4912 78.3975 28.2246 80.664 28.2246 83.4497C28.2246 86.2354 30.4912 88.502 33.2769 88.502C36.0626 88.502 38.3291 86.2354 38.3291 83.4497C38.3291 80.664 36.0626 78.3975 33.2769 78.3975Z" fill="black"/>
<path d="M154.806 45.4049L135.584 36.8617L121.514 6.37596C119.726 2.50244 115.814 0 111.548 0H5.22648C0.711498 0 0 3.67317 0 8.18815V77.8746C0 82.3896 3.67317 86.0627 8.18815 86.0627H16.9331C18.1899 93.9512 25.0387 100 33.2753 100C41.5118 100 48.3606 93.9512 49.6174 86.0627H117.281C118.538 93.9512 125.387 100 133.623 100C141.86 100 148.709 93.9512 149.966 86.0627H153.136C157.651 86.0627 161.324 82.3896 161.324 77.8746V55.4345C161.324 51.1014 158.765 47.1645 154.806 45.4049ZM121.66 19.1638L129.539 36.2369H105.575V19.1638H121.66ZM33.2753 94.7735C27.0314 94.7735 21.9512 89.6934 21.9512 83.4495C21.9512 77.2052 27.0314 72.1254 33.2753 72.1254C39.5192 72.1254 44.5993 77.2052 44.5993 83.4495C44.5993 89.6934 39.5192 94.7735 33.2753 94.7735ZM133.624 94.7735C127.38 94.7735 122.3 89.6937 122.3 83.4495C122.3 77.2052 127.38 72.1254 133.624 72.1254C139.868 72.1254 144.948 77.2052 144.948 83.4495C144.948 89.6934 139.868 94.7735 133.624 94.7735ZM156.098 69.6864H153.136C151.693 69.6864 150.523 70.8561 150.523 72.2997C150.523 73.7432 151.693 74.9129 153.136 74.9129H156.098V77.8746C156.098 79.5077 154.769 80.8362 153.136 80.8362H149.966C148.709 72.9477 141.86 66.899 133.624 66.899C125.387 66.899 118.538 72.9477 117.282 80.8362H49.6174C48.3606 72.9477 41.5118 66.899 33.2753 66.899C25.0387 66.899 18.1899 72.9477 16.9331 80.8362H8.18815C6.55505 80.8362 5.22648 79.5077 5.22648 77.8746V74.9129H13.7631C15.2063 74.9129 16.3763 73.7432 16.3763 72.2997C16.3763 70.8561 15.2063 69.6864 13.7631 69.6864H5.22648V8.18815C5.22648 6.55505 6.55505 5.22648 8.18815 5.22648H111.548C113.783 5.22648 115.832 6.53763 116.768 8.5662L119.247 13.9373H94.5993C91.6213 13.9373 89.1986 16.3599 89.1986 19.338V30.4878C89.1986 36.5397 94.1223 41.4634 100.174 41.4634H133.069L149.298 48.676L148.886 48.9254C146.457 50.4004 144.948 53.0822 144.948 55.9244V61.1498C144.948 62.5934 146.118 63.7631 147.561 63.7631H156.098V69.6864ZM100.348 19.1638V36.2369H100.174C97.0042 36.2369 94.4251 33.6578 94.4251 30.4878V19.338C94.4251 19.2422 94.5032 19.1638 94.5993 19.1638H100.348ZM156.098 58.5366H150.174V55.9247C150.174 54.8969 150.72 53.9268 151.599 53.393L154.601 51.5704C155.544 52.6094 156.098 53.9784 156.098 55.4341V58.5366Z" fill="black"/>
<path d="M114.111 69.6865H52.7871C51.3439 69.6865 50.1738 70.8562 50.1738 72.2998C50.1738 73.7433 51.3439 74.913 52.7871 74.913H114.111C115.554 74.913 116.724 73.7433 116.724 72.2998C116.724 70.8562 115.554 69.6865 114.111 69.6865Z" fill="black"/>
<path d="M41.6388 11.1494C40.1956 11.1494 39.0255 12.3191 39.0255 13.7627V25.0867H35.8896V13.7627C35.8896 12.3191 34.7196 11.1494 33.2764 11.1494C31.8332 11.1494 30.6632 12.3191 30.6632 13.7627V25.0867H27.5273V13.7627C27.5273 12.3191 26.3572 11.1494 24.914 11.1494C23.4708 11.1494 22.3008 12.3191 22.3008 13.7627V30.4874C22.3008 35.0024 25.974 38.6755 30.4889 38.6755H30.6632V61.1494C30.6632 62.5929 31.8332 63.7626 33.2764 63.7626C34.7196 63.7626 35.8896 62.5929 35.8896 61.1494V38.6755H36.0638C40.5788 38.6755 44.252 35.0024 44.252 30.4874V13.7627C44.252 12.3191 43.082 11.1494 41.6388 11.1494ZM39.0255 30.4874C39.0255 32.1205 37.6969 33.4491 36.0638 33.4491H30.4889C28.8558 33.4491 27.5273 32.1205 27.5273 30.4874V30.3132H39.0255V30.4874Z" fill="black"/>
<path d="M52.7871 63.7626C54.2303 63.7626 55.4003 62.5929 55.4003 61.1494V49.8254H60.6463C62.2369 49.8254 63.739 49.1292 64.7672 47.9156C65.7954 46.702 66.2348 45.1062 65.9735 43.5369L61.3588 15.8487C60.9052 13.1257 58.5721 11.1494 55.7975 11.1494C52.6965 11.1494 50.1738 13.6721 50.1738 16.7731V61.1494C50.1738 62.5929 51.3439 63.7626 52.7871 63.7626ZM55.4003 16.7731C55.4003 16.5543 55.5784 16.3759 55.8118 16.3759C56.0069 16.3759 56.1717 16.5153 56.2038 16.7079L60.8184 44.3961C60.8219 44.418 60.8317 44.4759 60.7798 44.5372C60.7271 44.5989 60.6686 44.5989 60.6463 44.5989H55.4003V16.7731Z" fill="black"/>
</svg>
