<svg width="94" height="120" viewBox="0 0 94 120" fill="none" xmlns="http://www.w3.org/2000/svg">
<g clip-path="url(#clip0)">
<path fill-rule="evenodd" clip-rule="evenodd" d="M25.8615 65.8512C26.5129 65.1824 27.5726 65.1726 28.2337 65.8414C28.8948 66.5102 28.8948 67.5922 28.2434 68.2709L25.3754 71.2118L28.2434 74.1527C28.8948 74.8216 28.8851 75.8937 28.224 76.5625C27.5629 77.2313 26.5031 77.2215 25.8615 76.5625L23.0128 73.6412L20.1544 76.5723C19.503 77.2412 18.4336 77.251 17.7822 76.5822C17.1211 75.9133 17.1211 74.8314 17.7725 74.1527L20.6406 71.2118L17.7725 68.2709C17.1211 67.602 17.1308 66.5299 17.7919 65.8611C18.453 65.1922 19.5128 65.2021 20.1544 65.8611L23.0031 68.7823L25.8615 65.8512ZM36.0311 4.95728V9.87523C36.0311 11.1441 35.0297 12.2457 33.8144 12.3342C33.5519 12.4227 33.2505 12.4621 32.9491 12.4621H23.917V22.6422C39.045 22.6422 54.1827 22.6422 69.3107 22.6422V12.4719H60.2883C59.9869 12.4719 59.6758 12.4326 59.423 12.344C58.2078 12.2555 57.2064 11.1539 57.2064 9.88506V4.96712C50.1479 4.95728 43.0895 4.95728 36.0311 4.95728ZM22.7017 27.6978C21.7003 27.6978 20.7475 27.2552 20.0961 26.5962C20.0086 26.5077 19.9697 26.4192 19.8822 26.3307C19.3572 25.6717 19.0169 24.8356 19.0169 23.9602V18.9537H5.42508C5.29868 18.9537 5.12368 18.9931 5.03618 19.1308C4.94868 19.2291 4.86118 19.4062 4.86118 19.5341V115.326C4.86118 115.503 4.90007 115.631 5.03618 115.719C5.12368 115.808 5.25007 115.896 5.42508 115.896C33.3185 115.896 59.9189 115.896 87.8123 115.896C87.9873 115.896 88.1137 115.808 88.2012 115.719C88.3276 115.631 88.3762 115.503 88.3762 115.326V19.5341C88.3762 19.4062 88.2887 19.2291 88.2012 19.1406C88.1137 19.0128 87.9387 18.9636 87.8123 18.9636H74.2205V23.97C74.2205 24.8454 73.8705 25.6815 73.3552 26.3405C73.2677 26.429 73.2288 26.5175 73.1413 26.6061C72.4899 27.2651 71.5371 27.7077 70.5357 27.7077C54.591 27.6978 38.6464 27.6978 22.7017 27.6978ZM5.46396 120.863C3.98617 120.863 2.59587 120.253 1.60419 119.24C0.602786 118.227 0 116.87 0 115.336V19.5341C0 17.9997 0.602786 16.6325 1.60419 15.6292C2.60559 14.6161 3.94728 14.0063 5.46396 14.0063H19.0558V11.2818C19.0558 10.2687 19.4447 9.35392 20.1447 8.64574C20.7961 7.98674 21.71 7.54412 22.7503 7.54412H31.1699V4.13107C31.1699 2.99011 31.6463 1.97701 32.3852 1.22949C33.1241 0.481958 34.1158 0 35.2435 0C42.827 0 50.4007 0 57.9841 0C59.1119 0 60.1133 0.481958 60.8522 1.22949C61.5911 1.97701 62.0675 2.99011 62.0675 4.13107V7.55396H70.4871C71.5274 7.55396 72.4413 7.99657 73.0927 8.65558C73.783 9.35392 74.1816 10.2785 74.1816 11.2916V14.0161H87.7734C89.2901 14.0161 90.6415 14.626 91.6332 15.6391C92.6346 16.6521 93.2374 18.0095 93.2374 19.5439V115.336C93.2374 116.87 92.6346 118.237 91.6332 119.24C90.6318 120.253 89.2415 120.863 87.7734 120.863C59.9092 120.863 33.3282 120.863 5.46396 120.863ZM74.2496 97.9654C75.5913 97.9654 76.7191 96.8638 76.7191 95.4671C76.7191 94.1097 75.6302 92.9687 74.2496 92.9687C69.476 92.9687 46.152 92.9687 41.3784 92.9687C39.9881 92.9687 38.9089 94.1097 38.9089 95.4671C38.9089 96.8736 40.0367 97.9654 41.3784 97.9654C46.152 97.9654 69.476 97.9654 74.2496 97.9654ZM74.2496 49.9663C75.5913 49.9663 76.7191 48.8647 76.7191 47.468C76.7191 46.1106 75.6302 44.9697 74.2496 44.9697C69.476 44.9697 46.152 44.9697 41.3784 44.9697C39.9881 44.9697 38.9089 46.1106 38.9089 47.468C38.9089 48.8745 40.0367 49.9663 41.3784 49.9663C46.152 49.9663 69.476 49.9663 74.2496 49.9663ZM74.2496 73.6412C75.5913 73.6412 76.7191 72.5396 76.7191 71.1429C76.7191 69.7856 75.6302 68.6446 74.2496 68.6446C69.476 68.6446 46.152 68.6446 41.3784 68.6446C39.9881 68.6446 38.9089 69.7856 38.9089 71.1429C38.9089 72.5495 40.0367 73.6412 41.3784 73.6412C46.152 73.6412 69.476 73.6412 74.2496 73.6412ZM17.8794 95.3392C17.2086 94.3261 17.4711 92.9491 18.4822 92.2606C19.4836 91.5819 20.8447 91.8475 21.5253 92.8704L22.7212 94.6605L27.4559 88.8278C28.224 87.8836 29.6046 87.7459 30.5379 88.5229C31.4713 89.3 31.6074 90.6967 30.8393 91.6409L24.2864 99.7063C24.1406 99.8932 23.9656 100.06 23.7614 100.208C22.76 100.887 21.3989 100.621 20.7183 99.5981L17.8794 95.3392ZM17.8794 49.8286C17.2086 48.8155 17.4711 47.4385 18.4822 46.7499C19.4836 46.0713 20.8447 46.3368 21.5253 47.3598L22.7212 49.1499L27.4559 43.3172C28.224 42.373 29.6046 42.2353 30.5379 43.0123C31.4713 43.7893 31.6074 45.186 30.8393 46.1303L24.2864 54.1957C24.1406 54.3826 23.9656 54.5498 23.7614 54.6973C22.76 55.376 21.3989 55.1104 20.7183 54.0875L17.8794 49.8286Z" fill="black"/>
</g>
<defs>
<clipPath id="clip0">
<rect width="93.2374" height="120" fill="white"/>
</clipPath>
</defs>
</svg>
