<svg width="22" height="23" viewBox="0 0 22 23" fill="none" xmlns="http://www.w3.org/2000/svg">
<path fill-rule="evenodd" clip-rule="evenodd" d="M8.65109 0.979933C9.89012 -0.26472 11.8728 -0.319517 13.1464 0.7916L13.3469 0.97861L14.1376 1.76925C14.4092 2.03955 14.7654 2.2062 15.1443 2.24364L15.3079 2.2517H16.4387C18.203 2.2517 19.6456 3.63131 19.7464 5.37032L19.752 5.56498V6.6947C19.752 7.07948 19.8847 7.4494 20.1241 7.74353L20.2331 7.86476L21.0238 8.65546C22.2685 9.89453 22.3241 11.876 21.1838 13.1818L21.035 13.3414L20.2338 14.1426C19.9643 14.4128 19.7976 14.7693 19.7601 15.1478L19.752 15.3112V16.4431C19.752 18.2073 18.3725 19.6489 16.6334 19.7497L16.4387 19.7553H15.3079C14.9245 19.7553 14.5541 19.8885 14.2598 20.1285L14.1386 20.2379L13.3489 21.0264C12.1112 22.2726 10.1283 22.3279 8.82197 21.1871L8.65241 21.0284L7.86357 20.2395C7.59033 19.9682 7.23344 19.801 6.85558 19.7634L6.69253 19.7553H5.56061C3.79712 19.7553 2.35483 18.3764 2.25406 16.6377L2.24843 16.4431V15.3112C2.24843 14.9284 2.115 14.5576 1.8751 14.2639L1.76585 14.1429L0.976992 13.353C-0.268868 12.1141 -0.324131 10.1312 0.816616 8.82617L0.965439 8.66668L1.76419 7.86684C2.03584 7.59325 2.20285 7.23705 2.24036 6.85825L2.24843 6.6947V5.56498L2.25406 5.37035C2.3511 3.69593 3.69221 2.3544 5.36605 2.25733L5.56061 2.2517H6.69253C7.07587 2.2517 7.44632 2.11873 7.74008 1.87983L7.86109 1.77103L8.65109 0.979933ZM12.2152 2.17873L12.1714 2.138C11.5617 1.53105 10.5982 1.49551 9.94555 2.03048L9.81935 2.14508L9.02596 2.93957C8.45697 3.50452 7.70442 3.84232 6.90993 3.89469L6.69232 3.90186H5.56039C4.69405 3.90186 3.98155 4.56644 3.90505 5.41377L3.89825 5.56509V6.69482C3.89825 7.49692 3.60718 8.2682 3.08215 8.87109L2.9332 9.03123L2.1333 9.83223C1.52629 10.442 1.49095 11.4053 2.02737 12.0587L2.14228 12.1851L2.93349 12.9774C3.49934 13.5446 3.83847 14.2985 3.89106 15.0936L3.89825 15.3113V16.4432C3.89825 17.3101 4.56234 18.0221 5.40915 18.0986L5.56039 18.1054H6.69232C7.4929 18.1054 8.26485 18.3968 8.86787 18.9219L9.02803 19.0708L9.82369 19.8665C10.4377 20.4771 11.4013 20.5127 12.0541 19.9763L12.1804 19.8613L12.9734 19.0695C13.5418 18.5037 14.2947 18.1651 15.0899 18.1126L15.3077 18.1054H16.4385C17.3061 18.1054 18.0185 17.4416 18.095 16.5945L18.1018 16.4432V15.3113C18.1018 14.5096 18.393 13.7362 18.9174 13.136L19.0661 12.9767L19.8664 12.1764C20.4734 11.566 20.5086 10.6032 19.9729 9.94997L19.8581 9.82365L19.0641 9.02956C18.4987 8.46022 18.1612 7.70843 18.1089 6.91279L18.1018 6.69482V5.56509C18.1018 4.69782 17.4373 3.98516 16.5899 3.90866L16.4385 3.90186H15.3077C14.5056 3.90186 13.7333 3.61102 13.1317 3.08635L12.972 2.9375L12.2152 2.17873ZM13.2404 14.4163C13.3944 14.5703 13.6034 14.6583 13.8234 14.6583C14.0434 14.6583 14.2524 14.5703 14.4064 14.4163C14.4834 14.3393 14.5494 14.2403 14.5934 14.1413C14.6264 14.0423 14.6484 13.9444 14.6484 13.8333C14.6484 13.7233 14.6264 13.6133 14.5934 13.5143C14.5494 13.4153 14.4834 13.3273 14.4064 13.2503C14.0984 12.9423 13.5484 12.9423 13.2404 13.2503C13.1634 13.3273 13.1084 13.4153 13.0644 13.5143C13.0204 13.6133 12.9984 13.7233 12.9984 13.8333C12.9984 13.9444 13.0204 14.0423 13.0644 14.1413C13.1084 14.2403 13.1634 14.3393 13.2404 14.4163ZM8.16843 9.00486C8.05842 9.00486 7.95942 8.98176 7.86042 8.93776C7.76142 8.89376 7.66241 8.83986 7.58541 8.76285C7.50841 8.67485 7.45341 8.58685 7.40941 8.48785C7.36541 8.38775 7.34341 8.28984 7.34341 8.17984C7.34341 8.06874 7.36541 7.95984 7.40941 7.86083C7.45341 7.76183 7.50841 7.66283 7.58541 7.59683C7.90442 7.28772 8.44343 7.28772 8.75144 7.59683C8.90544 7.74973 8.99344 7.95984 8.99344 8.17984C8.99344 8.28984 8.98244 8.38775 8.93844 8.48785C8.89444 8.58685 8.82844 8.67485 8.75144 8.76285C8.67444 8.83986 8.58644 8.89376 8.48743 8.93776C8.38843 8.98176 8.27843 9.00486 8.16843 9.00486ZM14.4104 7.5927C14.0882 7.27051 13.5658 7.27051 13.2436 7.5927L7.58948 13.2468L7.5096 13.3394C7.26995 13.6623 7.29658 14.1207 7.58948 14.4136C7.91167 14.7358 8.43404 14.7358 8.75623 14.4136L14.4104 8.75945L14.4902 8.66692C14.7299 8.34394 14.7033 7.8856 14.4104 7.5927Z" fill="black"/>
</svg>
