<svg width="22" height="21" viewBox="0 0 22 21" fill="none" xmlns="http://www.w3.org/2000/svg">
<path fill-rule="evenodd" clip-rule="evenodd" d="M14.8499 1.00015C15.4809 1.00015 16.1109 1.08447 16.7098 1.27489C20.4008 2.41172 21.7308 6.24853 20.6198 9.60218C19.9898 11.316 18.9598 12.8801 17.6108 14.158C15.6799 15.9296 13.5609 17.5022 11.2799 18.8569L11.0299 19L10.7699 18.8475C8.48094 17.5022 6.34996 15.9296 4.40098 14.1486C3.06099 12.8706 2.03001 11.316 1.39001 9.60218C0.260024 6.24853 1.59001 2.41172 5.32097 1.25499C5.61097 1.16026 5.90996 1.09394 6.20996 1.05699H6.32996C6.61096 1.01815 6.88995 1.00015 7.16995 1.00015H7.27995C7.90994 1.01815 8.51994 1.12236 9.11093 1.31278H9.16993C9.20993 1.33078 9.23993 1.35067 9.25993 1.36867C9.48093 1.43594 9.68992 1.51173 9.88992 1.61594L10.2699 1.77699C10.3617 1.82338 10.4648 1.89427 10.5539 1.95554C10.6103 1.99435 10.6611 2.02931 10.6999 2.05172C10.7162 2.06084 10.7328 2.07001 10.7495 2.07926C10.8353 2.12668 10.9246 2.17607 10.9999 2.23077C12.1109 1.42646 13.4599 0.990678 14.8499 1.00015ZM17.5088 7.82119C17.9188 7.81076 18.2688 7.49908 18.2988 7.10024V6.98751C18.3288 5.66026 17.4798 4.45806 16.1888 3.99385C15.7788 3.86027 15.3288 4.06964 15.1788 4.46753C15.0388 4.86542 15.2588 5.30121 15.6788 5.44236C16.3198 5.66973 16.7488 6.26751 16.7488 6.92972V6.95909C16.7298 7.17603 16.7988 7.3854 16.9388 7.54645C17.0788 7.7075 17.2888 7.80129 17.5088 7.82119Z" fill="white"/>
<path d="M16.7098 1.27489L16.4069 2.22793L16.4155 2.23058L16.7098 1.27489ZM14.8499 1.00015L14.8431 2.00015H14.8499V1.00015ZM20.6198 9.60218L21.5584 9.94722L21.564 9.93202L21.5691 9.91665L20.6198 9.60218ZM17.6108 14.158L18.2869 14.8949L18.2928 14.8895L18.2986 14.884L17.6108 14.158ZM11.2799 18.8569L11.7766 19.7249L11.7836 19.7209L11.7906 19.7167L11.2799 18.8569ZM11.0299 19L10.5239 19.8625L11.0237 20.1557L11.5266 19.868L11.0299 19ZM10.7699 18.8475L10.2632 19.7096L10.2639 19.71L10.7699 18.8475ZM4.40098 14.1486L3.71081 14.8722L3.71853 14.8796L3.72639 14.8868L4.40098 14.1486ZM1.39001 9.60218L0.44236 9.92149L0.447535 9.93684L0.453204 9.95203L1.39001 9.60218ZM5.32097 1.25499L5.6171 2.21014L5.62432 2.2079L5.6315 2.20555L5.32097 1.25499ZM6.20996 1.05699V0.0569929H6.14861L6.08773 0.0644917L6.20996 1.05699ZM6.32996 1.05699V2.05699H6.39875L6.46689 2.04757L6.32996 1.05699ZM7.27995 1.00015L7.30851 0.000559211L7.29423 0.000151277H7.27995V1.00015ZM9.11093 1.31278L8.80425 2.26459L8.95381 2.31278H9.11093V1.31278ZM9.16993 1.31278L9.58029 0.400858L9.38456 0.31278H9.16993V1.31278ZM9.25993 1.36867L8.59096 2.11196L8.75615 2.26064L8.96876 2.32535L9.25993 1.36867ZM9.88992 1.61594L9.42783 2.50277L9.46309 2.52114L9.4997 2.53666L9.88992 1.61594ZM10.2699 1.77699L10.7209 0.884446L10.691 0.869339L10.6601 0.856266L10.2699 1.77699ZM10.5539 1.95554L9.98717 2.77945L9.98717 2.77946L10.5539 1.95554ZM10.6999 2.05172L10.1996 2.91754L10.2058 2.92113L10.212 2.92462L10.6999 2.05172ZM10.7495 2.07926L10.2656 2.95436L10.2656 2.95436L10.7495 2.07926ZM10.9999 2.23077L10.4122 3.03988L10.999 3.46601L11.5863 3.04078L10.9999 2.23077ZM18.2988 7.10024L19.296 7.17525L19.2988 7.1378V7.10024H18.2988ZM17.5088 7.82119L17.4187 8.81712L17.4764 8.82233L17.5342 8.82086L17.5088 7.82119ZM18.2988 6.98751L17.299 6.96491L17.2988 6.97621V6.98751H18.2988ZM16.1888 3.99385L16.5272 3.05283L16.5129 3.04772L16.4986 3.04304L16.1888 3.99385ZM15.1788 4.46753L14.2431 4.11478L14.2392 4.12516L14.2355 4.13562L15.1788 4.46753ZM15.6788 5.44236L16.0131 4.4999L16.0053 4.49712L15.9974 4.49447L15.6788 5.44236ZM16.7488 6.95909L17.745 7.04633L17.7488 7.00279V6.95909H16.7488ZM16.9388 7.54645L17.6935 6.8904L17.6935 6.89039L16.9388 7.54645ZM17.0128 0.321882C16.3026 0.0961 15.5687 0.000151277 14.8499 0.000151277V2.00015C15.393 2.00015 15.9191 2.07283 16.4069 2.22789L17.0128 0.321882ZM21.5691 9.91665C22.8134 6.16043 21.3527 1.65856 17.0042 0.319191L16.4155 2.23058C19.4489 3.16488 20.6482 6.33663 19.6705 9.28771L21.5691 9.91665ZM18.2986 14.884C19.7584 13.501 20.8748 11.8069 21.5584 9.94722L19.6812 9.25715C19.1049 10.825 18.1612 12.2591 16.9231 13.4321L18.2986 14.884ZM11.7906 19.7167C14.13 18.3273 16.3045 16.7136 18.2869 14.8949L16.9348 13.4212C15.0552 15.1456 12.9918 16.6771 10.7693 17.9972L11.7906 19.7167ZM11.5266 19.868L11.7766 19.7249L10.7833 17.989L10.5333 18.132L11.5266 19.868ZM10.2639 19.71L10.5239 19.8625L11.5359 18.1375L11.2759 17.9849L10.2639 19.71ZM3.72639 14.8868C5.72706 16.715 7.91435 18.3291 10.2632 19.7096L11.2766 17.9853C9.04753 16.6753 6.97286 15.1442 5.07557 13.4104L3.72639 14.8868ZM0.453204 9.95203C1.14699 11.8098 2.26328 13.4917 3.71081 14.8722L5.09115 13.4249C3.85871 12.2495 2.91302 10.8221 2.32682 9.25234L0.453204 9.95203ZM5.02484 0.299843C0.642626 1.65848 -0.826188 6.15661 0.44236 9.92149L2.33766 9.28288C1.34624 6.34045 2.5374 3.16495 5.6171 2.21014L5.02484 0.299843ZM6.08773 0.0644917C5.72406 0.109281 5.36199 0.189584 5.01044 0.304428L5.6315 2.20555C5.85995 2.13093 6.09587 2.0786 6.3322 2.04949L6.08773 0.0644917ZM6.32996 0.0569929H6.20996V2.05699H6.32996V0.0569929ZM7.16995 0.000151277C6.84672 0.000151277 6.52188 0.020956 6.19303 0.0664117L6.46689 2.04757C6.70004 2.01535 6.93319 2.00015 7.16995 2.00015V0.000151277ZM7.27995 0.000151277H7.16995V2.00015H7.27995V0.000151277ZM9.41761 0.360966C8.73536 0.141145 8.03166 0.0212206 7.30851 0.000559211L7.25139 1.99974C7.78823 2.01508 8.30451 2.10358 8.80425 2.26459L9.41761 0.360966ZM9.16993 0.31278H9.11093V2.31278H9.16993V0.31278ZM9.9289 0.625386C9.81806 0.525627 9.696 0.452928 9.58029 0.400858L8.75957 2.2247C8.72385 2.20863 8.6618 2.17572 8.59096 2.11196L9.9289 0.625386ZM10.352 0.729102C10.0758 0.585182 9.80217 0.48842 9.5511 0.412003L8.96876 2.32535C9.15968 2.38345 9.30405 2.43827 9.42783 2.50277L10.352 0.729102ZM10.6601 0.856266L10.2801 0.695215L9.4997 2.53666L9.8797 2.69771L10.6601 0.856266ZM11.1206 1.13162C11.047 1.081 10.885 0.967356 10.7209 0.884446L9.81895 2.66953C9.81831 2.66921 9.82264 2.67139 9.83269 2.67731C9.84251 2.6831 9.85519 2.69092 9.87119 2.70123C9.90489 2.72295 9.94068 2.74748 9.98717 2.77945L11.1206 1.13162ZM11.2003 1.1859C11.2055 1.18894 11.2071 1.19004 11.204 1.18806C11.2011 1.18622 11.196 1.1829 11.1879 1.17754C11.1707 1.16606 11.1503 1.15208 11.1206 1.13162L9.98717 2.77946C10.03 2.80893 10.1187 2.87081 10.1996 2.91754L11.2003 1.1859ZM11.2335 1.20416C11.2164 1.19471 11.2018 1.18665 11.1878 1.17882L10.212 2.92462C10.2306 2.93504 10.2492 2.94531 10.2656 2.95436L11.2335 1.20416ZM11.5876 1.42167C11.4532 1.32406 11.307 1.24482 11.2335 1.20416L10.2656 2.95436C10.3636 3.00854 10.396 3.02808 10.4122 3.03988L11.5876 1.42167ZM14.8567 0.000174463C13.2534 -0.0107529 11.6966 0.491815 10.4135 1.42076L11.5863 3.04078C12.5252 2.36111 13.6664 1.99211 14.8431 2.00013L14.8567 0.000174463ZM17.3016 7.02524C17.3074 6.94761 17.344 6.89323 17.3749 6.86523C17.4046 6.83832 17.4421 6.82256 17.4834 6.82151L17.5342 8.82086C18.4128 8.79853 19.2242 8.12947 19.296 7.17525L17.3016 7.02524ZM17.2988 6.98751V7.10024H19.2988V6.98751H17.2988ZM15.8504 4.93486C16.7565 5.26066 17.3188 6.08836 17.299 6.96491L19.2985 7.0101C19.3387 5.23215 18.2031 3.65545 16.5272 3.05283L15.8504 4.93486ZM16.1145 4.82028C16.0915 4.88125 16.048 4.91942 16.0101 4.93716C15.9727 4.95465 15.9257 4.95988 15.879 4.94466L16.4986 3.04304C15.598 2.74964 14.5882 3.19939 14.2431 4.11478L16.1145 4.82028ZM15.9974 4.49447C16.0738 4.52014 16.1784 4.63951 16.1221 4.79943L14.2355 4.13562C13.8992 5.09133 14.4439 6.08227 15.3602 6.39026L15.9974 4.49447ZM17.7488 6.92972C17.7488 5.8306 17.0403 4.86424 16.0131 4.4999L15.3445 6.38483C15.5993 6.47522 15.7488 6.70443 15.7488 6.92972H17.7488ZM17.7488 6.95909V6.92972H15.7488V6.95909H17.7488ZM17.6935 6.89039C17.7313 6.93389 17.7497 6.99274 17.745 7.04633L15.7526 6.87185C15.7099 7.35932 15.8663 7.83691 16.1841 8.20251L17.6935 6.89039ZM17.5989 6.82525C17.5992 6.82528 17.6066 6.8258 17.621 6.83259C17.6358 6.8396 17.6638 6.85624 17.6935 6.8904L16.1841 8.2025C16.5218 8.59104 16.9882 8.77819 17.4187 8.81712L17.5989 6.82525Z" fill="black"/>
</svg>
