<svg width="20" height="20" viewBox="0 0 20 20" fill="none" xmlns="http://www.w3.org/2000/svg">
<path d="M17.666 10C17.666 9.73478 17.5607 9.48043 17.3731 9.29289C17.1856 9.10536 16.9312 9 16.666 9H9.07602L11.376 6.71C11.4693 6.61676 11.5432 6.50607 11.5937 6.38425C11.6441 6.26243 11.6701 6.13186 11.6701 6C11.6701 5.86814 11.6441 5.73757 11.5937 5.61575C11.5432 5.49393 11.4693 5.38324 11.376 5.29C11.2828 5.19676 11.1721 5.1228 11.0503 5.07234C10.9284 5.02188 10.7979 4.99591 10.666 4.99591C10.5342 4.99591 10.4036 5.02188 10.2818 5.07234C10.1599 5.1228 10.0493 5.19676 9.95602 5.29L5.95602 9.29C5.86498 9.3851 5.79361 9.49725 5.74602 9.62C5.646 9.86346 5.646 10.1365 5.74602 10.38C5.79361 10.5028 5.86498 10.6149 5.95602 10.71L9.95602 14.71C10.049 14.8037 10.1596 14.8781 10.2814 14.9289C10.4033 14.9797 10.534 15.0058 10.666 15.0058C10.798 15.0058 10.9287 14.9797 11.0506 14.9289C11.1725 14.8781 11.2831 14.8037 11.376 14.71C11.4697 14.617 11.5441 14.5064 11.5949 14.3846C11.6457 14.2627 11.6718 14.132 11.6718 14C11.6718 13.868 11.6457 13.7373 11.5949 13.6154C11.5441 13.4936 11.4697 13.383 11.376 13.29L9.07602 11H16.666C16.9312 11 17.1856 10.8946 17.3731 10.7071C17.5607 10.5196 17.666 10.2652 17.666 10ZM14.666 0H4.66602C3.87037 0 3.1073 0.316071 2.5447 0.87868C1.98209 1.44129 1.66602 2.20435 1.66602 3V17C1.66602 17.7956 1.98209 18.5587 2.5447 19.1213C3.1073 19.6839 3.87037 20 4.66602 20H14.666C15.4617 20 16.2247 19.6839 16.7873 19.1213C17.3499 18.5587 17.666 17.7956 17.666 17V14C17.666 13.7348 17.5607 13.4804 17.3731 13.2929C17.1856 13.1054 16.9312 13 16.666 13C16.4008 13 16.1464 13.1054 15.9589 13.2929C15.7714 13.4804 15.666 13.7348 15.666 14V17C15.666 17.2652 15.5607 17.5196 15.3731 17.7071C15.1856 17.8946 14.9312 18 14.666 18H4.66602C4.4008 18 4.14645 17.8946 3.95891 17.7071C3.77137 17.5196 3.66602 17.2652 3.66602 17V3C3.66602 2.73478 3.77137 2.48043 3.95891 2.29289C4.14645 2.10536 4.4008 2 4.66602 2H14.666C14.9312 2 15.1856 2.10536 15.3731 2.29289C15.5607 2.48043 15.666 2.73478 15.666 3V6C15.666 6.26522 15.7714 6.51957 15.9589 6.70711C16.1464 6.89464 16.4008 7 16.666 7C16.9312 7 17.1856 6.89464 17.3731 6.70711C17.5607 6.51957 17.666 6.26522 17.666 6V3C17.666 2.20435 17.3499 1.44129 16.7873 0.87868C16.2247 0.316071 15.4617 0 14.666 0Z" fill="black"/>
</svg>
