<svg width="20" height="18" viewBox="0 0 20 18" fill="none" xmlns="http://www.w3.org/2000/svg">
<path d="M19.32 2.04904L13.32 0.0502679H13.25C13.2034 0.0455924 13.1565 0.0455924 13.11 0.0502679H12.88H12.75H12.68L7 1.99907L1.32 0.0502679C1.16962 0.000709977 1.00961 -0.0124481 0.853138 0.0118764C0.69667 0.0362008 0.548219 0.0973125 0.420003 0.190182C0.290762 0.282141 0.185268 0.403513 0.112238 0.54427C0.039208 0.685027 0.000736953 0.84113 3.33353e-06 0.999682V14.991C-0.000537828 15.2006 0.0648223 15.405 0.186845 15.5753C0.308868 15.7457 0.481382 15.8734 0.680003 15.9405L6.68 17.9392C6.88145 18.0049 7.09855 18.0049 7.3 17.9392L13 16.0404L18.68 17.9892C18.7862 18.0036 18.8938 18.0036 19 17.9892C19.2091 17.9921 19.4132 17.9253 19.58 17.7993C19.7092 17.7074 19.8147 17.586 19.8878 17.4452C19.9608 17.3045 19.9993 17.1484 20 16.9898V2.99845C20.0005 2.78893 19.9352 2.58455 19.8132 2.41418C19.6911 2.24381 19.5186 2.11608 19.32 2.04904ZM6 15.6007L2 14.2715V2.38883L6 3.718V15.6007ZM12 14.2715L8 15.6007V3.718L12 2.38883V14.2715ZM18 15.6007L14 14.2715V2.38883L18 3.718V15.6007Z" fill="black"/>
</svg>
