<svg width="60" height="60" viewBox="0 0 60 60" fill="none" xmlns="http://www.w3.org/2000/svg">
<path fill-rule="evenodd" clip-rule="evenodd" d="M30.0193 2.03549e-05C36.9594 0.00448321 43.6833 2.41502 49.0455 6.82095C54.4077 11.2269 58.0764 17.3557 59.4267 24.1632C60.7769 30.9707 59.7252 38.0357 56.4507 44.1548C53.1761 50.2738 47.8814 55.0683 41.4684 57.7213C35.0554 60.3744 27.9209 60.7219 21.2804 58.7048C14.6399 56.6876 8.90416 52.4305 5.05037 46.6587C1.19658 40.8869 -0.536868 33.9575 0.145339 27.051C0.827547 20.1445 3.88321 13.6881 8.79175 8.78188C11.5784 5.99363 14.8878 3.78268 18.5304 2.27572C22.1731 0.768766 26.0773 -0.00457442 30.0193 2.03549e-05Z" fill="#FFC530"/>
<path fill-rule="evenodd" clip-rule="evenodd" d="M36.9333 17.2106C37.3107 16.8272 37.7606 16.5227 38.2568 16.3149C38.753 16.107 39.2856 16 39.8235 16C40.3615 16 40.8941 16.107 41.3903 16.3149C41.8865 16.5227 42.3363 16.8272 42.7137 17.2106C43.4813 17.9902 43.9116 19.0404 43.9116 20.1344C43.9116 21.2285 43.4813 22.2787 42.7137 23.0582L35.7347 30.1829L42.7361 37.2852C43.5009 38.0571 43.93 39.0999 43.93 40.1866C43.93 41.2732 43.5009 42.316 42.7361 43.0879C42.3582 43.4683 41.9088 43.7702 41.4137 43.9762C40.9186 44.1822 40.3877 44.2882 39.8515 44.2882C39.3153 44.2882 38.7844 44.1822 38.2894 43.9762C37.7943 43.7702 37.3449 43.4683 36.9669 43.0879L30.0103 36.0305L23.0537 43.0992C22.6753 43.4829 22.2245 43.7876 21.7274 43.9956C21.2303 44.2036 20.6968 44.3107 20.1579 44.3107C19.619 44.3107 19.0855 44.2036 18.5884 43.9956C18.0912 43.7876 17.6404 43.4829 17.2621 43.0992C16.4925 42.3229 16.0607 41.2741 16.0607 40.181C16.0607 39.0879 16.4925 38.039 17.2621 37.2628L24.1963 30.1829L17.1949 23.0918C16.4294 22.318 16 21.2734 16 20.1848C16 19.0963 16.4294 18.0517 17.1949 17.2779C17.5721 16.8961 18.0212 16.5931 18.5164 16.3862C19.0115 16.1794 19.5428 16.0729 20.0795 16.0729C20.6161 16.0729 21.1474 16.1794 21.6425 16.3862C22.1377 16.5931 22.5869 16.8961 22.9641 17.2779L29.9207 24.3241L36.8885 17.2554L36.9333 17.2106Z" fill="white"/>
</svg>
