<svg width="60" height="60" viewBox="0 0 60 60" fill="none" xmlns="http://www.w3.org/2000/svg">
<path fill-rule="evenodd" clip-rule="evenodd" d="M30 0C35.9334 0 41.7336 1.75947 46.6671 5.05591C51.6006 8.35235 55.4458 13.0377 57.7164 18.5195C59.987 24.0013 60.5811 30.0333 59.4236 35.8527C58.266 41.6721 55.4088 47.0176 51.2132 51.2132C47.0176 55.4088 41.6721 58.266 35.8527 59.4236C30.0333 60.5811 24.0013 59.987 18.5195 57.7164C13.0377 55.4458 8.35235 51.6006 5.05591 46.6671C1.75947 41.7336 0 35.9334 0 30C0 22.0435 3.16071 14.4129 8.7868 8.7868C14.4129 3.16071 22.0435 0 30 0Z" fill="#346A2B"/>
<path fill-rule="evenodd" clip-rule="evenodd" d="M20.4128 24.977L25.7302 30.016L38.2986 17.2573C39.3386 16.2026 39.9929 15.353 41.2771 16.6762L45.4421 20.9438C46.8093 22.2963 46.7409 23.0922 45.4421 24.3618L28.113 41.4125C25.3884 44.0785 25.862 44.2397 23.1032 41.5053L13.3962 31.8569C12.82 31.2319 12.8835 30.602 13.5134 29.9819L18.3474 24.9672C19.0798 24.1957 19.6657 24.2641 20.4079 24.9672L20.4128 24.977Z" fill="white"/>
</svg>
