<svg width="35" height="32" viewBox="0 0 35 32" fill="none" xmlns="http://www.w3.org/2000/svg">
<path fill-rule="evenodd" clip-rule="evenodd" d="M23.6238 1.00025C24.6545 1.00025 25.6836 1.14078 26.662 1.45814C32.6912 3.35286 34.8638 9.74755 33.049 15.337C32.0199 18.1933 30.3374 20.8001 28.1338 22.9301C24.9796 25.8827 21.5182 28.5037 17.7922 30.7616L17.3839 31L16.9592 30.7458C13.2201 28.5037 9.73916 25.8827 6.5555 22.9143C4.36663 20.7843 2.68251 18.1933 1.63709 15.337C-0.20875 9.74755 1.96378 3.35286 8.05831 1.42499C8.53202 1.26709 9.02043 1.15657 9.51047 1.09499H9.70649C10.1655 1.03025 10.6212 1.00025 11.0786 1.00025H11.2583C12.2874 1.03025 13.2838 1.20393 14.2492 1.5213H14.3456C14.4109 1.5513 14.4599 1.58446 14.4926 1.61446C14.8536 1.72656 15.195 1.85288 15.5217 2.02656L16.1424 2.29498C16.2924 2.3723 16.4608 2.49045 16.6063 2.59256C16.6984 2.65726 16.7815 2.71551 16.8448 2.75287C16.8715 2.76807 16.8986 2.78336 16.9259 2.79877C17.0659 2.8778 17.2118 2.96012 17.3349 3.05129C19.1497 1.71077 21.3532 0.984463 23.6238 1.00025ZM27.9689 12.3686C28.6386 12.3512 29.2103 11.8317 29.2593 11.167V10.9791C29.3083 8.76701 27.9215 6.76334 25.8127 5.98966C25.143 5.76703 24.4079 6.11598 24.1629 6.77913C23.9342 7.44228 24.2936 8.16859 24.9796 8.40385C26.0267 8.7828 26.7274 9.7791 26.7274 10.8828V10.9317C26.6964 11.2933 26.8091 11.6422 27.0378 11.9107C27.2665 12.1791 27.6095 12.3354 27.9689 12.3686Z" fill="#FC0707"/>
<path d="M26.662 1.45814L26.5078 1.93377L26.5121 1.93514L26.662 1.45814ZM23.6238 1.00025L23.6203 1.50025H23.6238V1.00025ZM33.049 15.337L33.5194 15.5065L33.5221 15.499L33.5245 15.4914L33.049 15.337ZM28.1338 22.9301L28.4755 23.2951L28.4813 23.2896L28.1338 22.9301ZM17.7922 30.7616L18.0444 31.1934L18.0514 31.1892L17.7922 30.7616ZM17.3839 31L17.1271 31.429L17.3807 31.5808L17.636 31.4318L17.3839 31ZM16.9592 30.7458L16.702 31.1746L16.7024 31.1748L16.9592 30.7458ZM6.5555 22.9143L6.20672 23.2727L6.21453 23.28L6.5555 22.9143ZM1.63709 15.337L1.1623 15.4938L1.16481 15.5013L1.16755 15.5088L1.63709 15.337ZM8.05831 1.42499L8.20912 1.90176L8.21641 1.89933L8.05831 1.42499ZM9.51047 1.09499V0.594988H9.47918L9.44813 0.59889L9.51047 1.09499ZM9.70649 1.09499V1.59499H9.74157L9.77632 1.59009L9.70649 1.09499ZM11.2583 1.00025L11.2729 0.500464L11.2656 0.500252H11.2583V1.00025ZM14.2492 1.5213L14.0931 1.99629L14.1691 2.0213H14.2492V1.5213ZM14.3456 1.5213L14.5542 1.06691L14.4549 1.0213H14.3456V1.5213ZM14.4926 1.61446L14.1544 1.98274L14.2371 2.05867L14.3443 2.09196L14.4926 1.61446ZM15.5217 2.02656L15.287 2.46805L15.3048 2.4775L15.3232 2.48549L15.5217 2.02656ZM16.1424 2.29498L16.3715 1.85056L16.3564 1.84278L16.3409 1.83605L16.1424 2.29498ZM16.6063 2.59256L16.8935 2.18329L16.8935 2.18329L16.6063 2.59256ZM16.8448 2.75287L16.5908 3.18362L16.5971 3.1872L16.8448 2.75287ZM16.9259 2.79877L17.1716 2.3633L17.1716 2.3633L16.9259 2.79877ZM17.3349 3.05129L17.0372 3.453L17.3344 3.67326L17.6319 3.45347L17.3349 3.05129ZM29.2593 11.167L29.758 11.2037L29.7593 11.1854V11.167H29.2593ZM27.9689 12.3686L27.9229 12.8664L27.9523 12.8692L27.9819 12.8684L27.9689 12.3686ZM29.2593 10.9791L28.7593 10.968V10.9791H29.2593ZM25.8127 5.98966L25.9849 5.52026L25.9777 5.51761L25.9704 5.51519L25.8127 5.98966ZM24.1629 6.77913L23.6938 6.6058L23.6902 6.61613L24.1629 6.77913ZM24.9796 8.40385L25.1498 7.93363L25.1418 7.93089L24.9796 8.40385ZM26.7274 10.9317L27.2256 10.9745L27.2274 10.9531V10.9317H26.7274ZM27.0378 11.9107L26.6572 12.2349L26.6572 12.2349L27.0378 11.9107ZM26.8163 0.982536C25.7814 0.646847 24.6994 0.500252 23.6238 0.500252V1.50025C24.6096 1.50025 25.5858 1.63471 26.5078 1.93375L26.8163 0.982536ZM33.5245 15.4914C35.4019 9.7092 33.1729 2.98014 26.8119 0.981142L26.5121 1.93514C32.2095 3.72559 34.3256 9.78589 32.5734 15.1826L33.5245 15.4914ZM28.4813 23.2896C30.7398 21.1065 32.4643 18.4347 33.5194 15.5065L32.5786 15.1675C31.5754 17.9519 29.9349 20.4937 27.7863 22.5706L28.4813 23.2896ZM18.0514 31.1892C21.8067 28.9135 25.2957 26.2716 28.4755 23.2951L27.7921 22.565C24.6634 25.4938 21.2297 28.0939 17.5331 30.334L18.0514 31.1892ZM17.636 31.4318L18.0443 31.1934L17.5401 30.3298L17.1318 30.5682L17.636 31.4318ZM16.7024 31.1748L17.1271 31.429L17.6406 30.571L17.2159 30.3168L16.7024 31.1748ZM6.21453 23.28C9.42383 26.2723 12.9329 28.9145 16.702 31.1746L17.2163 30.317C13.5073 28.0929 10.0545 25.4931 6.89647 22.5486L6.21453 23.28ZM1.16755 15.5088C2.23898 18.4362 3.96464 21.0908 6.2068 23.2726L6.9042 22.5559C4.76863 20.4778 3.12605 17.9504 2.10662 15.1651L1.16755 15.5088ZM7.90751 0.948268C1.48426 2.98013 -0.748608 9.70728 1.1623 15.4938L2.11187 15.1802C0.331107 9.78782 2.4433 3.7256 8.20911 1.9017L7.90751 0.948268ZM9.44813 0.59889C8.92563 0.664547 8.40513 0.78234 7.9002 0.950641L8.21641 1.89933C8.6589 1.75184 9.11523 1.64859 9.57281 1.59109L9.44813 0.59889ZM9.70649 0.594988H9.51047V1.59499H9.70649V0.594988ZM11.0786 0.500252C10.5992 0.500252 10.1201 0.531712 9.63666 0.599888L9.77632 1.59009C10.2109 1.52879 10.6433 1.50025 11.0786 1.50025V0.500252ZM11.2583 0.500252H11.0786V1.50025H11.2583V0.500252ZM14.4054 1.04631C13.3937 0.713718 12.3495 0.53185 11.2729 0.500464L11.2437 1.50004C12.2253 1.52865 13.174 1.69415 14.0931 1.99629L14.4054 1.04631ZM14.3456 1.0213H14.2492V2.0213H14.3456V1.0213ZM14.8308 1.24617C14.7529 1.1747 14.6579 1.1145 14.5542 1.06691L14.1369 1.97569C14.1494 1.98141 14.1571 1.98595 14.1605 1.98817C14.1643 1.99061 14.1616 1.98935 14.1544 1.98274L14.8308 1.24617ZM15.7564 1.58507C15.3913 1.39096 15.0172 1.25381 14.6409 1.13695L14.3443 2.09196C14.69 2.19931 14.9987 2.31479 15.287 2.46805L15.7564 1.58507ZM16.3409 1.83605L15.7201 1.56763L15.3232 2.48549L15.944 2.75391L16.3409 1.83605ZM16.8935 2.18329C16.7558 2.08666 16.5579 1.94662 16.3715 1.85056L15.9133 2.7394C16.027 2.79799 16.1657 2.89424 16.319 3.00183L16.8935 2.18329ZM17.0988 2.32216C17.0565 2.29726 16.9925 2.25277 16.8935 2.18329L16.319 3.00183C16.4044 3.06174 16.5064 3.13377 16.5909 3.18357L17.0988 2.32216ZM17.1716 2.3633C17.1441 2.34779 17.118 2.33307 17.0925 2.31854L16.5971 3.1872C16.6249 3.20307 16.653 3.21892 16.6802 3.23423L17.1716 2.3633ZM17.6325 2.64957C17.48 2.53649 17.3055 2.43889 17.1716 2.3633L16.6802 3.23423C16.8263 3.3167 16.9437 3.38374 17.0372 3.453L17.6325 2.64957ZM23.6272 0.500264C21.2476 0.483716 18.9387 1.24496 17.0378 2.64911L17.6319 3.45347C19.3606 2.17659 21.4589 1.48521 23.6203 1.50024L23.6272 0.500264ZM28.7607 11.1302C28.7316 11.5249 28.3829 11.8577 27.9559 11.8687L27.9819 12.8684C28.8943 12.8447 29.6891 12.1385 29.758 11.2037L28.7607 11.1302ZM28.7593 10.9791V11.167H29.7593V10.9791H28.7593ZM25.6405 6.45907C27.5534 7.16089 28.8036 8.97479 28.7595 10.968L29.7592 10.9902C29.8131 8.55922 28.2896 6.36579 25.9849 5.52026L25.6405 6.45907ZM24.6319 6.95242C24.7826 6.54454 25.2389 6.32582 25.655 6.46413L25.9704 5.51519C25.047 5.20824 24.0332 5.68741 23.6939 6.60584L24.6319 6.95242ZM25.1418 7.93089C24.7086 7.78234 24.5 7.33533 24.6356 6.94213L23.6902 6.61613C23.3684 7.54923 23.8785 8.55485 24.8174 8.87682L25.1418 7.93089ZM27.2274 10.8828C27.2274 9.56693 26.3932 8.38373 25.1498 7.9337L24.8095 8.87401C25.6601 9.18187 26.2274 9.99128 26.2274 10.8828H27.2274ZM27.2274 10.9317V10.8828H26.2274V10.9317H27.2274ZM27.4184 11.5864C27.2771 11.4206 27.2059 11.2041 27.2256 10.9745L26.2293 10.889C26.1869 11.3825 26.3411 11.8639 26.6572 12.2349L27.4184 11.5864ZM28.0148 11.8707C27.7636 11.8475 27.5492 11.74 27.4184 11.5864L26.6572 12.2349C26.9837 12.6182 27.4555 12.8233 27.9229 12.8664L28.0148 11.8707Z" fill="black"/>
</svg>
