<svg width="20" height="21" viewBox="0 0 20 21" fill="none" xmlns="http://www.w3.org/2000/svg">
<g clip-path="url(#clip0)">
<path fill-rule="evenodd" clip-rule="evenodd" d="M15.9433 0.365492L19.6345 4.05664C20.1218 4.54396 20.1218 5.3408 19.6345 5.82812L17.593 7.86961L12.1303 2.40698L14.1718 0.365492C14.6592 -0.121831 15.456 -0.121831 15.9433 0.365492ZM11.5541 8.59236V8.59401C11.7056 8.74547 11.7813 8.94633 11.7813 9.14389C11.7813 9.34146 11.7056 9.54067 11.5541 9.69378V9.69542L11.5525 9.69707L6.60021 14.651H6.59856C6.55576 14.6938 6.50801 14.73 6.46027 14.7613H6.45862C6.40923 14.7926 6.3582 14.8173 6.30551 14.8354C6.03222 14.9309 5.71447 14.8683 5.49715 14.651H5.4955V14.6493C5.4527 14.6065 5.41648 14.5588 5.3852 14.511V14.5094C5.35391 14.46 5.32922 14.409 5.31111 14.3563C5.21562 14.083 5.27818 13.7652 5.49386 13.5479V13.5463L10.4478 8.59236H10.4494C10.6009 8.4409 10.8017 8.36516 10.9993 8.36516C11.1969 8.36516 11.3961 8.4409 11.5492 8.59236H11.5541ZM7.4876 17.9635C6.00917 18.4211 4.53238 18.8772 3.05395 19.3349C-0.419875 20.4099 -0.405058 21.1261 0.543246 17.7807L2.0365 12.5123L2.03156 12.5074L11.0964 3.4409L16.5591 8.90352L7.49254 17.97L7.4876 17.9635ZM2.96834 13.4442L6.55576 17.0316C5.58441 17.3312 4.61305 17.6309 3.64334 17.9289C1.36149 18.6319 1.37137 19.1027 1.99204 16.9048L2.96834 13.4442Z" fill="black"/>
</g>
<defs>
<clipPath id="clip0">
<rect width="20" height="20.2305" fill="white"/>
</clipPath>
</defs>
</svg>
