<svg width="26" height="26" viewBox="0 0 26 26" fill="none" xmlns="http://www.w3.org/2000/svg">
<path fill-rule="evenodd" clip-rule="evenodd" d="M13.9002 1.58778L16.8252 7.79982C16.9717 8.11315 17.2547 8.33182 17.583 8.38249L24.1316 9.38116C24.3968 9.4185 24.6355 9.56516 24.7984 9.78917C25.104 10.2092 25.0573 10.8038 24.6911 11.1652L19.9448 16.0105C19.7036 16.2505 19.5962 16.6025 19.6594 16.9452L20.796 23.7826C20.8756 24.3493 20.5093 24.8799 19.9726 24.9719C19.7503 25.0079 19.523 24.9706 19.3209 24.8653L13.4885 21.6372C13.1955 21.4692 12.8443 21.4692 12.5513 21.6372L6.67597 24.8826C6.18468 25.1466 5.5835 24.9506 5.31575 24.4426C5.21345 24.2373 5.17808 24.0039 5.21345 23.7759L6.35013 16.9385C6.40696 16.5972 6.29961 16.2465 6.06469 16.0052L1.29317 11.1612C0.904177 10.7532 0.901651 10.0892 1.28938 9.6785C1.29065 9.67716 1.29191 9.6745 1.29317 9.67316C1.45357 9.51983 1.65059 9.41716 1.86404 9.37716L8.41383 8.37849C8.74094 8.32382 9.02258 8.10782 9.17161 7.79449L12.0941 1.58778C12.2116 1.33578 12.42 1.14244 12.6726 1.05444C12.9264 0.965107 13.2043 0.98644 13.443 1.11311C13.6388 1.21577 13.7992 1.38244 13.9002 1.58778Z" stroke="#200E32" stroke-width="1.5" stroke-linecap="round" stroke-linejoin="round"/>
</svg>
