<svg width="50" height="50" viewBox="0 0 50 50" fill="none" xmlns="http://www.w3.org/2000/svg">
<path fill-rule="evenodd" clip-rule="evenodd" d="M25 0C11.1929 0 0 11.1929 0 25C0 38.8071 11.1929 50 25 50C38.8071 50 50 38.8071 50 25C50 11.1929 38.8071 0 25 0ZM19.5034 11.7473C20.9256 11.6826 21.3801 11.6667 25.0012 11.6667H24.9971C28.6193 11.6667 29.0721 11.6826 30.4944 11.7473C31.9138 11.8123 32.8833 12.037 33.7333 12.3667C34.6111 12.707 35.3527 13.1626 36.0944 13.9043C36.8361 14.6454 37.2916 15.3893 37.6333 16.2662C37.9611 17.114 38.1861 18.0829 38.2528 19.5024C38.3167 20.9246 38.3333 21.3791 38.3333 25.0002C38.3333 28.6214 38.3167 29.0747 38.2528 30.4969C38.1861 31.9158 37.9611 32.885 37.6333 33.7331C37.2916 34.6097 36.8361 35.3536 36.0944 36.0948C35.3536 36.8364 34.6108 37.2931 33.7341 37.6337C32.8858 37.9634 31.9158 38.1881 30.4963 38.2531C29.0741 38.3178 28.621 38.3337 24.9996 38.3337C21.3787 38.3337 20.9245 38.3178 19.5023 38.2531C18.0831 38.1881 17.1139 37.9634 16.2656 37.6337C15.3892 37.2931 14.6453 36.8364 13.9045 36.0948C13.1631 35.3536 12.7075 34.6097 12.3667 33.7328C12.0372 32.885 11.8125 31.9161 11.7472 30.4967C11.6828 29.0744 11.6667 28.6214 11.6667 25.0002C11.6667 21.3791 11.6833 20.9243 11.7469 19.5021C11.8108 18.0832 12.0358 17.114 12.3664 16.2659C12.7081 15.3893 13.1636 14.6454 13.9053 13.9043C14.6464 13.1629 15.3903 12.7073 16.2673 12.3667C17.115 12.037 18.0839 11.8123 19.5034 11.7473Z" fill="url(#paint0_linear)"/>
<path fill-rule="evenodd" clip-rule="evenodd" d="M23.8051 14.0693C24.0374 14.0689 24.2872 14.069 24.5569 14.0691L25.0013 14.0693C28.5613 14.0693 28.9832 14.082 30.3891 14.1459C31.6891 14.2054 32.3947 14.4226 32.8647 14.6051C33.4869 14.8468 33.9305 15.1357 34.3969 15.6023C34.8636 16.069 35.1525 16.5134 35.3947 17.1357C35.5772 17.6051 35.7947 18.3107 35.8539 19.6107C35.9178 21.0163 35.9316 21.4385 35.9316 24.9969C35.9316 28.5552 35.9178 28.9775 35.8539 30.383C35.7944 31.683 35.5772 32.3886 35.3947 32.8581C35.153 33.4803 34.8636 33.9233 34.3969 34.3897C33.9302 34.8564 33.4872 35.1453 32.8647 35.387C32.3952 35.5703 31.6891 35.787 30.3891 35.8464C28.9835 35.9103 28.5613 35.9242 25.0013 35.9242C21.4409 35.9242 21.019 35.9103 19.6134 35.8464C18.3134 35.7864 17.6078 35.5692 17.1376 35.3867C16.5153 35.145 16.0709 34.8561 15.6042 34.3895C15.1375 33.9228 14.8487 33.4795 14.6064 32.8569C14.4239 32.3875 14.2064 31.6819 14.1473 30.3819C14.0834 28.9763 14.0706 28.5541 14.0706 24.9935C14.0706 21.4329 14.0834 21.0129 14.1473 19.6074C14.2067 18.3074 14.4239 17.6018 14.6064 17.1318C14.8481 16.5096 15.1375 16.0651 15.6042 15.5984C16.0709 15.1318 16.5153 14.8429 17.1376 14.6006C17.6076 14.4173 18.3134 14.2006 19.6134 14.1409C20.8434 14.0854 21.3201 14.0687 23.8051 14.0659V14.0693ZM32.1186 16.2831C31.2352 16.2831 30.5185 16.999 30.5185 17.8826C30.5185 18.7659 31.2352 19.4826 32.1186 19.4826C33.0019 19.4826 33.7186 18.7659 33.7186 17.8826C33.7186 16.9992 33.0019 16.2826 32.1186 16.2826V16.2831ZM18.154 25C18.154 21.2186 21.2197 18.1528 25.001 18.1527C28.7824 18.1527 31.8474 21.2185 31.8474 25C31.8474 28.7814 28.7827 31.8459 25.0013 31.8459C21.2198 31.8459 18.154 28.7814 18.154 25Z" fill="url(#paint1_linear)"/>
<path d="M25.0013 20.5557C27.4557 20.5557 29.4457 22.5454 29.4457 25.0002C29.4457 27.4546 27.4557 29.4446 25.0013 29.4446C22.5465 29.4446 20.5568 27.4546 20.5568 25.0002C20.5568 22.5454 22.5465 20.5557 25.0013 20.5557V20.5557Z" fill="url(#paint2_linear)"/>
<defs>
<linearGradient id="paint0_linear" x1="25" y1="0" x2="25" y2="50" gradientUnits="userSpaceOnUse">
<stop stop-color="#A65BE1"/>
<stop offset="1" stop-color="#F9700C" stop-opacity="0.65"/>
</linearGradient>
<linearGradient id="paint1_linear" x1="25.0011" y1="14.0659" x2="25.0011" y2="35.9242" gradientUnits="userSpaceOnUse">
<stop stop-color="#A65BE1"/>
<stop offset="1" stop-color="#F9700C" stop-opacity="0.65"/>
</linearGradient>
<linearGradient id="paint2_linear" x1="25.0013" y1="20.5557" x2="25.0013" y2="29.4446" gradientUnits="userSpaceOnUse">
<stop stop-color="#A65BE1"/>
<stop offset="1" stop-color="#F9700C" stop-opacity="0.65"/>
</linearGradient>
</defs>
</svg>
