<svg width="50" height="50" viewBox="0 0 50 50" fill="none" xmlns="http://www.w3.org/2000/svg">
<path fill-rule="evenodd" clip-rule="evenodd" d="M25 0C11.1929 0 0 11.1929 0 25C0 38.8071 11.1929 50 25 50C38.8071 50 50 38.8071 50 25C50 11.1929 38.8071 0 25 0ZM27.0355 32.8919C26.789 33.1518 26.3078 33.2043 26.3078 33.2043H24.7139C24.7139 33.2043 21.1976 33.4117 18.1 30.2469C14.722 26.794 11.7391 19.9433 11.7391 19.9433C11.7391 19.9433 11.5669 19.4939 11.7534 19.2776C11.9634 19.0331 12.536 19.0177 12.536 19.0177L16.3458 18.9934C16.3458 18.9934 16.7044 19.051 16.9614 19.2366C17.174 19.3902 17.2927 19.6757 17.2927 19.6757C17.2927 19.6757 17.9083 21.2044 18.7234 22.5871C20.316 25.2871 21.0568 25.8773 21.5967 25.588C22.3845 25.1668 22.1485 21.7715 22.1485 21.7715C22.1485 21.7715 22.1628 20.5399 21.752 19.9907C21.4337 19.5656 20.8337 19.4415 20.569 19.4069C20.3538 19.3787 20.7059 18.8897 21.1624 18.6707C21.8485 18.3417 23.0588 18.3225 24.4896 18.3366C25.6048 18.3481 25.9256 18.416 26.3612 18.5197C27.3723 18.7591 27.3407 19.5266 27.2726 21.1831C27.2522 21.6784 27.2286 22.2533 27.2286 22.9174C27.2286 23.0666 27.2241 23.2257 27.2196 23.3893C27.1959 24.2379 27.1689 25.2097 27.7385 25.5714C28.0307 25.7557 28.7441 25.5982 30.5297 22.6229C31.3761 21.2121 32.01 19.5541 32.01 19.5541C32.01 19.5541 32.1496 19.2584 32.3648 19.1316C32.5852 19.0023 32.8826 19.042 32.8826 19.042L36.8919 19.0177C36.8919 19.0177 38.097 18.8756 38.2914 19.4107C38.4961 19.9702 37.8414 21.2786 36.2032 23.4218C34.6493 25.4553 33.8931 26.204 33.9625 26.8662C34.0132 27.35 34.5048 27.7877 35.4481 28.6466C37.4172 30.4412 37.945 31.3853 38.0719 31.6122C38.0824 31.631 38.0901 31.6449 38.0957 31.6539C38.9787 33.0916 37.1162 33.2043 37.1162 33.2043L33.5543 33.253C33.5543 33.253 32.79 33.4015 31.7831 32.7229C31.2556 32.3678 30.7402 31.7878 30.2493 31.2353C29.4996 30.3915 28.807 29.6121 28.2159 29.7962C27.2234 30.1061 27.2534 32.2044 27.2534 32.2044C27.2534 32.2044 27.2612 32.6538 27.0355 32.8919Z" fill="#3B89FE"/>
</svg>
