<svg width="33" height="30" viewBox="0 0 33 30" fill="none" xmlns="http://www.w3.org/2000/svg">
<path fill-rule="evenodd" clip-rule="evenodd" d="M20.5875 2.40348L32.5809 23.4287C32.8449 24.0563 32.9604 24.5666 32.9934 25.0967C33.0594 26.3353 32.6304 27.5393 31.7891 28.4658C30.9477 29.3889 29.8094 29.9339 28.5721 30H4.42019C3.90878 29.9686 3.39736 29.8514 2.91894 29.6697C0.526847 28.6953 -0.627958 25.9538 0.345378 23.5773L12.4213 2.38862C12.8338 1.6438 13.4607 1.00136 14.236 0.58849C16.4797 -0.668299 19.3337 0.157449 20.5875 2.40348ZM17.9309 16.2599C17.9309 17.0526 17.2875 17.7149 16.4956 17.7149C15.7038 17.7149 15.0439 17.0526 15.0439 16.2599V11.5878C15.0439 10.7934 15.7038 10.151 16.4956 10.151C17.2875 10.151 17.9309 10.7934 17.9309 11.5878V16.2599ZM16.4956 23.3629C15.7038 23.3629 15.0439 22.7006 15.0439 21.9096C15.0439 21.1152 15.7038 20.4546 16.4956 20.4546C17.2875 20.4546 17.9309 21.1003 17.9309 21.8914C17.9309 22.7006 17.2875 23.3629 16.4956 23.3629Z" fill="#FFC530"/>
</svg>
