<svg width="237" height="162" viewBox="0 0 237 162" fill="none" xmlns="http://www.w3.org/2000/svg">
<g clip-path="url(#clip0)">
<path d="M18.7108 158.884C10.1102 158.884 3.11865 151.894 3.11865 143.308V18.6922C3.11865 10.1062 10.1102 3.11523 18.7108 3.11523H218.29C226.89 3.11523 233.882 10.1062 233.882 18.6922V143.308C233.882 151.894 226.89 158.884 218.29 158.884H18.7108Z" fill="url(#paint0_linear)"/>
<path d="M218.289 6.23077C225.169 6.23077 230.763 11.8198 230.763 18.6923V143.308C230.763 150.18 225.169 155.769 218.289 155.769H18.7105C11.8313 155.769 6.23684 150.18 6.23684 143.308V18.6923C6.23684 11.8198 11.8313 6.23077 18.7105 6.23077H218.289ZM218.289 0H18.7105C8.37608 0 0 8.36792 0 18.6923V143.308C0 153.632 8.37608 162 18.7105 162H218.289C228.624 162 237 153.632 237 143.308V18.6923C237 8.36792 228.624 0 218.289 0Z" fill="#36404D"/>
<path d="M236 41H-1V66H236V41Z" fill="#36404D"/>
<path d="M88 89H13V102H88V89Z" fill="white"/>
<path d="M164.464 136C164.464 134.56 164.64 133.104 164.992 131.632C165.376 130.128 166.128 128.688 167.248 127.312C168.4 125.904 170.128 124.608 172.432 123.424C173.36 122.944 174.32 122.48 175.312 122.032C176.304 121.552 177.232 121.04 178.096 120.496C178.96 119.92 179.664 119.28 180.208 118.576C180.752 117.84 181.024 116.976 181.024 115.984C181.024 115.184 180.784 114.416 180.304 113.68C179.824 112.912 179.12 112.288 178.192 111.808C177.264 111.296 176.096 111.04 174.688 111.04C173.344 111.04 172.144 111.28 171.088 111.76C170.064 112.24 169.2 112.8 168.496 113.44C167.824 114.048 167.312 114.544 166.96 114.928L164.896 112.672C165.088 112.48 165.456 112.144 166 111.664C166.544 111.152 167.248 110.624 168.112 110.08C169.008 109.536 170.048 109.072 171.232 108.688C172.416 108.304 173.744 108.112 175.216 108.112C177.168 108.112 178.832 108.464 180.208 109.168C181.616 109.872 182.688 110.8 183.424 111.952C184.16 113.072 184.528 114.304 184.528 115.648C184.528 116.96 184.24 118.096 183.664 119.056C183.12 119.984 182.4 120.8 181.504 121.504C180.64 122.176 179.728 122.768 178.768 123.28C177.84 123.76 176.992 124.176 176.224 124.528C174.208 125.488 172.624 126.448 171.472 127.408C170.32 128.336 169.472 129.264 168.928 130.192C168.416 131.12 168.064 132.064 167.872 133.024H185.056V136H164.464ZM196.503 115.216C195.159 115.216 193.943 114.912 192.855 114.304C191.799 113.696 190.935 112.864 190.263 111.808C189.623 110.752 189.303 109.6 189.303 108.352C189.303 107.072 189.623 105.92 190.263 104.896C190.935 103.84 191.799 103.008 192.855 102.4C193.943 101.76 195.159 101.44 196.503 101.44C197.815 101.44 199.015 101.76 200.103 102.4C201.191 103.008 202.055 103.84 202.695 104.896C203.335 105.92 203.655 107.072 203.655 108.352C203.655 109.6 203.335 110.752 202.695 111.808C202.055 112.864 201.191 113.696 200.103 114.304C199.015 114.912 197.815 115.216 196.503 115.216ZM190.455 134.704L203.895 118.384L216.903 101.728L218.583 103.168L205.239 119.488L192.135 136.192L190.455 134.704ZM196.503 113.344C197.815 113.344 198.919 112.848 199.815 111.856C200.743 110.832 201.207 109.664 201.207 108.352C201.207 106.944 200.727 105.76 199.767 104.8C198.839 103.84 197.751 103.36 196.503 103.36C195.159 103.36 194.023 103.856 193.095 104.848C192.199 105.84 191.751 107.008 191.751 108.352C191.751 109.728 192.215 110.912 193.143 111.904C194.071 112.864 195.191 113.344 196.503 113.344ZM212.583 136.48C211.271 136.48 210.071 136.176 208.983 135.568C207.895 134.928 207.031 134.096 206.391 133.072C205.751 132.016 205.431 130.848 205.431 129.568C205.431 128.32 205.751 127.168 206.391 126.112C207.031 125.056 207.895 124.224 208.983 123.616C210.071 123.008 211.271 122.704 212.583 122.704C213.927 122.704 215.127 123.008 216.183 123.616C217.271 124.224 218.135 125.056 218.775 126.112C219.447 127.168 219.783 128.32 219.783 129.568C219.783 130.848 219.447 132.016 218.775 133.072C218.135 134.096 217.271 134.928 216.183 135.568C215.127 136.176 213.927 136.48 212.583 136.48ZM212.583 134.56C213.895 134.56 214.999 134.064 215.895 133.072C216.823 132.08 217.287 130.912 217.287 129.568C217.287 128.192 216.807 127.024 215.847 126.064C214.919 125.072 213.831 124.576 212.583 124.576C211.271 124.576 210.151 125.088 209.223 126.112C208.327 127.104 207.879 128.256 207.879 129.568C207.879 130.976 208.343 132.16 209.271 133.12C210.199 134.08 211.303 134.56 212.583 134.56Z" fill="white"/>
</g>
<defs>
<linearGradient id="paint0_linear" x1="118.5" y1="3.11523" x2="118.5" y2="158.884" gradientUnits="userSpaceOnUse">
<stop stop-color="#FFA553"/>
<stop offset="1" stop-color="#7D2104"/>
</linearGradient>
<clipPath id="clip0">
<rect width="237" height="162" fill="white"/>
</clipPath>
</defs>
</svg>
