<svg width="237" height="162" viewBox="0 0 237 162" fill="none" xmlns="http://www.w3.org/2000/svg">
<path d="M18.7105 158.884C10.1099 158.884 3.11841 151.894 3.11841 143.308V18.6922C3.11841 10.1062 10.1099 3.11523 18.7105 3.11523H218.289C226.89 3.11523 233.882 10.1062 233.882 18.6922V143.308C233.882 151.894 226.89 158.884 218.289 158.884H18.7105Z" fill="url(#paint0_linear)"/>
<path d="M218.289 6.23077C225.169 6.23077 230.763 11.8198 230.763 18.6923V143.308C230.763 150.18 225.169 155.769 218.289 155.769H18.7105C11.8313 155.769 6.23684 150.18 6.23684 143.308V18.6923C6.23684 11.8198 11.8313 6.23077 18.7105 6.23077H218.289ZM218.289 0H18.7105C8.37608 0 0 8.36792 0 18.6923V143.308C0 153.632 8.37608 162 18.7105 162H218.289C228.624 162 237 153.632 237 143.308V18.6923C237 8.36792 228.624 0 218.289 0Z" fill="#36404D"/>
<path d="M237 41H0V66H237V41Z" fill="#36404D"/>
<path d="M88 89H13V102H88V89Z" fill="white"/>
<path d="M181.039 111.04H162.655V108.016H186.223L168.991 142.096H165.247L181.039 111.04ZM195.831 115.216C194.487 115.216 193.271 114.912 192.183 114.304C191.127 113.696 190.263 112.864 189.591 111.808C188.951 110.752 188.631 109.6 188.631 108.352C188.631 107.072 188.951 105.92 189.591 104.896C190.263 103.84 191.127 103.008 192.183 102.4C193.271 101.76 194.487 101.44 195.831 101.44C197.143 101.44 198.343 101.76 199.431 102.4C200.519 103.008 201.383 103.84 202.023 104.896C202.663 105.92 202.983 107.072 202.983 108.352C202.983 109.6 202.663 110.752 202.023 111.808C201.383 112.864 200.519 113.696 199.431 114.304C198.343 114.912 197.143 115.216 195.831 115.216ZM189.783 134.704L203.223 118.384L216.231 101.728L217.911 103.168L204.567 119.488L191.463 136.192L189.783 134.704ZM195.831 113.344C197.143 113.344 198.247 112.848 199.143 111.856C200.071 110.832 200.535 109.664 200.535 108.352C200.535 106.944 200.055 105.76 199.095 104.8C198.167 103.84 197.079 103.36 195.831 103.36C194.487 103.36 193.351 103.856 192.423 104.848C191.527 105.84 191.079 107.008 191.079 108.352C191.079 109.728 191.543 110.912 192.471 111.904C193.399 112.864 194.519 113.344 195.831 113.344ZM211.911 136.48C210.599 136.48 209.399 136.176 208.311 135.568C207.223 134.928 206.359 134.096 205.719 133.072C205.079 132.016 204.759 130.848 204.759 129.568C204.759 128.32 205.079 127.168 205.719 126.112C206.359 125.056 207.223 124.224 208.311 123.616C209.399 123.008 210.599 122.704 211.911 122.704C213.255 122.704 214.455 123.008 215.511 123.616C216.599 124.224 217.463 125.056 218.103 126.112C218.775 127.168 219.111 128.32 219.111 129.568C219.111 130.848 218.775 132.016 218.103 133.072C217.463 134.096 216.599 134.928 215.511 135.568C214.455 136.176 213.255 136.48 211.911 136.48ZM211.911 134.56C213.223 134.56 214.327 134.064 215.223 133.072C216.151 132.08 216.615 130.912 216.615 129.568C216.615 128.192 216.135 127.024 215.175 126.064C214.247 125.072 213.159 124.576 211.911 124.576C210.599 124.576 209.479 125.088 208.551 126.112C207.655 127.104 207.207 128.256 207.207 129.568C207.207 130.976 207.671 132.16 208.599 133.12C209.527 134.08 210.631 134.56 211.911 134.56Z" fill="white"/>
<defs>
<linearGradient id="paint0_linear" x1="118.5" y1="3.11523" x2="118.5" y2="158.884" gradientUnits="userSpaceOnUse">
<stop stop-color="#FFEC3D" stop-opacity="0.8"/>
<stop offset="1" stop-color="#FFA216"/>
</linearGradient>
</defs>
</svg>
