<svg width="237" height="162" viewBox="0 0 237 162" fill="none" xmlns="http://www.w3.org/2000/svg">
<g clip-path="url(#clip0)">
<path d="M18.7108 158.884C10.1102 158.884 3.11865 151.894 3.11865 143.308V18.6922C3.11865 10.1062 10.1102 3.11523 18.7108 3.11523H218.29C226.89 3.11523 233.882 10.1062 233.882 18.6922V143.308C233.882 151.894 226.89 158.884 218.29 158.884H18.7108Z" fill="url(#paint0_linear)"/>
<path d="M218.289 6.23077C225.169 6.23077 230.763 11.8198 230.763 18.6923V143.308C230.763 150.18 225.169 155.769 218.289 155.769H18.7105C11.8313 155.769 6.23684 150.18 6.23684 143.308V18.6923C6.23684 11.8198 11.8313 6.23077 18.7105 6.23077H218.289ZM218.289 0H18.7105C8.37608 0 0 8.36792 0 18.6923V143.308C0 153.632 8.37608 162 18.7105 162H218.289C228.624 162 237 153.632 237 143.308V18.6923C237 8.36792 228.624 0 218.289 0Z" fill="#36404D"/>
<path d="M237 41H0V66H237V41Z" fill="#36404D"/>
<path d="M88 89H13V102H88V89Z" fill="white"/>
<path d="M173.865 143.152C171.465 143.152 169.289 142.544 167.337 141.328C165.385 140.144 163.929 138.576 162.969 136.624L165.129 134.992C166.025 136.56 167.241 137.824 168.777 138.784C170.345 139.744 172.057 140.224 173.913 140.224C175.513 140.224 176.937 139.872 178.185 139.168C179.465 138.464 180.473 137.488 181.209 136.24C181.977 134.992 182.361 133.552 182.361 131.92C182.361 130.352 181.993 128.976 181.257 127.792C180.553 126.576 179.577 125.632 178.329 124.96C177.113 124.288 175.737 123.952 174.201 123.952C172.729 123.952 171.321 124.288 169.977 124.96C168.633 125.6 167.545 126.544 166.713 127.792H163.689L167.481 108.592H183.945V111.616H169.929L167.577 123.856C168.409 122.96 169.433 122.272 170.649 121.792C171.865 121.28 173.177 121.024 174.585 121.024C176.665 121.024 178.537 121.488 180.201 122.416C181.897 123.344 183.241 124.624 184.233 126.256C185.225 127.888 185.721 129.76 185.721 131.872C185.721 134.144 185.177 136.112 184.089 137.776C183.033 139.472 181.609 140.784 179.817 141.712C178.025 142.672 176.041 143.152 173.865 143.152ZM196.565 115.216C195.221 115.216 194.005 114.912 192.917 114.304C191.861 113.696 190.997 112.864 190.325 111.808C189.685 110.752 189.365 109.6 189.365 108.352C189.365 107.072 189.685 105.92 190.325 104.896C190.997 103.84 191.861 103.008 192.917 102.4C194.005 101.76 195.221 101.44 196.565 101.44C197.877 101.44 199.077 101.76 200.165 102.4C201.253 103.008 202.117 103.84 202.757 104.896C203.397 105.92 203.717 107.072 203.717 108.352C203.717 109.6 203.397 110.752 202.757 111.808C202.117 112.864 201.253 113.696 200.165 114.304C199.077 114.912 197.877 115.216 196.565 115.216ZM190.517 134.704L203.957 118.384L216.965 101.728L218.645 103.168L205.301 119.488L192.197 136.192L190.517 134.704ZM196.565 113.344C197.877 113.344 198.981 112.848 199.877 111.856C200.805 110.832 201.269 109.664 201.269 108.352C201.269 106.944 200.789 105.76 199.829 104.8C198.901 103.84 197.813 103.36 196.565 103.36C195.221 103.36 194.085 103.856 193.157 104.848C192.261 105.84 191.813 107.008 191.813 108.352C191.813 109.728 192.277 110.912 193.205 111.904C194.133 112.864 195.253 113.344 196.565 113.344ZM212.645 136.48C211.333 136.48 210.133 136.176 209.045 135.568C207.957 134.928 207.093 134.096 206.453 133.072C205.813 132.016 205.493 130.848 205.493 129.568C205.493 128.32 205.813 127.168 206.453 126.112C207.093 125.056 207.957 124.224 209.045 123.616C210.133 123.008 211.333 122.704 212.645 122.704C213.989 122.704 215.189 123.008 216.245 123.616C217.333 124.224 218.197 125.056 218.837 126.112C219.509 127.168 219.845 128.32 219.845 129.568C219.845 130.848 219.509 132.016 218.837 133.072C218.197 134.096 217.333 134.928 216.245 135.568C215.189 136.176 213.989 136.48 212.645 136.48ZM212.645 134.56C213.957 134.56 215.061 134.064 215.957 133.072C216.885 132.08 217.349 130.912 217.349 129.568C217.349 128.192 216.869 127.024 215.909 126.064C214.981 125.072 213.893 124.576 212.645 124.576C211.333 124.576 210.213 125.088 209.285 126.112C208.389 127.104 207.941 128.256 207.941 129.568C207.941 130.976 208.405 132.16 209.333 133.12C210.261 134.08 211.365 134.56 212.645 134.56Z" fill="white"/>
</g>
<defs>
<linearGradient id="paint0_linear" x1="118.5" y1="3.11523" x2="118.5" y2="158.884" gradientUnits="userSpaceOnUse">
<stop stop-color="#CFCFCF"/>
<stop offset="1" stop-color="#565656"/>
</linearGradient>
<clipPath id="clip0">
<rect width="237" height="162" fill="white"/>
</clipPath>
</defs>
</svg>
