<svg width="33" height="33" viewBox="0 0 33 33" fill="none" xmlns="http://www.w3.org/2000/svg">
<path opacity="0.4" fill-rule="evenodd" clip-rule="evenodd" d="M6.44751 29.8892C6.44751 28.5177 7.56864 27.4074 8.95356 27.4074C10.322 27.4074 11.4431 28.5177 11.4431 29.8892C11.4431 31.2443 10.322 32.3546 8.95356 32.3546C7.56864 32.3546 6.44751 31.2443 6.44751 29.8892ZM24.9947 29.8892C24.9947 28.5177 26.1158 27.4074 27.5007 27.4074C28.8692 27.4074 29.9903 28.5177 29.9903 29.8892C29.9903 31.2443 28.8692 32.3546 27.5007 32.3546C26.1158 32.3546 24.9947 31.2443 24.9947 29.8892Z" fill="#346A2B"/>
<path fill-rule="evenodd" clip-rule="evenodd" d="M29.9914 6.6396C30.9971 6.6396 31.6566 6.98248 32.316 7.73354C32.9755 8.48461 33.0909 9.56222 32.9426 10.5402L31.3763 21.2511C31.0795 23.31 29.2989 24.8268 27.205 24.8268H9.21754C7.02475 24.8268 5.21116 23.1614 5.0298 21.0078L3.51299 3.2092L1.02343 2.78468C0.363941 2.67039 -0.0976993 2.03362 0.0177107 1.38052C0.133121 0.711093 0.77612 0.270251 1.45209 0.368216L5.38428 0.956005C5.94484 1.0556 6.35702 1.51114 6.40648 2.06627L6.71974 5.72363C6.7692 6.24774 7.19787 6.6396 7.72545 6.6396H29.9914ZM20.0007 15.1283H24.5677C25.2601 15.1283 25.8042 14.5732 25.8042 13.9037C25.8042 13.218 25.2601 12.6792 24.5677 12.6792H20.0007C19.3083 12.6792 18.7642 13.218 18.7642 13.9037C18.7642 14.5732 19.3083 15.1283 20.0007 15.1283Z" fill="#346A2B"/>
</svg>
