<svg width="43" height="40" viewBox="0 0 43 40" fill="none" xmlns="http://www.w3.org/2000/svg">
<path opacity="0.4" fill-rule="evenodd" clip-rule="evenodd" d="M6.44727 36.8892C6.44727 35.5177 7.56839 34.4074 8.95331 34.4074C10.3217 34.4074 11.4429 35.5177 11.4429 36.8892C11.4429 38.2444 10.3217 39.3546 8.95331 39.3546C7.56839 39.3546 6.44727 38.2444 6.44727 36.8892ZM24.9945 36.8892C24.9945 35.5177 26.1156 34.4074 27.5005 34.4074C28.8689 34.4074 29.9901 35.5177 29.9901 36.8892C29.9901 38.2444 28.8689 39.3546 27.5005 39.3546C26.1156 39.3546 24.9945 38.2444 24.9945 36.8892Z" fill="#346A2B"/>
<path fill-rule="evenodd" clip-rule="evenodd" d="M29.9914 13.6396C30.9971 13.6396 31.6566 13.9825 32.316 14.7335C32.9755 15.4846 33.0909 16.5622 32.9426 17.5402L31.3763 28.2511C31.0795 30.31 29.2989 31.8268 27.205 31.8268H9.21754C7.02475 31.8268 5.21116 30.1614 5.0298 28.0078L3.51299 10.2092L1.02343 9.78468C0.363941 9.67039 -0.0976993 9.03362 0.0177107 8.38052C0.133121 7.71109 0.77612 7.27025 1.45209 7.36822L5.38428 7.95601C5.94484 8.0556 6.35702 8.51114 6.40648 9.06627L6.71974 12.7236C6.7692 13.2477 7.19787 13.6396 7.72545 13.6396H29.9914ZM20.0007 22.1283H24.5677C25.2601 22.1283 25.8042 21.5732 25.8042 20.9037C25.8042 20.218 25.2601 19.6792 24.5677 19.6792H20.0007C19.3083 19.6792 18.7642 20.218 18.7642 20.9037C18.7642 21.5732 19.3083 22.1283 20.0007 22.1283Z" fill="#346A2B"/>
<path d="M33 0C27.4772 0 23 4.47715 23 10C23 15.5228 27.4772 20 33 20C38.5228 20 43 15.5228 43 10C43 7.34784 41.9464 4.8043 40.0711 2.92893C38.1957 1.05357 35.6522 0 33 0Z" fill="#FC0707"/>
</svg>
