<svg width="19" height="18" viewBox="0 0 19 18" fill="none" xmlns="http://www.w3.org/2000/svg">
<path fill-rule="evenodd" clip-rule="evenodd" d="M10.4185 8.42484H12.4944C12.8091 8.42484 13.0564 8.16461 13.0564 7.8508C13.0564 7.52934 12.8091 7.27676 12.4944 7.27676H10.4185C10.1038 7.27676 9.85645 7.52934 9.85645 7.8508C9.85645 8.16461 10.1038 8.42484 10.4185 8.42484ZM14.9601 4.44562C15.4172 4.44562 15.717 4.60635 16.0167 4.95843C16.3165 5.3105 16.369 5.81565 16.3015 6.27412L15.5896 11.295C15.4547 12.2602 14.6453 12.9712 13.6936 12.9712H5.51743C4.5207 12.9712 3.69635 12.1913 3.61391 11.181L2.92445 2.83755L1.79283 2.63855C1.49306 2.58498 1.28323 2.28648 1.33569 1.98032C1.38815 1.66728 1.68042 1.45987 1.98768 1.50655L3.77504 1.78133C4.02984 1.82801 4.21719 2.04156 4.23967 2.30179L4.38206 4.01624C4.40455 4.26193 4.59939 4.44562 4.83921 4.44562H14.9601ZM5.39741 14.1809C4.7679 14.1809 4.2583 14.7013 4.2583 15.3443C4.2583 15.9795 4.7679 16.5 5.39741 16.5C6.01943 16.5 6.52903 15.9795 6.52903 15.3443C6.52903 14.7013 6.01943 14.1809 5.39741 14.1809ZM13.8283 14.1809C13.1988 14.1809 12.6892 14.7013 12.6892 15.3443C12.6892 15.9795 13.1988 16.5 13.8283 16.5C14.4503 16.5 14.9599 15.9795 14.9599 15.3443C14.9599 14.7013 14.4503 14.1809 13.8283 14.1809Z" fill="white"/>
</svg>
