<svg width="302" height="302" viewBox="0 0 302 302" fill="none" xmlns="http://www.w3.org/2000/svg">
<rect width="302" height="302" rx="50" fill="#346A2B"/>
<path d="M23.1461 250.532C22.7861 250.532 22.4981 250.364 22.2821 250.028C22.0901 249.668 21.9941 249.236 21.9941 248.732C21.9941 247.94 22.0421 246.968 22.1381 245.816L22.2101 244.88L22.2821 242.972C22.2821 242.132 22.1981 240.26 22.0301 237.356C21.8621 234.452 21.7781 232.58 21.7781 231.74C21.7781 231.668 21.7781 231.536 21.7781 231.344C21.8021 231.128 21.8141 230.804 21.8141 230.372C21.8381 229.892 21.8501 229.304 21.8501 228.608C21.8501 226.856 21.7301 225.74 21.4901 225.26C21.3461 225.26 21.0341 225.296 20.5541 225.368L19.5461 225.44C19.2341 225.44 18.9581 225.356 18.7181 225.188C18.4781 224.996 18.3581 224.756 18.3581 224.468C18.3581 224.18 18.6461 223.928 19.2221 223.712C20.0621 223.424 21.4901 223.22 23.5061 223.1C24.3221 223.052 24.8141 223.028 24.9821 223.028C25.2701 223.028 25.5341 223.124 25.7741 223.316C26.0141 223.508 26.1341 223.748 26.1341 224.036C26.1341 224.324 26.0261 224.564 25.8101 224.756C25.6181 224.924 25.3661 225.008 25.0541 225.008L24.4061 224.972C24.2141 224.948 23.9981 224.936 23.7581 224.936H23.3981C23.5661 226.568 23.6501 228.044 23.6501 229.364L23.6141 231.668C23.5901 232.364 23.5781 233.144 23.5781 234.008C23.5781 235.16 23.6261 236.54 23.7221 238.148C23.8421 240.14 23.9021 241.52 23.9021 242.288C23.9021 243.2 23.9501 244.28 24.0461 245.528C24.1421 246.8 24.1901 247.88 24.1901 248.768C24.1901 249.944 23.8421 250.532 23.1461 250.532ZM34.116 250.964C33.492 250.964 32.916 250.76 32.388 250.352C31.86 249.968 31.428 249.44 31.092 248.768C30.396 247.304 29.964 245.708 29.796 243.98C29.58 242.348 29.472 240.776 29.472 239.264C29.472 238.976 29.484 238.736 29.508 238.544V237.896C29.508 237.776 29.496 237.716 29.472 237.716V237.068L29.508 234.548C29.532 233.78 29.628 232.556 29.796 230.876C29.916 229.724 30.192 228.608 30.624 227.528C30.792 227.048 31.008 226.688 31.272 226.448C31.536 226.184 31.836 226.052 32.172 226.052C33.132 226.052 33.996 226.232 34.764 226.592C35.532 226.928 36.18 227.408 36.708 228.032C37.188 228.632 37.596 229.376 37.932 230.264C38.268 231.128 38.508 232.052 38.652 233.036C38.796 234.044 38.868 235.112 38.868 236.24V236.528C38.868 237.272 38.88 237.944 38.904 238.544L38.94 240.596C38.94 247.508 37.332 250.964 34.116 250.964ZM33.972 249.452C34.404 249.452 34.8 249.284 35.16 248.948C35.52 248.588 35.796 248.108 35.988 247.508C36.444 246.284 36.72 244.964 36.816 243.548C36.936 242.324 36.996 241.268 36.996 240.38C36.996 239.3 36.912 237.884 36.744 236.132C36.6 234.284 36.528 232.904 36.528 231.992V231.344C36.48 230.432 36.168 229.64 35.592 228.968C35.04 228.296 34.356 227.96 33.54 227.96C32.724 227.96 32.184 228.428 31.92 229.364C31.68 230.108 31.56 231.068 31.56 232.244C31.56 232.7 31.572 233.084 31.596 233.396V234.368L31.524 236.024C31.476 236.528 31.452 237.08 31.452 237.68C31.452 238.976 31.488 240.26 31.56 241.532C31.656 243.332 31.896 245.084 32.28 246.788C32.664 248.564 33.228 249.452 33.972 249.452ZM41.1833 251.072C40.9913 251.072 40.8233 251.012 40.6793 250.892C40.5353 250.772 40.4273 250.616 40.3553 250.424C40.3313 250.376 40.3193 250.304 40.3193 250.208C40.3193 249.896 40.4873 249.644 40.8233 249.452C41.4953 249.164 41.9993 248.732 42.3353 248.156C42.6953 247.556 42.9473 246.86 43.0913 246.068C43.5233 243.716 43.7393 241.16 43.7393 238.4C43.7393 237.368 43.7273 236.588 43.7033 236.06C43.5353 232.004 43.3913 229.148 43.2713 227.492V227.348C43.2713 227.132 43.3193 226.964 43.4153 226.844C43.5113 226.724 43.6793 226.64 43.9193 226.592C45.4553 226.304 46.6793 226.16 47.5913 226.16C48.0713 226.16 48.4313 226.172 48.6713 226.196C49.2233 226.22 49.6433 226.388 49.9313 226.7C50.2193 227.012 50.3633 227.444 50.3633 227.996L50.3993 229.904C50.4473 231.584 50.4713 232.844 50.4713 233.684L50.4353 235.412C50.4353 237.956 50.5313 241.172 50.7233 245.06C50.8193 246.812 50.9033 248.168 50.9753 249.128C50.9993 249.56 50.9273 249.872 50.7593 250.064C50.6153 250.256 50.3633 250.376 50.0033 250.424C49.2113 250.472 48.7913 250.1 48.7433 249.308C48.8153 248.612 48.8513 247.916 48.8513 247.22C48.8513 246.524 48.8393 245.948 48.8153 245.492L48.7793 241.388C48.7793 239.396 48.7433 237.356 48.6713 235.268C48.6233 233.54 48.5513 231.908 48.4553 230.372C48.3593 228.836 48.2633 227.9 48.1673 227.564C48.0233 227.588 47.7233 227.648 47.2673 227.744C46.8113 227.84 46.1873 227.924 45.3953 227.996C45.3233 229.1 45.2873 229.892 45.2873 230.372C45.2873 230.924 45.3233 231.404 45.3953 231.812C45.4433 232.46 45.4913 233.408 45.5393 234.656V235.448C45.5393 239.336 45.5033 241.964 45.4313 243.332C45.3833 243.716 45.3593 244.016 45.3593 244.232C45.2633 245.24 45.1673 246.008 45.0713 246.536C44.8313 247.808 44.0993 249.104 42.8753 250.424C42.5393 250.808 41.9993 251.024 41.2553 251.072H41.1833ZM56.2889 250.136C55.8089 250.112 55.5329 249.86 55.4609 249.38L55.5689 240.38V237.608V232.28C55.5689 229.928 55.5809 228.164 55.6049 226.988C55.6049 226.844 55.6769 226.712 55.8209 226.592C55.9889 226.472 56.1929 226.412 56.4329 226.412C56.6249 226.412 56.8169 226.472 57.0089 226.592C57.2009 226.712 57.3449 226.868 57.4409 227.06C57.6569 227.444 57.7649 228.008 57.7649 228.752C57.7649 229.28 57.6809 230.108 57.5129 231.236C57.4409 231.74 57.3929 232.292 57.3689 232.892C57.3449 233.492 57.3329 233.888 57.3329 234.08C57.2849 234.416 57.2249 234.956 57.1529 235.7C57.1049 236.444 57.1049 236.804 57.1529 236.78C57.5129 236.732 57.9569 236.816 58.4849 237.032C58.8929 237.176 59.1329 237.248 59.2049 237.248C60.2609 237.44 61.0649 238.076 61.6169 239.156C62.1929 240.212 62.5289 241.304 62.6249 242.432C62.6489 242.696 62.6609 243.08 62.6609 243.584C62.6609 244.784 62.5529 245.816 62.3369 246.68C62.0969 248.36 61.0889 249.512 59.3129 250.136C59.0249 250.232 58.6529 250.28 58.1969 250.28C57.8609 250.28 57.4889 250.268 57.0809 250.244C56.6969 250.196 56.4329 250.16 56.2889 250.136ZM57.4769 248.696C57.7409 248.768 57.9809 248.804 58.1969 248.804C58.6769 248.804 59.0849 248.672 59.4209 248.408C59.7569 248.12 59.9729 247.748 60.0689 247.292C60.1889 246.74 60.3209 245.912 60.4649 244.808C60.5129 244.28 60.5609 243.86 60.6089 243.548C60.6329 243.404 60.6449 243.188 60.6449 242.9C60.6449 241.892 60.4529 240.968 60.0689 240.128C59.6849 239.264 59.1329 238.784 58.4129 238.688C57.9089 238.592 57.5369 238.532 57.2969 238.508L57.4769 248.696ZM67.5206 250.352C67.4246 250.328 67.2686 250.304 67.0526 250.28C66.8366 250.256 66.6566 250.196 66.5126 250.1C66.1526 249.86 66.0086 249.452 66.0806 248.876L66.1166 248.084C66.2126 246.788 66.2606 245.816 66.2606 245.168C66.2606 241.4 66.2246 237.608 66.1526 233.792C66.1526 231.824 66.0926 229.736 65.9726 227.528C65.9486 227.144 66.0326 226.82 66.2246 226.556C66.4406 226.292 66.7046 226.16 67.0166 226.16C67.3046 226.16 67.5926 226.292 67.8806 226.556C68.1926 226.82 68.3366 227.132 68.3126 227.492C68.1446 228.212 68.0606 229.652 68.0606 231.812V234.692C68.0606 235.22 68.0846 236.06 68.1326 237.212C68.2046 237.116 68.4326 236.672 68.8166 235.88C68.8646 235.784 68.9486 235.64 69.0686 235.448C69.1886 235.232 69.2726 235.016 69.3206 234.8C70.1126 232.4 70.7606 230.552 71.2646 229.256C71.4806 228.56 71.7686 227.972 72.1286 227.492C72.4886 226.988 72.9806 226.64 73.6046 226.448C73.8206 226.376 74.1086 226.4 74.4686 226.52C74.8526 226.64 75.1046 226.784 75.2246 226.952C75.3686 227.12 75.4406 227.324 75.4406 227.564C75.4406 227.804 75.3566 228.02 75.1886 228.212C75.0446 228.404 74.8526 228.524 74.6126 228.572C74.0126 228.668 73.5446 228.884 73.2086 229.22C72.8726 229.556 72.6206 229.916 72.4526 230.3C72.3086 230.66 72.1286 231.212 71.9126 231.956L70.4726 235.484C70.4006 235.652 70.2926 235.94 70.1486 236.348C70.0286 236.756 69.9086 237.068 69.7886 237.284C69.7406 237.356 69.6686 237.428 69.5726 237.5C69.4766 237.572 69.3926 237.644 69.3206 237.716C69.4886 237.596 69.7046 237.632 69.9686 237.824C70.2566 238.016 70.5446 238.28 70.8326 238.616C71.0246 239 71.1566 239.42 71.2286 239.876C71.3246 240.332 71.3846 240.596 71.4086 240.668C71.4566 241.052 71.5046 241.34 71.5526 241.532C71.8406 242.3 72.0446 243.008 72.1646 243.656C72.2846 244.28 72.3686 245.024 72.4166 245.888C72.4886 246.752 72.7286 247.508 73.1366 248.156C73.2566 248.18 73.3886 248.204 73.5326 248.228C73.7006 248.252 73.8806 248.276 74.0726 248.3C74.4566 248.324 74.7086 248.564 74.8286 249.02C74.8526 249.068 74.8646 249.152 74.8646 249.272C74.8646 249.536 74.7446 249.788 74.5046 250.028C74.1446 250.388 73.6886 250.568 73.1366 250.568C72.7286 250.568 72.3326 250.46 71.9486 250.244C71.5886 250.028 71.3246 249.74 71.1566 249.38C71.0126 249.14 70.8926 248.816 70.7966 248.408C70.6286 247.376 70.4846 246.332 70.3646 245.276C70.2686 243.812 70.1606 242.708 70.0406 241.964C69.9446 241.196 69.7166 240.464 69.3566 239.768C69.2606 239.6 69.1646 239.48 69.0686 239.408C68.9726 239.312 68.8406 239.264 68.6726 239.264C68.5286 239.264 68.3486 239.3 68.1326 239.372C68.0846 241.1 68.0606 242.78 68.0606 244.412C68.0606 245.444 68.1086 247.016 68.2046 249.128C68.2286 249.392 68.1806 249.608 68.0606 249.776C67.9646 249.92 67.7846 250.112 67.5206 250.352ZM82.034 250.964C81.41 250.964 80.834 250.76 80.306 250.352C79.778 249.968 79.346 249.44 79.01 248.768C78.314 247.304 77.882 245.708 77.714 243.98C77.498 242.348 77.39 240.776 77.39 239.264C77.39 238.976 77.402 238.736 77.426 238.544V237.896C77.426 237.776 77.414 237.716 77.39 237.716V237.068L77.426 234.548C77.45 233.78 77.546 232.556 77.714 230.876C77.834 229.724 78.11 228.608 78.542 227.528C78.71 227.048 78.926 226.688 79.19 226.448C79.454 226.184 79.754 226.052 80.09 226.052C81.05 226.052 81.914 226.232 82.682 226.592C83.45 226.928 84.098 227.408 84.626 228.032C85.106 228.632 85.514 229.376 85.85 230.264C86.186 231.128 86.426 232.052 86.57 233.036C86.714 234.044 86.786 235.112 86.786 236.24V236.528C86.786 237.272 86.798 237.944 86.822 238.544L86.858 240.596C86.858 247.508 85.25 250.964 82.034 250.964ZM81.89 249.452C82.322 249.452 82.718 249.284 83.078 248.948C83.438 248.588 83.714 248.108 83.906 247.508C84.362 246.284 84.638 244.964 84.734 243.548C84.854 242.324 84.914 241.268 84.914 240.38C84.914 239.3 84.83 237.884 84.662 236.132C84.518 234.284 84.446 232.904 84.446 231.992V231.344C84.398 230.432 84.086 229.64 83.51 228.968C82.958 228.296 82.274 227.96 81.458 227.96C80.642 227.96 80.102 228.428 79.838 229.364C79.598 230.108 79.478 231.068 79.478 232.244C79.478 232.7 79.49 233.084 79.514 233.396V234.368L79.442 236.024C79.394 236.528 79.37 237.08 79.37 237.68C79.37 238.976 79.406 240.26 79.478 241.532C79.574 243.332 79.814 245.084 80.198 246.788C80.582 248.564 81.146 249.452 81.89 249.452ZM108.767 250.784C108.239 250.784 107.675 250.7 107.075 250.532C106.499 250.388 106.055 250.22 105.743 250.028C104.135 248.996 103.331 246.176 103.331 241.568V240.596V239.48V238.616C103.331 237.656 103.343 236.804 103.367 236.06C103.391 235.292 103.439 234.464 103.511 233.576C103.583 232.64 103.691 231.884 103.835 231.308C103.979 230.708 104.219 230.036 104.555 229.292C104.843 228.596 105.191 228.056 105.599 227.672C106.031 227.288 106.583 226.964 107.255 226.7C107.855 226.436 108.599 226.304 109.487 226.304C109.847 226.304 110.123 226.388 110.315 226.556C110.507 226.724 110.603 226.94 110.603 227.204C110.603 227.444 110.519 227.66 110.351 227.852C110.207 228.044 110.027 228.152 109.811 228.176H108.119C107.639 228.176 107.219 228.476 106.859 229.076C106.499 229.676 106.247 230.456 106.103 231.416C105.791 233.192 105.635 234.632 105.635 235.736V235.916L105.563 239.372C105.515 240.404 105.491 241.568 105.491 242.864C105.491 243.776 105.527 244.52 105.599 245.096C105.719 245.96 105.923 246.68 106.211 247.256C106.499 247.904 106.991 248.372 107.687 248.66C108.047 248.804 108.443 248.876 108.875 248.876C109.139 248.876 109.403 248.78 109.667 248.588C109.979 248.588 110.231 248.66 110.423 248.804C110.639 248.924 110.747 249.116 110.747 249.38C110.747 250.316 110.087 250.784 108.767 250.784ZM115.042 250.64C114.514 250.64 114.19 250.412 114.07 249.956C113.974 249.668 113.926 249.26 113.926 248.732C113.926 247.7 113.974 246.428 114.07 244.916C114.19 243.476 114.25 242.192 114.25 241.064C114.25 239.792 114.286 237.884 114.358 235.34L114.43 229.652C114.43 229.436 114.394 229.112 114.322 228.68L114.214 227.78V227.6C114.214 227.048 114.298 226.64 114.466 226.376C114.634 226.112 114.946 225.98 115.402 225.98C116.026 225.98 116.71 226.16 117.454 226.52C118.198 226.88 118.738 227.336 119.074 227.888C119.77 229.04 120.118 230.48 120.118 232.208C120.118 233.504 120.01 234.596 119.794 235.484C119.578 236.348 119.206 237.152 118.678 237.896C119.326 238.52 119.758 239.324 119.974 240.308C120.214 241.268 120.334 242.48 120.334 243.944C120.334 245.408 120.082 246.68 119.578 247.76C119.002 248.984 118.162 249.824 117.058 250.28C116.386 250.52 115.714 250.64 115.042 250.64ZM116.194 236.852C117.442 236.828 118.066 235.376 118.066 232.496C118.066 229.4 117.574 227.78 116.59 227.636C116.326 228.188 116.194 229.484 116.194 231.524V236.852ZM115.978 248.804C116.746 248.636 117.346 248.18 117.778 247.436C118.21 246.692 118.426 245.84 118.426 244.88C118.426 243.872 118.366 242.984 118.246 242.216C118.15 241.616 118.018 241.124 117.85 240.74C117.706 240.332 117.502 239.96 117.238 239.624C116.95 239.264 116.614 239.048 116.23 238.976C116.134 240.344 116.086 242.156 116.086 244.412C116.086 244.556 116.062 245.012 116.014 245.78L115.942 247.004C115.942 247.052 115.954 247.088 115.978 247.112V247.184V248.804ZM125.919 250.748C125.607 250.748 125.319 250.64 125.055 250.424C124.815 250.208 124.683 249.944 124.659 249.632V248.696V247.976C124.635 247.76 124.623 247.508 124.623 247.22C124.623 246.716 124.587 245.948 124.515 244.916L124.443 242.612C124.443 241.436 124.479 239.684 124.551 237.356C124.647 235.268 124.695 233.516 124.695 232.1C124.695 231.764 124.659 231.26 124.587 230.588C124.515 229.892 124.479 229.388 124.479 229.076C124.479 227.372 124.983 226.52 125.991 226.52C126.783 226.52 127.695 226.676 128.727 226.988C129.783 227.3 130.311 227.672 130.311 228.104C130.311 228.344 130.203 228.572 129.987 228.788C129.795 228.98 129.555 229.136 129.267 229.256C128.259 228.896 127.347 228.656 126.531 228.536C126.555 228.896 126.567 229.412 126.567 230.084C126.567 231.044 126.555 231.908 126.531 232.676C126.459 233.828 126.423 234.692 126.423 235.268L126.531 235.844L127.107 235.808C127.299 235.784 127.539 235.772 127.827 235.772C128.979 235.772 129.555 236.108 129.555 236.78C129.555 237.044 129.447 237.272 129.231 237.464C129.015 237.632 128.739 237.716 128.403 237.716C127.971 237.716 127.635 237.692 127.395 237.644H126.495C126.543 238.268 126.567 239.18 126.567 240.38C126.567 241.58 126.555 242.66 126.531 243.62C126.459 245.084 126.423 246.176 126.423 246.896C126.423 248.24 126.447 248.912 126.495 248.912L127.683 248.876C128.091 248.852 128.583 248.84 129.159 248.84C130.071 248.84 130.527 249.128 130.527 249.704C130.527 250.04 130.371 250.292 130.059 250.46C129.771 250.652 129.411 250.748 128.979 250.748H125.919ZM135.322 250.82C134.338 250.82 133.69 250.34 133.378 249.38C133.258 249.068 133.198 248.696 133.198 248.264C133.198 247.928 133.234 247.544 133.306 247.112C133.378 246.68 133.426 246.392 133.45 246.248C133.474 246.056 133.558 245.9 133.702 245.78C133.87 245.66 134.062 245.588 134.278 245.564C134.494 245.564 134.698 245.636 134.89 245.78C135.082 245.924 135.214 246.092 135.286 246.284C135.334 246.524 135.358 247.148 135.358 248.156C135.478 248.228 135.598 248.252 135.718 248.228C135.79 248.036 135.874 247.808 135.97 247.544C136.09 247.256 136.174 247.016 136.222 246.824C136.702 244.616 137.038 242.948 137.23 241.82C137.374 241.076 137.59 240.428 137.878 239.876C138.19 239.324 138.646 238.832 139.246 238.4C138.838 237.872 138.526 237.152 138.31 236.24C138.094 235.304 137.986 234.38 137.986 233.468V231.632C137.986 230.792 137.974 230.168 137.95 229.76C137.95 229.472 137.854 229.1 137.662 228.644C137.494 228.188 137.326 227.96 137.158 227.96C136.942 228.008 136.738 228.14 136.546 228.356C136.426 228.644 136.354 229.004 136.33 229.436C136.306 229.844 136.294 230.096 136.294 230.192C136.222 230.864 135.862 231.164 135.214 231.092C134.974 231.068 134.758 230.948 134.566 230.732C134.374 230.492 134.278 230.228 134.278 229.94C134.278 229.436 134.434 228.908 134.746 228.356C135.058 227.804 135.43 227.348 135.862 226.988C136.318 226.628 136.75 226.448 137.158 226.448C137.47 226.448 137.794 226.556 138.13 226.772C138.49 226.964 138.79 227.216 139.03 227.528C139.486 228.176 139.714 229.208 139.714 230.624C139.714 231.032 139.69 231.644 139.642 232.46L139.606 233.18C139.606 234.044 139.666 234.932 139.786 235.844C139.93 236.732 140.158 237.416 140.47 237.896C140.494 237.92 140.554 237.932 140.65 237.932C140.77 237.932 140.866 237.944 140.938 237.968V237.788C140.938 235.916 140.914 233.54 140.866 230.66C140.866 230.372 140.89 229.94 140.938 229.364L140.974 228.14C140.974 227.78 140.962 227.504 140.938 227.312C140.914 227.24 140.902 227.144 140.902 227.024C140.902 226.472 141.202 226.136 141.802 226.016C141.994 225.968 142.222 226.052 142.486 226.268C142.774 226.46 142.966 226.7 143.062 226.988C143.134 227.204 143.17 227.444 143.17 227.708C143.17 227.876 143.158 227.996 143.134 228.068C142.798 229.7 142.63 231.236 142.63 232.676V238.148C142.966 238.268 143.254 238.352 143.494 238.4C144.022 238.472 144.334 238.136 144.43 237.392C144.502 237.08 144.586 236.48 144.682 235.592C144.706 235.448 144.718 235.316 144.718 235.196C144.718 235.076 144.73 234.956 144.754 234.836L144.934 233.324C145.006 232.484 145.114 231.656 145.258 230.84C145.546 229.376 146.134 228.176 147.022 227.24C147.382 226.88 147.814 226.7 148.318 226.7C148.702 226.7 149.062 226.808 149.398 227.024C149.758 227.216 150.022 227.492 150.19 227.852C150.406 228.332 150.55 228.824 150.622 229.328C150.718 229.808 150.79 230.432 150.838 231.2C150.862 231.488 150.79 231.692 150.622 231.812C150.454 231.908 150.178 232.028 149.794 232.172C149.458 232.076 149.194 231.896 149.002 231.632C148.834 231.368 148.774 231.032 148.822 230.624C148.894 229.952 148.69 229.316 148.21 228.716C147.826 229.052 147.538 229.424 147.346 229.832C147.154 230.216 147.01 230.732 146.914 231.38C146.818 232.028 146.734 232.472 146.662 232.712C146.47 233.624 146.374 234.32 146.374 234.8C146.374 235.28 146.302 235.88 146.158 236.6C146.014 237.32 145.846 237.908 145.654 238.364C145.582 238.508 145.546 238.64 145.546 238.76C145.546 238.976 145.642 239.18 145.834 239.372C146.17 239.732 146.422 240.32 146.59 241.136C146.662 241.52 146.698 242 146.698 242.576L146.662 243.98C146.614 244.7 146.59 245.24 146.59 245.6C146.59 246.032 146.674 246.44 146.842 246.824C147.034 247.184 147.31 247.628 147.67 248.156C147.766 248.3 147.91 248.372 148.102 248.372C148.366 248.372 148.594 248.24 148.786 247.976C149.05 247.376 149.218 246.872 149.29 246.464C149.362 246.056 149.41 245.792 149.434 245.672C149.506 245.072 149.794 244.772 150.298 244.772C150.466 244.772 150.598 244.784 150.694 244.808L151.162 244.988C151.258 245.348 151.306 245.744 151.306 246.176C151.306 247.256 150.91 248.372 150.118 249.524C149.926 249.812 149.65 250.04 149.29 250.208C148.954 250.376 148.57 250.46 148.138 250.46C147.682 250.46 147.286 250.364 146.95 250.172C146.614 249.956 146.35 249.68 146.158 249.344C145.846 248.72 145.606 248.144 145.438 247.616C145.27 247.088 145.186 246.536 145.186 245.96C145.186 245.24 145.162 244.448 145.114 243.584C145.066 242.72 145.03 242.12 145.006 241.784L144.934 240.812C144.934 240.428 144.79 240.164 144.502 240.02C144.238 239.852 143.914 239.732 143.53 239.66C143.146 239.564 142.846 239.492 142.63 239.444C142.582 240.26 142.558 240.86 142.558 241.244C142.558 241.7 142.534 242.36 142.486 243.224C142.438 244.52 142.426 245.48 142.45 246.104C142.474 246.416 142.522 246.764 142.594 247.148C142.666 247.532 142.714 247.796 142.738 247.94C142.834 248.276 142.894 248.528 142.918 248.696C142.966 248.888 142.99 249.044 142.99 249.164C142.99 249.5 142.894 249.776 142.702 249.992C142.51 250.184 142.222 250.292 141.838 250.316C141.526 250.34 141.322 250.28 141.226 250.136C141.13 249.968 141.07 249.704 141.046 249.344L141.082 247.652C141.082 246.932 141.058 245.828 141.01 244.34C140.962 243.38 140.938 242.648 140.938 242.144V239.228C140.674 239.204 140.458 239.264 140.29 239.408C140.146 239.552 140.002 239.744 139.858 239.984C139.498 240.536 139.234 241.124 139.066 241.748C138.898 242.372 138.73 243.176 138.562 244.16L138.418 244.988C138.13 246.716 137.722 248.204 137.194 249.452C137.026 249.884 136.774 250.22 136.438 250.46C136.102 250.7 135.73 250.82 135.322 250.82ZM155.544 250.208C155.232 250.112 155.064 249.908 155.04 249.596V249.056C154.992 248.048 154.944 246.536 154.896 244.52C154.8 242.768 154.74 241.424 154.716 240.488C154.644 239.024 154.56 236.828 154.464 233.9C154.44 233.396 154.416 232.7 154.392 231.812C154.368 230.924 154.356 230.252 154.356 229.796C154.332 229.532 154.32 229.16 154.32 228.68C154.32 228.128 154.344 227.72 154.392 227.456C154.488 226.712 154.896 226.364 155.616 226.412C156.288 226.412 156.648 226.796 156.696 227.564V227.996L156.66 237.068V241.352V243.512C156.66 243.848 156.684 244.244 156.732 244.7C156.78 245.132 156.816 245.444 156.84 245.636C156.96 244.94 157.152 244.232 157.416 243.512C157.704 242.768 157.884 242.312 157.956 242.144C158.316 241.28 158.58 240.572 158.748 240.02C159.324 238.172 160.068 235.904 160.98 233.216C161.172 232.664 161.388 231.992 161.628 231.2C162.276 229.16 162.72 227.84 162.96 227.24C163.176 226.664 163.5 226.304 163.932 226.16C164.148 226.088 164.364 226.052 164.58 226.052C164.916 226.052 165.264 226.16 165.624 226.376V228.104C165.624 229.904 165.66 231.764 165.732 233.684C165.756 234.092 165.768 234.704 165.768 235.52V236.564C165.768 236.78 165.756 237.068 165.732 237.428C165.732 237.788 165.744 238.208 165.768 238.688L165.876 248.408C165.876 248.768 165.792 249.164 165.624 249.596C165.552 249.788 165.432 249.944 165.264 250.064C165.096 250.16 164.916 250.208 164.724 250.208C164.052 250.208 163.716 249.896 163.716 249.272C163.716 248.552 163.752 247.856 163.824 247.184C163.872 246.272 163.896 245.576 163.896 245.096C163.848 240.344 163.788 236.792 163.716 234.44C163.716 234.08 163.668 233.492 163.572 232.676L163.464 231.38C163.248 231.62 163.128 231.776 163.104 231.848L162.528 233.612C162.144 234.86 161.844 235.784 161.628 236.384L158.496 245.096L156.876 249.524C156.684 250.028 156.396 250.28 156.012 250.28C155.94 250.28 155.784 250.256 155.544 250.208ZM171.869 250.748C171.557 250.748 171.269 250.64 171.005 250.424C170.765 250.208 170.633 249.944 170.609 249.632V248.696V247.976C170.585 247.76 170.573 247.508 170.573 247.22C170.573 246.716 170.537 245.948 170.465 244.916L170.393 242.612C170.393 241.436 170.429 239.684 170.501 237.356C170.597 235.268 170.645 233.516 170.645 232.1C170.645 231.764 170.609 231.26 170.537 230.588C170.465 229.892 170.429 229.388 170.429 229.076C170.429 227.372 170.933 226.52 171.941 226.52C172.733 226.52 173.645 226.676 174.677 226.988C175.733 227.3 176.261 227.672 176.261 228.104C176.261 228.344 176.153 228.572 175.937 228.788C175.745 228.98 175.505 229.136 175.217 229.256C174.209 228.896 173.297 228.656 172.481 228.536C172.505 228.896 172.517 229.412 172.517 230.084C172.517 231.044 172.505 231.908 172.481 232.676C172.409 233.828 172.373 234.692 172.373 235.268L172.481 235.844L173.057 235.808C173.249 235.784 173.489 235.772 173.777 235.772C174.929 235.772 175.505 236.108 175.505 236.78C175.505 237.044 175.397 237.272 175.181 237.464C174.965 237.632 174.689 237.716 174.353 237.716C173.921 237.716 173.585 237.692 173.345 237.644H172.445C172.493 238.268 172.517 239.18 172.517 240.38C172.517 241.58 172.505 242.66 172.481 243.62C172.409 245.084 172.373 246.176 172.373 246.896C172.373 248.24 172.397 248.912 172.445 248.912L173.633 248.876C174.041 248.852 174.533 248.84 175.109 248.84C176.021 248.84 176.477 249.128 176.477 249.704C176.477 250.04 176.321 250.292 176.009 250.46C175.721 250.652 175.361 250.748 174.929 250.748H171.869ZM194.001 250.244C193.689 250.292 193.425 250.22 193.209 250.028C192.993 249.812 192.885 249.524 192.885 249.164C192.813 248.012 192.777 246.872 192.777 245.744C192.777 244.208 192.813 242.684 192.885 241.172C192.933 239.636 192.957 238.508 192.957 237.788C192.693 236.084 192.537 233.336 192.489 229.544C192.489 228.656 192.477 227.936 192.453 227.384C191.229 227.384 190.341 227.36 189.789 227.312H189.573C189.213 227.312 189.021 227.504 188.997 227.888L188.961 230.48C188.961 231.728 188.997 232.484 189.069 232.748C189.117 233.036 189.141 233.228 189.141 233.324C189.141 233.516 189.117 233.804 189.069 234.188C189.021 234.572 188.997 234.86 188.997 235.052C188.997 235.412 189.057 235.724 189.177 235.988C189.273 236.204 189.309 236.504 189.285 236.888C189.285 237.272 189.285 237.56 189.285 237.752C189.309 238.496 189.297 239.588 189.249 241.028C189.201 242.18 189.177 243.032 189.177 243.584C189.177 244.28 189.201 245.072 189.249 245.96C189.297 246.824 189.333 247.436 189.357 247.796L189.429 248.804C189.453 249.188 189.369 249.5 189.177 249.74C189.009 249.956 188.757 250.064 188.421 250.064C188.301 250.064 188.145 250.04 187.953 249.992C187.737 249.92 187.593 249.8 187.521 249.632C187.449 249.464 187.401 249.248 187.377 248.984L187.269 245.96L187.305 241.604C187.257 239.012 187.233 237.08 187.233 235.808L187.197 232.892C187.173 231.524 187.113 230.072 187.017 228.536L186.945 227.06V226.844C186.945 226.604 186.993 226.436 187.089 226.34C187.185 226.22 187.365 226.124 187.629 226.052C188.109 225.932 188.541 225.872 188.925 225.872C189.141 225.872 189.297 225.884 189.393 225.908C189.585 225.908 189.873 225.932 190.257 225.98C190.785 226.028 191.205 226.052 191.517 226.052C191.973 226.052 192.393 226.004 192.777 225.908C193.041 225.836 193.377 225.896 193.785 226.088C194.193 226.256 194.421 226.508 194.469 226.844C194.517 227.18 194.541 227.444 194.541 227.636C194.541 227.828 194.529 227.972 194.505 228.068C194.409 228.356 194.361 228.704 194.361 229.112C194.361 229.328 194.373 229.568 194.397 229.832C194.421 230.096 194.433 230.372 194.433 230.66C194.433 230.9 194.421 231.092 194.397 231.236C194.373 231.452 194.361 231.8 194.361 232.28C194.361 233.072 194.433 234.188 194.577 235.628L194.685 236.6C194.709 236.816 194.721 237.14 194.721 237.572C194.721 238.076 194.709 238.448 194.685 238.688C194.685 238.88 194.673 239.12 194.649 239.408C194.649 239.672 194.661 239.996 194.685 240.38C194.661 240.932 194.673 241.76 194.721 242.864L194.757 243.656L194.973 249.308C194.973 249.572 194.901 249.788 194.757 249.956C194.637 250.1 194.385 250.196 194.001 250.244ZM200.079 250.532C199.767 249.26 199.611 247.496 199.611 245.24L199.683 242.036C199.731 241.076 199.755 240.008 199.755 238.832C199.611 238.496 199.539 238.196 199.539 237.932V237.824C199.779 237.368 199.899 236.336 199.899 234.728L199.935 233.072C199.959 232.544 199.971 231.956 199.971 231.308C199.971 229.892 199.875 228.776 199.683 227.96C199.755 227.624 199.875 227.336 200.043 227.096C200.211 226.832 200.415 226.7 200.655 226.7H202.239C202.911 226.7 203.499 226.856 204.003 227.168C204.507 227.456 204.891 227.876 205.155 228.428C205.635 229.412 205.875 230.576 205.875 231.92C205.875 232.88 205.863 233.636 205.839 234.188C205.791 234.884 205.671 235.52 205.479 236.096C205.407 236.408 205.299 236.672 205.155 236.888C205.035 237.08 204.855 237.32 204.615 237.608C204.279 238.016 203.727 238.4 202.959 238.76C202.647 238.928 202.239 239.084 201.735 239.228V243.08L201.807 245.384L201.879 246.5C201.975 247.844 202.023 248.984 202.023 249.92C202.023 250.208 201.903 250.448 201.663 250.64C201.423 250.856 201.147 250.964 200.835 250.964L200.079 250.532ZM201.771 237.752C203.187 237.536 203.895 235.508 203.895 231.668C203.895 230.972 203.859 230.432 203.787 230.048C203.715 229.76 203.619 229.532 203.499 229.364C203.379 229.172 203.199 229.016 202.959 228.896C202.695 228.752 202.407 228.68 202.095 228.68C202.095 228.656 201.963 228.644 201.699 228.644V230.696C201.699 232.112 201.711 233.372 201.735 234.476C201.735 235.724 201.747 236.54 201.771 236.924V237.68V237.752ZM213.624 250.964C213 250.964 212.424 250.76 211.896 250.352C211.368 249.968 210.936 249.44 210.6 248.768C209.904 247.304 209.472 245.708 209.304 243.98C209.088 242.348 208.98 240.776 208.98 239.264C208.98 238.976 208.992 238.736 209.016 238.544V237.896C209.016 237.776 209.004 237.716 208.98 237.716V237.068L209.016 234.548C209.04 233.78 209.136 232.556 209.304 230.876C209.424 229.724 209.7 228.608 210.132 227.528C210.3 227.048 210.516 226.688 210.78 226.448C211.044 226.184 211.344 226.052 211.68 226.052C212.64 226.052 213.504 226.232 214.272 226.592C215.04 226.928 215.688 227.408 216.216 228.032C216.696 228.632 217.104 229.376 217.44 230.264C217.776 231.128 218.016 232.052 218.16 233.036C218.304 234.044 218.376 235.112 218.376 236.24V236.528C218.376 237.272 218.388 237.944 218.412 238.544L218.448 240.596C218.448 247.508 216.84 250.964 213.624 250.964ZM213.48 249.452C213.912 249.452 214.308 249.284 214.668 248.948C215.028 248.588 215.304 248.108 215.496 247.508C215.952 246.284 216.228 244.964 216.324 243.548C216.444 242.324 216.504 241.268 216.504 240.38C216.504 239.3 216.42 237.884 216.252 236.132C216.108 234.284 216.036 232.904 216.036 231.992V231.344C215.988 230.432 215.676 229.64 215.1 228.968C214.548 228.296 213.864 227.96 213.048 227.96C212.232 227.96 211.692 228.428 211.428 229.364C211.188 230.108 211.068 231.068 211.068 232.244C211.068 232.7 211.08 233.084 211.104 233.396V234.368L211.032 236.024C210.984 236.528 210.96 237.08 210.96 237.68C210.96 238.976 210.996 240.26 211.068 241.532C211.164 243.332 211.404 245.084 211.788 246.788C212.172 248.564 212.736 249.452 213.48 249.452ZM234.939 254.708C234.747 254.756 234.603 254.78 234.507 254.78C234.219 254.78 234.015 254.6 233.895 254.24C233.799 253.952 233.751 253.592 233.751 253.16L233.787 250.676C233.787 250.532 233.775 250.4 233.751 250.28C233.727 250.16 233.703 250.04 233.679 249.92H229.539C229.779 249.92 229.203 250.04 227.811 250.28C226.443 250.496 225.375 250.64 224.607 250.712L222.987 250.856L221.187 251.036C221.187 251.252 221.187 251.516 221.187 251.828C221.211 252.14 221.211 252.512 221.187 252.944V253.124C221.187 253.508 221.091 253.796 220.899 253.988C220.707 254.18 220.527 254.276 220.359 254.276C220.263 254.276 220.119 254.228 219.927 254.132C219.495 253.82 219.255 253.388 219.207 252.836L219.099 250.208C219.051 249.272 219.435 248.804 220.251 248.804C220.707 248.78 221.067 248.66 221.331 248.444C221.595 248.228 221.907 247.892 222.267 247.436C222.627 246.956 222.903 246.428 223.095 245.852C223.311 245.252 223.515 244.532 223.707 243.692C223.923 242.78 224.079 241.892 224.175 241.028C224.271 240.164 224.391 238.928 224.535 237.32C224.751 234.8 224.859 232.268 224.859 229.724L224.823 227.708C224.823 227.252 224.955 226.88 225.219 226.592C225.483 226.28 225.843 226.124 226.299 226.124C226.443 226.124 226.551 226.136 226.623 226.16C227.727 226.352 228.627 226.472 229.323 226.52H229.503C229.815 226.52 229.995 226.46 230.043 226.34C230.259 226.052 230.523 225.908 230.835 225.908C231.051 225.908 231.243 225.956 231.411 226.052C231.795 226.196 232.047 226.556 232.167 227.132L231.987 233.288C231.987 236.624 231.999 239.12 232.023 240.776C232.023 241.64 232.047 242.96 232.095 244.736L232.131 246.716C232.131 246.908 232.143 247.088 232.167 247.256C232.191 247.424 232.215 247.592 232.239 247.76C232.719 247.808 233.079 247.832 233.319 247.832C233.511 247.832 233.655 247.82 233.751 247.796C234.279 247.724 234.747 247.856 235.155 248.192C235.587 248.504 235.803 248.912 235.803 249.416C235.803 250.064 235.755 251.036 235.659 252.332C235.659 252.668 235.635 253.148 235.587 253.772C235.539 254.276 235.323 254.588 234.939 254.708ZM224.571 248.984C225.915 248.864 226.971 248.756 227.739 248.66C228.531 248.54 229.311 248.36 230.079 248.12C230.319 245.216 230.439 242.108 230.439 238.796C230.439 235.724 230.319 232.352 230.079 228.68C229.455 228.656 228.291 228.596 226.587 228.5L226.551 230.192C226.359 233.888 226.227 236.648 226.155 238.472C226.059 241.208 225.591 243.896 224.751 246.536C224.703 246.68 224.595 247.04 224.427 247.616C224.283 248.168 224.055 248.648 223.743 249.056L224.571 248.984ZM239.65 250.64C239.434 250.64 239.23 250.532 239.038 250.316C238.87 250.1 238.834 249.884 238.93 249.668C239.002 249.452 239.17 249.092 239.434 248.588C240.178 247.364 240.67 245.708 240.91 243.62C240.934 243.476 240.838 243.296 240.622 243.08C240.43 242.84 240.31 242.66 240.262 242.54L239.758 241.82C239.254 241.124 238.834 240.488 238.498 239.912C238.186 239.312 237.886 238.52 237.598 237.536C237.478 237.128 237.394 236.696 237.346 236.24C237.298 235.76 237.274 235.46 237.274 235.34L237.202 234.512C237.178 234.104 237.142 233.744 237.094 233.432C237.046 233.096 237.01 232.82 236.986 232.604C236.77 231.212 236.662 230.072 236.662 229.184C236.662 228.848 236.674 228.596 236.698 228.428C236.722 228.068 236.722 227.744 236.698 227.456C236.698 227.168 236.698 226.928 236.698 226.736C236.722 226.256 236.89 226.016 237.202 226.016C237.274 226.016 237.406 226.04 237.598 226.088C238.486 226.352 238.93 226.856 238.93 227.6C238.93 227.792 238.906 228.152 238.858 228.68L238.75 230.156C238.75 230.828 238.762 231.332 238.786 231.668C238.978 233.66 239.194 235.628 239.434 237.572C239.506 238.1 239.674 238.592 239.938 239.048C240.226 239.48 240.514 239.84 240.802 240.128C241.114 240.392 241.294 240.524 241.342 240.524C241.486 240.092 241.57 239.804 241.594 239.66C241.738 237.524 241.822 235.952 241.846 234.944C241.87 234.104 241.882 232.712 241.882 230.768V226.556C241.906 226.364 241.954 226.232 242.026 226.16C242.122 226.064 242.278 226.016 242.494 226.016C242.974 226.016 243.37 226.196 243.682 226.556C243.994 226.892 244.114 227.3 244.042 227.78C243.97 228.356 243.934 229.124 243.934 230.084C243.934 230.66 243.946 231.056 243.97 231.272C243.994 231.488 244.006 231.788 244.006 232.172C244.006 232.772 243.958 233.624 243.862 234.728C243.862 234.992 243.838 235.412 243.79 235.988C243.742 236.708 243.622 237.812 243.43 239.3L243.286 240.488C243.142 241.928 242.854 243.704 242.422 245.816C242.278 246.488 242.062 247.196 241.774 247.94C241.486 248.66 241.162 249.332 240.802 249.956C240.73 250.124 240.574 250.28 240.334 250.424C240.094 250.568 239.866 250.64 239.65 250.64ZM249.138 250.352C249.042 250.328 248.886 250.304 248.67 250.28C248.454 250.256 248.274 250.196 248.13 250.1C247.77 249.86 247.626 249.452 247.698 248.876L247.734 248.084C247.83 246.788 247.878 245.816 247.878 245.168C247.878 241.4 247.842 237.608 247.77 233.792C247.77 231.824 247.71 229.736 247.59 227.528C247.566 227.144 247.65 226.82 247.842 226.556C248.058 226.292 248.322 226.16 248.634 226.16C248.922 226.16 249.21 226.292 249.498 226.556C249.81 226.82 249.954 227.132 249.93 227.492C249.762 228.212 249.678 229.652 249.678 231.812V234.692C249.678 235.22 249.702 236.06 249.75 237.212C249.822 237.116 250.05 236.672 250.434 235.88C250.482 235.784 250.566 235.64 250.686 235.448C250.806 235.232 250.89 235.016 250.938 234.8C251.73 232.4 252.378 230.552 252.882 229.256C253.098 228.56 253.386 227.972 253.746 227.492C254.106 226.988 254.598 226.64 255.222 226.448C255.438 226.376 255.726 226.4 256.086 226.52C256.47 226.64 256.722 226.784 256.842 226.952C256.986 227.12 257.058 227.324 257.058 227.564C257.058 227.804 256.974 228.02 256.806 228.212C256.662 228.404 256.47 228.524 256.23 228.572C255.63 228.668 255.162 228.884 254.826 229.22C254.49 229.556 254.238 229.916 254.07 230.3C253.926 230.66 253.746 231.212 253.53 231.956L252.09 235.484C252.018 235.652 251.91 235.94 251.766 236.348C251.646 236.756 251.526 237.068 251.406 237.284C251.358 237.356 251.286 237.428 251.19 237.5C251.094 237.572 251.01 237.644 250.938 237.716C251.106 237.596 251.322 237.632 251.586 237.824C251.874 238.016 252.162 238.28 252.45 238.616C252.642 239 252.774 239.42 252.846 239.876C252.942 240.332 253.002 240.596 253.026 240.668C253.074 241.052 253.122 241.34 253.17 241.532C253.458 242.3 253.662 243.008 253.782 243.656C253.902 244.28 253.986 245.024 254.034 245.888C254.106 246.752 254.346 247.508 254.754 248.156C254.874 248.18 255.006 248.204 255.15 248.228C255.318 248.252 255.498 248.276 255.69 248.3C256.074 248.324 256.326 248.564 256.446 249.02C256.47 249.068 256.482 249.152 256.482 249.272C256.482 249.536 256.362 249.788 256.122 250.028C255.762 250.388 255.306 250.568 254.754 250.568C254.346 250.568 253.95 250.46 253.566 250.244C253.206 250.028 252.942 249.74 252.774 249.38C252.63 249.14 252.51 248.816 252.414 248.408C252.246 247.376 252.102 246.332 251.982 245.276C251.886 243.812 251.778 242.708 251.658 241.964C251.562 241.196 251.334 240.464 250.974 239.768C250.878 239.6 250.782 239.48 250.686 239.408C250.59 239.312 250.458 239.264 250.29 239.264C250.146 239.264 249.966 239.3 249.75 239.372C249.702 241.1 249.678 242.78 249.678 244.412C249.678 245.444 249.726 247.016 249.822 249.128C249.846 249.392 249.798 249.608 249.678 249.776C249.582 249.92 249.402 250.112 249.138 250.352ZM262.158 249.704L262.122 248.3C262.098 247.892 262.086 247.436 262.086 246.932L262.122 245.708C262.05 245.444 261.87 242.816 261.582 237.824C261.294 232.832 261.126 229.628 261.078 228.212C259.686 228.164 258.798 228.02 258.414 227.78C258.15 227.588 258.018 227.372 258.018 227.132C258.018 226.94 258.138 226.772 258.378 226.628C258.642 226.46 258.906 226.376 259.17 226.376C259.842 226.376 260.658 226.424 261.618 226.52C262.53 226.64 263.346 226.7 264.066 226.7H264.354H264.642C265.386 226.7 265.758 226.988 265.758 227.564C265.758 227.852 265.638 228.092 265.398 228.284C265.158 228.452 264.882 228.536 264.57 228.536C264.354 228.536 264.042 228.5 263.634 228.428L262.914 228.284L262.878 228.464L262.842 228.644C262.842 230.78 263.046 234.188 263.454 238.868C263.838 243.26 264.03 246.668 264.03 249.092C264.03 249.38 263.898 249.632 263.634 249.848C263.394 250.064 263.118 250.172 262.806 250.172L262.158 249.704ZM279.001 250.64C278.305 250.64 277.957 250.376 277.957 249.848C277.957 249.728 277.957 249.476 277.957 249.092C277.957 248.708 277.981 248.348 278.029 248.012C278.125 247.148 278.173 246.128 278.173 244.952C278.173 243.824 278.125 242.3 278.029 240.38C277.981 239.3 277.933 237.632 277.885 235.376L277.777 230.984L277.741 229.472L277.705 226.772C277.705 226.388 277.921 226.172 278.353 226.124C278.785 226.1 279.145 226.22 279.433 226.484C279.721 226.748 279.865 227.084 279.865 227.492C279.865 228.092 279.841 229.04 279.793 230.336L279.685 239.588C279.661 239.9 279.649 240.32 279.649 240.848C279.673 241.376 279.685 241.892 279.685 242.396V244.556V245.852C279.637 247.364 279.697 248.624 279.865 249.632C279.913 249.968 279.853 250.22 279.685 250.388C279.541 250.556 279.313 250.64 279.001 250.64ZM270.541 250.64C270.205 250.64 269.905 250.592 269.641 250.496C269.377 250.4 269.257 250.16 269.281 249.776C269.329 249.224 269.365 248.54 269.389 247.724C269.413 246.908 269.425 246.344 269.425 246.032C269.425 244.664 269.461 243.224 269.533 241.712C269.581 241.136 269.605 240.224 269.605 238.976C269.605 238.28 269.593 237.452 269.569 236.492C269.545 235.532 269.521 234.812 269.497 234.332C269.473 233.924 269.449 233.444 269.425 232.892C269.401 232.34 269.389 231.728 269.389 231.056C269.341 230.24 269.317 229.604 269.317 229.148L269.281 228.212C269.281 228.092 269.281 227.852 269.281 227.492C269.281 227.108 269.341 226.808 269.461 226.592C269.605 226.376 269.845 226.268 270.181 226.268C270.493 226.268 270.757 226.4 270.973 226.664C271.189 226.904 271.297 227.192 271.297 227.528C271.297 227.792 271.321 228.236 271.369 228.86C271.417 229.964 271.441 230.84 271.441 231.488C271.441 232.28 271.381 233.06 271.261 233.828C271.213 233.972 271.189 234.212 271.189 234.548C271.189 234.836 271.213 235.244 271.261 235.772C271.453 235.844 271.861 236 272.485 236.24C273.109 236.456 273.649 236.72 274.105 237.032C274.561 237.32 274.921 237.656 275.185 238.04C276.001 239.36 276.409 240.5 276.409 241.46C276.409 242.948 276.301 244.604 276.085 246.428C275.965 247.508 275.617 248.312 275.041 248.84C274.465 249.368 273.625 249.824 272.521 250.208C272.233 250.304 271.885 250.388 271.477 250.46C271.069 250.532 270.757 250.592 270.541 250.64ZM271.261 248.696C271.549 248.744 271.765 248.768 271.909 248.768C272.389 248.768 272.785 248.6 273.097 248.264C273.937 247.448 274.357 246.476 274.357 245.348C274.405 244.244 274.429 243.248 274.429 242.36C274.429 240.776 274.309 239.756 274.069 239.3C273.901 238.772 273.565 238.328 273.061 237.968C272.557 237.608 271.981 237.356 271.333 237.212C271.165 238.916 271.081 240.824 271.081 242.936C271.081 244.736 271.141 246.656 271.261 248.696Z" fill="white"/>
<path fill-rule="evenodd" clip-rule="evenodd" d="M148.985 38.0894C104.969 38.0894 69.291 73.7669 69.291 117.784C69.291 161.801 104.969 197.478 148.985 197.478C193.002 197.478 228.68 161.801 228.68 117.784C228.68 73.7669 193.002 38.0894 148.985 38.0894ZM148.985 50.0435C186.4 50.0435 216.726 80.3689 216.726 117.784C216.726 155.199 186.4 185.524 148.985 185.524C111.571 185.524 81.2452 155.199 81.2452 117.784C81.2452 80.3689 111.571 50.0435 148.985 50.0435ZM152.211 83.8711C151.815 80.9536 149.315 78.705 146.289 78.705C142.988 78.705 140.312 81.3811 140.312 84.6821V123.31L140.378 124.201C140.642 125.954 141.677 127.519 143.227 128.443L173.271 146.366L173.996 146.735C176.704 147.89 179.916 146.894 181.467 144.295L181.835 143.571C182.99 140.863 181.994 137.65 179.396 136.1L152.263 119.908L152.266 84.6821L152.211 83.8711Z" fill="white"/>
</svg>
