<svg width="302" height="302" viewBox="0 0 302 302" fill="none" xmlns="http://www.w3.org/2000/svg">
<rect width="302" height="302" rx="50" fill="#346A2B"/>
<path d="M48.7275 256.487C47.9595 256.487 47.3835 256.427 46.9995 256.307C46.7595 256.235 46.5915 256.103 46.4955 255.911C46.4235 255.719 46.3875 255.455 46.3875 255.119C46.3635 254.615 46.3515 253.907 46.3515 252.995C46.3515 252.275 46.3755 251.291 46.4235 250.043L46.4595 247.163C46.4835 246.635 46.4955 245.855 46.4955 244.823C46.4955 244.055 46.4835 243.479 46.4595 243.095L46.3875 238.631C46.3875 236.327 46.3635 234.599 46.3155 233.447C46.2915 232.799 46.2795 231.839 46.2795 230.567C46.2795 230.111 46.3515 229.811 46.4955 229.667C46.6635 229.523 46.9875 229.439 47.4675 229.415L48.7275 229.379C49.7355 229.307 50.7195 229.271 51.6795 229.271C52.0395 229.271 52.3755 229.391 52.6875 229.631C52.8555 229.775 52.9395 229.967 52.9395 230.207C52.9395 230.471 52.8075 230.675 52.5435 230.819C52.1115 231.035 51.6915 231.143 51.2835 231.143C49.7235 231.143 48.7995 231.191 48.5115 231.287C48.2475 231.383 48.1155 231.623 48.1155 232.007C48.1155 232.367 48.1155 232.655 48.1155 232.871L48.1515 234.383C48.1995 235.727 48.2235 236.735 48.2235 237.407C48.2235 238.247 48.2115 238.883 48.1875 239.315C48.1635 239.459 48.1515 239.591 48.1515 239.711C48.1755 239.831 48.1875 239.939 48.1875 240.035C48.2115 240.203 48.2235 240.515 48.2235 240.971C49.4955 240.899 50.5035 241.163 51.2475 241.763C51.9675 242.363 52.5915 243.359 53.1195 244.751C53.6475 246.143 53.9115 247.595 53.9115 249.107C53.9115 249.563 53.8995 249.899 53.8755 250.115C53.7075 251.531 53.2755 252.779 52.5795 253.859C52.0275 254.651 51.4275 255.239 50.7795 255.623C50.6595 255.695 50.4675 255.815 50.2035 255.983C49.9395 256.127 49.6875 256.247 49.4475 256.343C49.2075 256.439 48.9675 256.487 48.7275 256.487ZM48.5115 254.363C49.3035 254.243 49.9755 253.907 50.5275 253.355C51.1035 252.803 51.4755 252.095 51.6435 251.231C51.8595 250.463 51.9675 249.599 51.9675 248.639C51.9675 247.559 51.8355 246.491 51.5715 245.435C51.4755 245.051 51.3195 244.679 51.1035 244.319C50.8875 243.959 50.6595 243.623 50.4195 243.311C50.2035 242.999 50.0475 242.771 49.9515 242.627C49.6875 242.531 49.4235 242.483 49.1595 242.483L48.2595 242.519C48.3075 244.007 48.3555 246.263 48.4035 249.287L48.5115 254.363ZM61.1917 257.171C60.5677 257.171 59.9917 256.967 59.4637 256.559C58.9357 256.175 58.5037 255.647 58.1677 254.975C57.4717 253.511 57.0397 251.915 56.8717 250.187C56.6557 248.555 56.5477 246.983 56.5477 245.471C56.5477 245.183 56.5597 244.943 56.5837 244.751V244.103C56.5837 243.983 56.5717 243.923 56.5477 243.923V243.275L56.5837 240.755C56.6077 239.987 56.7037 238.763 56.8717 237.083C56.9917 235.931 57.2677 234.815 57.6997 233.735C57.8677 233.255 58.0837 232.895 58.3477 232.655C58.6117 232.391 58.9117 232.259 59.2477 232.259C60.2077 232.259 61.0717 232.439 61.8397 232.799C62.6077 233.135 63.2557 233.615 63.7837 234.239C64.2637 234.839 64.6717 235.583 65.0077 236.471C65.3437 237.335 65.5837 238.259 65.7277 239.243C65.8717 240.251 65.9437 241.319 65.9437 242.447V242.735C65.9437 243.479 65.9557 244.151 65.9797 244.751L66.0157 246.803C66.0157 253.715 64.4077 257.171 61.1917 257.171ZM61.0477 255.659C61.4797 255.659 61.8757 255.491 62.2357 255.155C62.5957 254.795 62.8717 254.315 63.0637 253.715C63.5197 252.491 63.7957 251.171 63.8917 249.755C64.0117 248.531 64.0717 247.475 64.0717 246.587C64.0717 245.507 63.9877 244.091 63.8197 242.339C63.6757 240.491 63.6037 239.111 63.6037 238.199V237.551C63.5557 236.639 63.2437 235.847 62.6677 235.175C62.1157 234.503 61.4317 234.167 60.6157 234.167C59.7997 234.167 59.2597 234.635 58.9957 235.571C58.7557 236.315 58.6357 237.275 58.6357 238.451C58.6357 238.907 58.6477 239.291 58.6717 239.603V240.575L58.5997 242.231C58.5517 242.735 58.5277 243.287 58.5277 243.887C58.5277 245.183 58.5637 246.467 58.6357 247.739C58.7317 249.539 58.9717 251.291 59.3557 252.995C59.7397 254.771 60.3037 255.659 61.0477 255.659ZM76.2883 256.487C75.4723 256.487 75.0643 254.507 75.0643 250.547L75.1003 248.495L75.1363 246.839V246.731V246.371C75.1603 246.179 75.1723 245.951 75.1723 245.687C75.1723 245.639 75.1363 245.579 75.0643 245.507C74.9923 245.435 74.9563 245.375 74.9563 245.327V245.291C74.8363 245.339 74.6203 245.363 74.3083 245.363C73.9963 245.363 73.6123 245.315 73.1563 245.219C73.0123 245.195 72.6283 245.135 72.0043 245.039V249.179C72.0043 249.803 72.0403 250.787 72.1123 252.131C72.1843 253.451 72.2203 254.435 72.2203 255.083C72.2203 255.443 72.1243 255.755 71.9323 256.019C71.7403 256.283 71.4883 256.415 71.1763 256.415C70.7203 256.415 70.3963 255.971 70.2043 255.083C70.0123 254.171 69.9163 252.983 69.9163 251.519L69.9883 248.603C70.0123 247.787 70.0243 246.923 70.0243 246.011V245.399V244.895C70.0243 244.511 70.0123 244.259 69.9883 244.139V243.959L70.0963 241.871C70.0963 240.959 70.0603 239.603 69.9883 237.803C69.9163 236.003 69.8803 234.647 69.8803 233.735C69.8803 233.447 69.9763 233.195 70.1683 232.979C70.3603 232.763 70.6003 232.655 70.8883 232.655C71.6563 232.655 72.0403 233.375 72.0403 234.815L71.9683 239.279C71.9203 240.623 71.8963 242.123 71.8963 243.779C72.2563 243.899 72.9043 243.959 73.8403 243.959H75.1723C75.2203 243.815 75.2443 243.671 75.2443 243.527C75.2443 242.375 75.1723 240.671 75.0283 238.415C74.8603 236.303 74.7763 234.587 74.7763 233.267C74.7763 233.003 74.8723 232.787 75.0643 232.619C75.2803 232.427 75.5323 232.331 75.8203 232.331C75.9883 232.331 76.2283 232.391 76.5403 232.511L76.8643 232.655C76.8643 236.063 76.9843 240.611 77.2243 246.299L77.5483 255.407C77.5483 255.743 77.4163 256.007 77.1523 256.199C76.9123 256.391 76.6243 256.487 76.2883 256.487ZM83.5263 256.847C83.3103 256.847 83.1063 256.739 82.9143 256.523C82.7463 256.307 82.7103 256.091 82.8063 255.875C82.8783 255.659 83.0463 255.299 83.3103 254.795C84.0543 253.571 84.5463 251.915 84.7863 249.827C84.8103 249.683 84.7143 249.503 84.4983 249.287C84.3063 249.047 84.1863 248.867 84.1383 248.747L83.6343 248.027C83.1303 247.331 82.7103 246.695 82.3743 246.119C82.0623 245.519 81.7623 244.727 81.4743 243.743C81.3543 243.335 81.2703 242.903 81.2223 242.447C81.1743 241.967 81.1503 241.667 81.1503 241.547L81.0783 240.719C81.0543 240.311 81.0183 239.951 80.9703 239.639C80.9223 239.303 80.8863 239.027 80.8623 238.811C80.6463 237.419 80.5383 236.279 80.5383 235.391C80.5383 235.055 80.5503 234.803 80.5743 234.635C80.5983 234.275 80.5983 233.951 80.5743 233.663C80.5743 233.375 80.5743 233.135 80.5743 232.943C80.5983 232.463 80.7663 232.223 81.0783 232.223C81.1503 232.223 81.2823 232.247 81.4743 232.295C82.3623 232.559 82.8063 233.063 82.8063 233.807C82.8063 233.999 82.7823 234.359 82.7343 234.887L82.6263 236.363C82.6263 237.035 82.6383 237.539 82.6623 237.875C82.8543 239.867 83.0703 241.835 83.3103 243.779C83.3823 244.307 83.5503 244.799 83.8143 245.255C84.1023 245.687 84.3903 246.047 84.6783 246.335C84.9903 246.599 85.1703 246.731 85.2183 246.731C85.3623 246.299 85.4463 246.011 85.4703 245.867C85.6143 243.731 85.6983 242.159 85.7223 241.151C85.7463 240.311 85.7583 238.919 85.7583 236.975V232.763C85.7823 232.571 85.8303 232.439 85.9023 232.367C85.9983 232.271 86.1543 232.223 86.3703 232.223C86.8503 232.223 87.2463 232.403 87.5583 232.763C87.8703 233.099 87.9903 233.507 87.9183 233.987C87.8463 234.563 87.8103 235.331 87.8103 236.291C87.8103 236.867 87.8223 237.263 87.8463 237.479C87.8703 237.695 87.8823 237.995 87.8823 238.379C87.8823 238.979 87.8343 239.831 87.7383 240.935C87.7383 241.199 87.7143 241.619 87.6663 242.195C87.6183 242.915 87.4983 244.019 87.3063 245.507L87.1623 246.695C87.0183 248.135 86.7303 249.911 86.2983 252.023C86.1543 252.695 85.9383 253.403 85.6503 254.147C85.3623 254.867 85.0383 255.539 84.6783 256.163C84.6063 256.331 84.4503 256.487 84.2103 256.631C83.9703 256.775 83.7423 256.847 83.5263 256.847ZM96.3623 256.991C95.8343 256.991 95.2703 256.907 94.6703 256.739C94.0943 256.595 93.6503 256.427 93.3383 256.235C91.7303 255.203 90.9263 252.383 90.9263 247.775V246.803V245.687V244.823C90.9263 243.863 90.9383 243.011 90.9623 242.267C90.9863 241.499 91.0343 240.671 91.1063 239.783C91.1783 238.847 91.2863 238.091 91.4303 237.515C91.5743 236.915 91.8143 236.243 92.1503 235.499C92.4383 234.803 92.7863 234.263 93.1943 233.879C93.6263 233.495 94.1783 233.171 94.8503 232.907C95.4503 232.643 96.1943 232.511 97.0823 232.511C97.4423 232.511 97.7183 232.595 97.9103 232.763C98.1023 232.931 98.1983 233.147 98.1983 233.411C98.1983 233.651 98.1143 233.867 97.9463 234.059C97.8023 234.251 97.6223 234.359 97.4063 234.383H95.7143C95.2343 234.383 94.8143 234.683 94.4543 235.283C94.0943 235.883 93.8423 236.663 93.6983 237.623C93.3863 239.399 93.2303 240.839 93.2303 241.943V242.123L93.1583 245.579C93.1103 246.611 93.0863 247.775 93.0863 249.071C93.0863 249.983 93.1223 250.727 93.1943 251.303C93.3143 252.167 93.5183 252.887 93.8063 253.463C94.0943 254.111 94.5863 254.579 95.2823 254.867C95.6423 255.011 96.0383 255.083 96.4703 255.083C96.7343 255.083 96.9983 254.987 97.2623 254.795C97.5743 254.795 97.8263 254.867 98.0183 255.011C98.2343 255.131 98.3423 255.323 98.3423 255.587C98.3423 256.523 97.6823 256.991 96.3623 256.991ZM107.929 256.487C107.113 256.487 106.705 254.507 106.705 250.547L106.741 248.495L106.777 246.839V246.731V246.371C106.801 246.179 106.813 245.951 106.813 245.687C106.813 245.639 106.777 245.579 106.705 245.507C106.633 245.435 106.597 245.375 106.597 245.327V245.291C106.477 245.339 106.261 245.363 105.949 245.363C105.637 245.363 105.253 245.315 104.797 245.219C104.653 245.195 104.269 245.135 103.645 245.039V249.179C103.645 249.803 103.681 250.787 103.753 252.131C103.825 253.451 103.861 254.435 103.861 255.083C103.861 255.443 103.765 255.755 103.573 256.019C103.381 256.283 103.129 256.415 102.817 256.415C102.361 256.415 102.037 255.971 101.845 255.083C101.653 254.171 101.557 252.983 101.557 251.519L101.629 248.603C101.653 247.787 101.665 246.923 101.665 246.011V245.399V244.895C101.665 244.511 101.653 244.259 101.629 244.139V243.959L101.737 241.871C101.737 240.959 101.701 239.603 101.629 237.803C101.557 236.003 101.521 234.647 101.521 233.735C101.521 233.447 101.617 233.195 101.809 232.979C102.001 232.763 102.241 232.655 102.529 232.655C103.297 232.655 103.681 233.375 103.681 234.815L103.609 239.279C103.561 240.623 103.537 242.123 103.537 243.779C103.897 243.899 104.545 243.959 105.481 243.959H106.813C106.861 243.815 106.885 243.671 106.885 243.527C106.885 242.375 106.813 240.671 106.669 238.415C106.501 236.303 106.417 234.587 106.417 233.267C106.417 233.003 106.513 232.787 106.705 232.619C106.921 232.427 107.173 232.331 107.461 232.331C107.629 232.331 107.869 232.391 108.181 232.511L108.505 232.655C108.505 236.063 108.625 240.611 108.865 246.299L109.189 255.407C109.189 255.743 109.057 256.007 108.793 256.199C108.553 256.391 108.265 256.487 107.929 256.487ZM120.603 256.811C120.051 256.811 119.643 256.727 119.379 256.559C119.115 256.391 118.983 256.079 118.983 255.623C118.983 254.903 118.863 253.679 118.623 251.951L118.479 251.195L114.915 250.655C114.771 251.207 114.567 252.323 114.303 254.003C114.159 255.179 113.931 255.959 113.619 256.343C113.451 256.559 113.211 256.667 112.899 256.667C112.611 256.667 112.347 256.583 112.107 256.415C111.867 256.223 111.747 255.995 111.747 255.731L111.819 255.551L111.855 255.407C113.439 249.239 114.639 243.155 115.455 237.155C115.455 237.059 115.467 236.903 115.491 236.687C115.515 236.447 115.539 236.111 115.563 235.679C115.635 234.791 115.707 234.083 115.779 233.555C115.875 233.027 116.019 232.631 116.211 232.367H117.435C117.771 232.367 118.059 232.451 118.299 232.619C118.539 232.763 118.659 232.979 118.659 233.267C118.659 235.091 118.911 237.803 119.415 241.403C119.895 245.099 120.135 247.691 120.135 249.179C120.135 249.323 120.195 249.695 120.315 250.295C120.435 250.847 120.495 251.207 120.495 251.375C120.495 251.543 120.615 252.263 120.855 253.535C121.071 254.687 121.179 255.431 121.179 255.767V255.803C121.179 256.331 120.987 256.667 120.603 256.811ZM118.227 249.899C118.155 249.539 118.119 249.095 118.119 248.567C118.119 246.407 117.927 243.647 117.543 240.287L117.183 236.543C116.151 242.183 115.443 246.443 115.059 249.323C115.419 249.563 116.475 249.755 118.227 249.899ZM123.513 256.811C123.297 256.763 123.117 256.691 122.973 256.595C122.853 256.523 122.781 256.379 122.757 256.163C122.781 256.019 122.841 255.863 122.937 255.695C123.033 255.527 123.129 255.431 123.225 255.407C123.441 255.383 123.597 255.311 123.693 255.191C123.789 255.071 123.873 254.903 123.945 254.687C123.969 254.543 124.041 254.183 124.161 253.607C124.281 253.031 124.353 252.479 124.377 251.951L124.413 251.339C124.413 251.051 124.389 250.643 124.341 250.115C124.293 249.587 124.269 249.203 124.269 248.963C124.269 247.571 124.785 246.203 125.817 244.859C124.425 243.587 123.729 242.195 123.729 240.683V239.531C123.729 238.283 123.825 237.347 124.017 236.723C124.185 236.075 124.497 235.367 124.953 234.599C125.121 234.239 125.349 233.963 125.637 233.771C125.925 233.555 126.237 233.363 126.573 233.195C126.933 233.027 127.209 232.895 127.401 232.799C127.545 232.727 127.749 232.655 128.013 232.583C128.301 232.511 128.529 232.379 128.697 232.187C129.009 232.067 129.321 232.007 129.633 232.007C130.089 232.007 130.485 232.115 130.821 232.331C131.181 232.547 131.361 232.799 131.361 233.087C131.361 234.119 131.337 235.739 131.289 237.947L131.181 243.059L131.145 245.075L131.181 247.091C131.229 248.195 131.325 249.755 131.469 251.771L131.613 254.111C131.637 254.327 131.673 254.567 131.721 254.831C131.769 255.095 131.793 255.311 131.793 255.479C131.793 256.127 131.457 256.451 130.785 256.451C130.497 256.451 130.233 256.379 129.993 256.235C129.777 256.091 129.657 255.887 129.633 255.623C129.561 255.071 129.525 254.507 129.525 253.931L129.417 244.967C128.577 245.111 127.953 245.267 127.545 245.435C127.137 245.603 126.837 245.831 126.645 246.119C126.477 246.383 126.345 246.767 126.249 247.271C126.177 247.583 126.141 248.051 126.141 248.675C126.141 248.987 126.165 249.431 126.213 250.007L126.249 251.375C126.249 252.407 126.189 253.283 126.069 254.003C125.949 254.699 125.685 255.359 125.277 255.983C125.085 256.295 124.821 256.523 124.485 256.667C124.149 256.811 123.825 256.859 123.513 256.811ZM127.077 243.887C127.173 243.911 127.329 243.923 127.545 243.923C128.049 243.923 128.697 243.815 129.489 243.599C129.489 242.975 129.465 242.015 129.417 240.719C129.345 239.495 129.309 238.283 129.309 237.083C129.309 236.075 129.345 235.055 129.417 234.023C128.769 234.119 128.193 234.287 127.689 234.527C127.185 234.767 126.849 235.031 126.681 235.319C126.057 236.495 125.733 237.647 125.709 238.775C125.709 240.047 125.733 240.983 125.781 241.583C125.805 242.111 125.925 242.603 126.141 243.059C126.357 243.515 126.669 243.791 127.077 243.887ZM149.675 256.451C149.363 256.499 149.099 256.427 148.883 256.235C148.667 256.019 148.559 255.731 148.559 255.371C148.487 254.219 148.451 253.079 148.451 251.951C148.451 250.415 148.487 248.891 148.559 247.379C148.607 245.843 148.631 244.715 148.631 243.995C148.367 242.291 148.211 239.543 148.163 235.751C148.163 234.863 148.151 234.143 148.127 233.591C146.903 233.591 146.015 233.567 145.463 233.519H145.247C144.887 233.519 144.695 233.711 144.671 234.095L144.635 236.687C144.635 237.935 144.671 238.691 144.743 238.955C144.791 239.243 144.815 239.435 144.815 239.531C144.815 239.723 144.791 240.011 144.743 240.395C144.695 240.779 144.671 241.067 144.671 241.259C144.671 241.619 144.731 241.931 144.851 242.195C144.947 242.411 144.983 242.711 144.959 243.095C144.959 243.479 144.959 243.767 144.959 243.959C144.983 244.703 144.971 245.795 144.923 247.235C144.875 248.387 144.851 249.239 144.851 249.791C144.851 250.487 144.875 251.279 144.923 252.167C144.971 253.031 145.007 253.643 145.031 254.003L145.103 255.011C145.127 255.395 145.043 255.707 144.851 255.947C144.683 256.163 144.431 256.271 144.095 256.271C143.975 256.271 143.819 256.247 143.627 256.199C143.411 256.127 143.267 256.007 143.195 255.839C143.123 255.671 143.075 255.455 143.051 255.191L142.943 252.167L142.979 247.811C142.931 245.219 142.907 243.287 142.907 242.015L142.871 239.099C142.847 237.731 142.787 236.279 142.691 234.743L142.619 233.267V233.051C142.619 232.811 142.667 232.643 142.763 232.547C142.859 232.427 143.039 232.331 143.303 232.259C143.783 232.139 144.215 232.079 144.599 232.079C144.815 232.079 144.971 232.091 145.067 232.115C145.259 232.115 145.547 232.139 145.931 232.187C146.459 232.235 146.879 232.259 147.191 232.259C147.647 232.259 148.067 232.211 148.451 232.115C148.715 232.043 149.051 232.103 149.459 232.295C149.867 232.463 150.095 232.715 150.143 233.051C150.191 233.387 150.215 233.651 150.215 233.843C150.215 234.035 150.203 234.179 150.179 234.275C150.083 234.563 150.035 234.911 150.035 235.319C150.035 235.535 150.047 235.775 150.071 236.039C150.095 236.303 150.107 236.579 150.107 236.867C150.107 237.107 150.095 237.299 150.071 237.443C150.047 237.659 150.035 238.007 150.035 238.487C150.035 239.279 150.107 240.395 150.251 241.835L150.359 242.807C150.383 243.023 150.395 243.347 150.395 243.779C150.395 244.283 150.383 244.655 150.359 244.895C150.359 245.087 150.347 245.327 150.323 245.615C150.323 245.879 150.335 246.203 150.359 246.587C150.335 247.139 150.347 247.967 150.395 249.071L150.431 249.863L150.647 255.515C150.647 255.779 150.575 255.995 150.431 256.163C150.311 256.307 150.059 256.403 149.675 256.451ZM155.752 256.739C155.44 255.467 155.284 253.703 155.284 251.447L155.356 248.243C155.404 247.283 155.428 246.215 155.428 245.039C155.284 244.703 155.212 244.403 155.212 244.139V244.031C155.452 243.575 155.572 242.543 155.572 240.935L155.608 239.279C155.632 238.751 155.644 238.163 155.644 237.515C155.644 236.099 155.548 234.983 155.356 234.167C155.428 233.831 155.548 233.543 155.716 233.303C155.884 233.039 156.088 232.907 156.328 232.907H157.912C158.584 232.907 159.172 233.063 159.676 233.375C160.18 233.663 160.564 234.083 160.828 234.635C161.308 235.619 161.548 236.783 161.548 238.127C161.548 239.087 161.536 239.843 161.512 240.395C161.464 241.091 161.344 241.727 161.152 242.303C161.08 242.615 160.972 242.879 160.828 243.095C160.708 243.287 160.528 243.527 160.288 243.815C159.952 244.223 159.4 244.607 158.632 244.967C158.32 245.135 157.912 245.291 157.408 245.435V249.287L157.48 251.591L157.552 252.707C157.648 254.051 157.696 255.191 157.696 256.127C157.696 256.415 157.576 256.655 157.336 256.847C157.096 257.063 156.82 257.171 156.508 257.171L155.752 256.739ZM157.444 243.959C158.86 243.743 159.568 241.715 159.568 237.875C159.568 237.179 159.532 236.639 159.46 236.255C159.388 235.967 159.292 235.739 159.172 235.571C159.052 235.379 158.872 235.223 158.632 235.103C158.368 234.959 158.08 234.887 157.768 234.887C157.768 234.863 157.636 234.851 157.372 234.851V236.903C157.372 238.319 157.384 239.579 157.408 240.683C157.408 241.931 157.42 242.747 157.444 243.131V243.887V243.959ZM169.297 257.171C168.673 257.171 168.097 256.967 167.569 256.559C167.041 256.175 166.609 255.647 166.273 254.975C165.577 253.511 165.145 251.915 164.977 250.187C164.761 248.555 164.653 246.983 164.653 245.471C164.653 245.183 164.665 244.943 164.689 244.751V244.103C164.689 243.983 164.677 243.923 164.653 243.923V243.275L164.689 240.755C164.713 239.987 164.809 238.763 164.977 237.083C165.097 235.931 165.373 234.815 165.805 233.735C165.973 233.255 166.189 232.895 166.453 232.655C166.717 232.391 167.017 232.259 167.353 232.259C168.313 232.259 169.177 232.439 169.945 232.799C170.713 233.135 171.361 233.615 171.889 234.239C172.369 234.839 172.777 235.583 173.113 236.471C173.449 237.335 173.689 238.259 173.833 239.243C173.977 240.251 174.049 241.319 174.049 242.447V242.735C174.049 243.479 174.061 244.151 174.085 244.751L174.121 246.803C174.121 253.715 172.513 257.171 169.297 257.171ZM169.153 255.659C169.585 255.659 169.981 255.491 170.341 255.155C170.701 254.795 170.977 254.315 171.169 253.715C171.625 252.491 171.901 251.171 171.997 249.755C172.117 248.531 172.177 247.475 172.177 246.587C172.177 245.507 172.093 244.091 171.925 242.339C171.781 240.491 171.709 239.111 171.709 238.199V237.551C171.661 236.639 171.349 235.847 170.773 235.175C170.221 234.503 169.537 234.167 168.721 234.167C167.905 234.167 167.365 234.635 167.101 235.571C166.861 236.315 166.741 237.275 166.741 238.451C166.741 238.907 166.753 239.291 166.777 239.603V240.575L166.705 242.231C166.657 242.735 166.633 243.287 166.633 243.887C166.633 245.183 166.669 246.467 166.741 247.739C166.837 249.539 167.077 251.291 167.461 252.995C167.845 254.771 168.409 255.659 169.153 255.659ZM178.382 256.775C178.358 256.679 178.31 256.511 178.238 256.271C178.19 256.031 178.178 255.827 178.202 255.659C178.25 252.875 178.322 250.799 178.418 249.431C178.442 248.927 178.454 248.183 178.454 247.199C178.454 245.423 178.37 243.275 178.202 240.755C178.058 237.683 177.986 235.355 177.986 233.771C177.986 233.411 178.13 233.087 178.418 232.799C178.706 232.511 179.054 232.367 179.462 232.367C180.83 232.367 182.018 232.475 183.026 232.691C183.506 232.787 183.818 232.955 183.962 233.195C184.106 233.411 184.154 233.783 184.106 234.311C183.77 234.527 183.422 234.635 183.062 234.635C182.942 234.635 182.762 234.611 182.522 234.563C182.306 234.515 181.73 234.467 180.794 234.419H180.722C180.386 234.419 180.218 234.599 180.218 234.959C180.098 238.439 180.038 240.419 180.038 240.899C180.086 243.395 180.134 245.279 180.182 246.551C180.182 246.719 180.194 246.923 180.218 247.163C180.242 247.403 180.242 247.607 180.218 247.775C180.146 248.879 180.11 250.043 180.11 251.267C180.11 253.259 180.146 254.651 180.218 255.443C180.194 255.971 180.11 256.331 179.966 256.523C179.822 256.739 179.558 256.847 179.174 256.847C179.078 256.847 178.814 256.823 178.382 256.775ZM187.358 256.739C187.046 255.467 186.89 253.703 186.89 251.447L186.962 248.243C187.01 247.283 187.034 246.215 187.034 245.039C186.89 244.703 186.818 244.403 186.818 244.139V244.031C187.058 243.575 187.178 242.543 187.178 240.935L187.214 239.279C187.238 238.751 187.25 238.163 187.25 237.515C187.25 236.099 187.154 234.983 186.962 234.167C187.034 233.831 187.154 233.543 187.322 233.303C187.49 233.039 187.694 232.907 187.934 232.907H189.518C190.19 232.907 190.778 233.063 191.282 233.375C191.786 233.663 192.17 234.083 192.434 234.635C192.914 235.619 193.154 236.783 193.154 238.127C193.154 239.087 193.142 239.843 193.118 240.395C193.07 241.091 192.95 241.727 192.758 242.303C192.686 242.615 192.578 242.879 192.434 243.095C192.314 243.287 192.134 243.527 191.894 243.815C191.558 244.223 191.006 244.607 190.238 244.967C189.926 245.135 189.518 245.291 189.014 245.435V249.287L189.086 251.591L189.158 252.707C189.254 254.051 189.302 255.191 189.302 256.127C189.302 256.415 189.182 256.655 188.942 256.847C188.702 257.063 188.426 257.171 188.114 257.171L187.358 256.739ZM189.05 243.959C190.466 243.743 191.174 241.715 191.174 237.875C191.174 237.179 191.138 236.639 191.066 236.255C190.994 235.967 190.898 235.739 190.778 235.571C190.658 235.379 190.478 235.223 190.238 235.103C189.974 234.959 189.686 234.887 189.374 234.887C189.374 234.863 189.242 234.851 188.978 234.851V236.903C188.978 238.319 188.99 239.579 189.014 240.683C189.014 241.931 189.026 242.747 189.05 243.131V243.887V243.959ZM203.783 256.811C203.231 256.811 202.823 256.727 202.559 256.559C202.295 256.391 202.163 256.079 202.163 255.623C202.163 254.903 202.043 253.679 201.803 251.951L201.659 251.195L198.095 250.655C197.951 251.207 197.747 252.323 197.483 254.003C197.339 255.179 197.111 255.959 196.799 256.343C196.631 256.559 196.391 256.667 196.079 256.667C195.791 256.667 195.527 256.583 195.287 256.415C195.047 256.223 194.927 255.995 194.927 255.731L194.999 255.551L195.035 255.407C196.619 249.239 197.819 243.155 198.635 237.155C198.635 237.059 198.647 236.903 198.671 236.687C198.695 236.447 198.719 236.111 198.743 235.679C198.815 234.791 198.887 234.083 198.959 233.555C199.055 233.027 199.199 232.631 199.391 232.367H200.615C200.951 232.367 201.239 232.451 201.479 232.619C201.719 232.763 201.839 232.979 201.839 233.267C201.839 235.091 202.091 237.803 202.595 241.403C203.075 245.099 203.315 247.691 203.315 249.179C203.315 249.323 203.375 249.695 203.495 250.295C203.615 250.847 203.675 251.207 203.675 251.375C203.675 251.543 203.795 252.263 204.035 253.535C204.251 254.687 204.359 255.431 204.359 255.767V255.803C204.359 256.331 204.167 256.667 203.783 256.811ZM201.407 249.899C201.335 249.539 201.299 249.095 201.299 248.567C201.299 246.407 201.107 243.647 200.723 240.287L200.363 236.543C199.331 242.183 198.623 246.443 198.239 249.323C198.599 249.563 199.655 249.755 201.407 249.899ZM221.956 258.359C221.212 258.359 220.84 257.615 220.84 256.127V253.823V251.519C220.84 250.319 220.756 248.747 220.588 246.803C220.396 244.619 220.3 243.119 220.3 242.303L220.372 240.071C220.42 239.423 220.444 238.691 220.444 237.875C220.348 238.187 219.952 239.843 219.256 242.843C218.56 245.747 217.84 248.435 217.096 250.907C216.376 253.283 215.788 254.471 215.332 254.471C214.876 254.471 214.504 254.339 214.216 254.075C213.952 253.787 213.82 253.403 213.82 252.923C213.82 251.867 213.388 249.623 212.524 246.191C211.684 242.759 210.916 239.951 210.22 237.767L210.004 241.835C209.812 245.267 209.68 248.123 209.608 250.403C209.56 252.611 209.536 254.123 209.536 254.939C209.536 255.131 209.548 255.311 209.572 255.479V255.983C209.572 256.391 209.488 256.691 209.32 256.883C209.152 257.099 208.84 257.207 208.384 257.207C208.144 257.207 207.916 257.111 207.7 256.919C207.484 256.751 207.376 256.559 207.376 256.343C207.376 253.895 207.556 250.223 207.916 245.327C208.276 240.431 208.456 236.759 208.456 234.311C208.312 234.095 208.24 233.867 208.24 233.627C208.24 233.339 208.372 233.123 208.636 232.979C208.924 232.811 209.26 232.727 209.644 232.727C209.956 232.727 210.532 233.855 211.372 236.111C212.212 238.367 213.052 240.923 213.892 243.779C214.732 246.635 215.272 248.699 215.512 249.971C215.704 249.323 215.86 248.723 215.98 248.171L216.196 247.307C216.964 243.947 217.732 240.911 218.5 238.199C218.956 236.543 219.4 235.247 219.832 234.311C220.264 233.303 220.66 232.799 221.02 232.799C221.356 232.799 221.656 232.895 221.92 233.087C222.208 233.255 222.352 233.483 222.352 233.771C222.352 235.499 222.424 238.091 222.568 241.547C222.736 244.763 222.82 247.259 222.82 249.035L222.784 250.943L222.712 252.851C222.712 253.139 222.748 253.571 222.82 254.147L222.928 255.407C222.952 255.623 222.964 255.791 222.964 255.911C222.988 256.031 223 256.103 223 256.127C223.12 256.439 223.18 256.667 223.18 256.811C223.18 257.219 223.06 257.579 222.82 257.891C222.58 258.203 222.292 258.359 221.956 258.359ZM242.136 258.359C241.392 258.359 241.02 257.615 241.02 256.127V253.823V251.519C241.02 250.319 240.936 248.747 240.768 246.803C240.576 244.619 240.48 243.119 240.48 242.303L240.552 240.071C240.6 239.423 240.624 238.691 240.624 237.875C240.528 238.187 240.132 239.843 239.436 242.843C238.74 245.747 238.02 248.435 237.276 250.907C236.556 253.283 235.968 254.471 235.512 254.471C235.056 254.471 234.684 254.339 234.396 254.075C234.132 253.787 234 253.403 234 252.923C234 251.867 233.568 249.623 232.704 246.191C231.864 242.759 231.096 239.951 230.4 237.767L230.184 241.835C229.992 245.267 229.86 248.123 229.788 250.403C229.74 252.611 229.716 254.123 229.716 254.939C229.716 255.131 229.728 255.311 229.752 255.479V255.983C229.752 256.391 229.668 256.691 229.5 256.883C229.332 257.099 229.02 257.207 228.564 257.207C228.324 257.207 228.096 257.111 227.88 256.919C227.664 256.751 227.556 256.559 227.556 256.343C227.556 253.895 227.736 250.223 228.096 245.327C228.456 240.431 228.636 236.759 228.636 234.311C228.492 234.095 228.42 233.867 228.42 233.627C228.42 233.339 228.552 233.123 228.816 232.979C229.104 232.811 229.44 232.727 229.824 232.727C230.136 232.727 230.712 233.855 231.552 236.111C232.392 238.367 233.232 240.923 234.072 243.779C234.912 246.635 235.452 248.699 235.692 249.971C235.884 249.323 236.04 248.723 236.16 248.171L236.376 247.307C237.144 243.947 237.912 240.911 238.68 238.199C239.136 236.543 239.58 235.247 240.012 234.311C240.444 233.303 240.84 232.799 241.2 232.799C241.536 232.799 241.836 232.895 242.1 233.087C242.388 233.255 242.532 233.483 242.532 233.771C242.532 235.499 242.604 238.091 242.748 241.547C242.916 244.763 243 247.259 243 249.035L242.964 250.943L242.892 252.851C242.892 253.139 242.928 253.571 243 254.147L243.108 255.407C243.132 255.623 243.144 255.791 243.144 255.911C243.168 256.031 243.18 256.103 243.18 256.127C243.3 256.439 243.36 256.667 243.36 256.811C243.36 257.219 243.24 257.579 243 257.891C242.76 258.203 242.472 258.359 242.136 258.359ZM254.9 256.811C254.348 256.811 253.94 256.727 253.676 256.559C253.412 256.391 253.28 256.079 253.28 255.623C253.28 254.903 253.16 253.679 252.92 251.951L252.776 251.195L249.212 250.655C249.068 251.207 248.864 252.323 248.6 254.003C248.456 255.179 248.228 255.959 247.916 256.343C247.748 256.559 247.508 256.667 247.196 256.667C246.908 256.667 246.644 256.583 246.404 256.415C246.164 256.223 246.044 255.995 246.044 255.731L246.116 255.551L246.152 255.407C247.736 249.239 248.936 243.155 249.752 237.155C249.752 237.059 249.764 236.903 249.788 236.687C249.812 236.447 249.836 236.111 249.86 235.679C249.932 234.791 250.004 234.083 250.076 233.555C250.172 233.027 250.316 232.631 250.508 232.367H251.732C252.068 232.367 252.356 232.451 252.596 232.619C252.836 232.763 252.956 232.979 252.956 233.267C252.956 235.091 253.208 237.803 253.712 241.403C254.192 245.099 254.432 247.691 254.432 249.179C254.432 249.323 254.492 249.695 254.612 250.295C254.732 250.847 254.792 251.207 254.792 251.375C254.792 251.543 254.912 252.263 255.152 253.535C255.368 254.687 255.476 255.431 255.476 255.767V255.803C255.476 256.331 255.284 256.667 254.9 256.811ZM252.524 249.899C252.452 249.539 252.416 249.095 252.416 248.567C252.416 246.407 252.224 243.647 251.84 240.287L251.48 236.543C250.448 242.183 249.74 246.443 249.356 249.323C249.716 249.563 250.772 249.755 252.524 249.899Z" fill="white"/>
<path fill-rule="evenodd" clip-rule="evenodd" d="M134.096 44.8607C143.013 35.9032 157.283 35.5088 166.448 43.5053L167.892 44.8512L173.582 50.5413C175.536 52.4866 178.1 53.686 180.827 53.9554L182.004 54.0134H190.143C202.84 54.0134 213.222 63.9422 213.947 76.4576L213.988 77.8584V85.9888C213.988 88.758 214.943 91.4202 216.665 93.537L217.45 94.4096L223.14 100.1C232.098 109.017 232.499 123.278 224.292 132.675L223.221 133.824L217.455 139.59C215.515 141.534 214.315 144.1 214.046 146.824L213.988 148V156.146C213.988 168.843 204.06 179.218 191.544 179.943L190.143 179.983H182.004C179.245 179.983 176.579 180.942 174.462 182.67L173.589 183.456L167.906 189.131C158.998 198.1 144.728 198.498 135.326 190.288L134.106 189.146L128.429 183.468C126.462 181.516 123.894 180.312 121.174 180.042L120.001 179.983H111.855C99.1633 179.983 88.7834 170.06 88.0582 157.547L88.0177 156.146V148C88.0177 145.245 87.0574 142.577 85.3309 140.463L84.5447 139.592L78.8674 133.907C69.9012 124.991 69.5035 110.721 77.7132 101.329L78.7843 100.181L84.5327 94.4245C86.4877 92.4556 87.6897 89.892 87.9596 87.1659L88.0177 85.9888V77.8584L88.0582 76.4577C88.7566 64.4072 98.4083 54.7525 110.455 54.0539L111.855 54.0134H120.001C122.76 54.0134 125.426 53.0564 127.54 51.3371L128.411 50.5541L134.096 44.8607ZM159.749 53.4882L159.433 53.195C155.045 48.8269 148.111 48.5711 143.414 52.4212L142.506 53.246L136.796 58.9638C132.701 63.0296 127.285 65.4607 121.568 65.8376L120.001 65.8892H111.855C105.62 65.8892 100.492 70.672 99.942 76.7701L99.893 77.8592V85.9896C99.893 91.7621 97.7982 97.3129 94.0197 101.652L92.9477 102.804L87.191 108.569C82.8225 112.957 82.5681 119.89 86.4287 124.593L87.2557 125.502L92.9498 131.204C97.0222 135.286 99.4628 140.712 99.8413 146.434L99.893 148.001V156.147C99.893 162.386 104.672 167.51 110.767 168.06L111.855 168.109H120.001C125.763 168.109 131.319 170.206 135.658 173.985L136.811 175.057L142.537 180.784C146.957 185.178 153.891 185.434 158.589 181.574L159.498 180.747L165.205 175.047C169.296 170.976 174.714 168.539 180.437 168.161L182.005 168.109H190.143C196.387 168.109 201.514 163.332 202.064 157.236L202.113 156.147V148.001C202.113 142.231 204.209 136.665 207.983 132.346L209.053 131.199L214.813 125.44C219.181 121.046 219.434 114.117 215.579 109.416L214.753 108.507L209.038 102.792C204.97 98.6948 202.541 93.2843 202.165 87.5583L202.113 85.9896V77.8592C202.113 71.6176 197.331 66.4887 191.232 65.9381L190.143 65.8892H182.005C176.232 65.8892 170.674 63.7961 166.345 60.0201L165.195 58.9489L159.749 53.4882ZM167.124 141.56C168.233 142.668 169.737 143.302 171.32 143.302C172.904 143.302 174.408 142.668 175.516 141.56C176.07 141.006 176.545 140.293 176.862 139.581C177.099 138.868 177.258 138.164 177.258 137.364C177.258 136.572 177.099 135.781 176.862 135.068C176.545 134.356 176.07 133.722 175.516 133.168C173.299 130.952 169.341 130.952 167.124 133.168C166.57 133.722 166.174 134.356 165.858 135.068C165.541 135.781 165.383 136.572 165.383 137.364C165.383 138.164 165.541 138.868 165.858 139.581C166.174 140.293 166.57 141.006 167.124 141.56ZM130.628 102.615C129.836 102.615 129.123 102.448 128.411 102.132C127.698 101.815 126.986 101.427 126.432 100.873C125.878 100.24 125.482 99.6062 125.165 98.8937C124.848 98.1733 124.69 97.4687 124.69 96.677C124.69 95.8775 124.848 95.0937 125.165 94.3812C125.482 93.6687 125.878 92.9562 126.432 92.4812C128.728 90.2566 132.607 90.2566 134.823 92.4812C135.932 93.5816 136.565 95.0937 136.565 96.677C136.565 97.4687 136.486 98.1733 136.169 98.8937C135.853 99.6062 135.378 100.24 134.823 100.873C134.269 101.427 133.636 101.815 132.923 102.132C132.211 102.448 131.419 102.615 130.628 102.615ZM175.545 92.4515C173.226 90.1327 169.466 90.1327 167.148 92.4515L126.456 133.143L125.881 133.809C124.157 136.134 124.348 139.432 126.456 141.54C128.775 143.859 132.534 143.859 134.853 141.54L175.545 100.848L176.12 100.182C177.844 97.858 177.653 94.5594 175.545 92.4515Z" fill="white"/>
</svg>
