<svg width="302" height="302" viewBox="0 0 302 302" fill="none" xmlns="http://www.w3.org/2000/svg">
<rect width="302" height="302" rx="50" fill="#346A2B"/>
<path d="M77.3286 249C76.5606 249 75.9846 248.94 75.6006 248.82C75.3606 248.748 75.1926 248.616 75.0966 248.424C75.0246 248.232 74.9886 247.968 74.9886 247.632C74.9646 247.128 74.9526 246.42 74.9526 245.508C74.9526 244.788 74.9766 243.804 75.0246 242.556L75.0606 239.676C75.0846 239.148 75.0966 238.368 75.0966 237.336C75.0966 236.568 75.0846 235.992 75.0606 235.608L74.9886 231.144C74.9886 228.84 74.9646 227.112 74.9166 225.96C74.8926 225.312 74.8806 224.352 74.8806 223.08C74.8806 222.624 74.9526 222.324 75.0966 222.18C75.2646 222.036 75.5886 221.952 76.0686 221.928L77.3286 221.892C78.3366 221.82 79.3206 221.784 80.2806 221.784C80.6406 221.784 80.9766 221.904 81.2886 222.144C81.4566 222.288 81.5406 222.48 81.5406 222.72C81.5406 222.984 81.4086 223.188 81.1446 223.332C80.7126 223.548 80.2926 223.656 79.8846 223.656C78.3246 223.656 77.4006 223.704 77.1126 223.8C76.8486 223.896 76.7166 224.136 76.7166 224.52C76.7166 224.88 76.7166 225.168 76.7166 225.384L76.7526 226.896C76.8006 228.24 76.8246 229.248 76.8246 229.92C76.8246 230.76 76.8126 231.396 76.7886 231.828C76.7646 231.972 76.7526 232.104 76.7526 232.224C76.7766 232.344 76.7886 232.452 76.7886 232.548C76.8126 232.716 76.8246 233.028 76.8246 233.484C78.0966 233.412 79.1046 233.676 79.8486 234.276C80.5686 234.876 81.1926 235.872 81.7206 237.264C82.2486 238.656 82.5126 240.108 82.5126 241.62C82.5126 242.076 82.5006 242.412 82.4766 242.628C82.3086 244.044 81.8766 245.292 81.1806 246.372C80.6286 247.164 80.0286 247.752 79.3806 248.136C79.2606 248.208 79.0686 248.328 78.8046 248.496C78.5406 248.64 78.2886 248.76 78.0486 248.856C77.8086 248.952 77.5686 249 77.3286 249ZM77.1126 246.876C77.9046 246.756 78.5766 246.42 79.1286 245.868C79.7046 245.316 80.0766 244.608 80.2446 243.744C80.4606 242.976 80.5686 242.112 80.5686 241.152C80.5686 240.072 80.4366 239.004 80.1726 237.948C80.0766 237.564 79.9206 237.192 79.7046 236.832C79.4886 236.472 79.2606 236.136 79.0206 235.824C78.8046 235.512 78.6486 235.284 78.5526 235.14C78.2886 235.044 78.0246 234.996 77.7606 234.996L76.8606 235.032C76.9086 236.52 76.9566 238.776 77.0046 241.8L77.1126 246.876ZM89.7928 249.684C89.1688 249.684 88.5928 249.48 88.0648 249.072C87.5368 248.688 87.1048 248.16 86.7688 247.488C86.0728 246.024 85.6408 244.428 85.4728 242.7C85.2568 241.068 85.1488 239.496 85.1488 237.984C85.1488 237.696 85.1608 237.456 85.1848 237.264V236.616C85.1848 236.496 85.1728 236.436 85.1488 236.436V235.788L85.1848 233.268C85.2088 232.5 85.3048 231.276 85.4728 229.596C85.5928 228.444 85.8688 227.328 86.3008 226.248C86.4688 225.768 86.6848 225.408 86.9488 225.168C87.2128 224.904 87.5128 224.772 87.8488 224.772C88.8088 224.772 89.6728 224.952 90.4408 225.312C91.2088 225.648 91.8568 226.128 92.3848 226.752C92.8648 227.352 93.2728 228.096 93.6088 228.984C93.9448 229.848 94.1848 230.772 94.3288 231.756C94.4728 232.764 94.5448 233.832 94.5448 234.96V235.248C94.5448 235.992 94.5568 236.664 94.5808 237.264L94.6168 239.316C94.6168 246.228 93.0088 249.684 89.7928 249.684ZM89.6488 248.172C90.0808 248.172 90.4768 248.004 90.8368 247.668C91.1968 247.308 91.4728 246.828 91.6648 246.228C92.1208 245.004 92.3968 243.684 92.4928 242.268C92.6128 241.044 92.6728 239.988 92.6728 239.1C92.6728 238.02 92.5888 236.604 92.4208 234.852C92.2768 233.004 92.2048 231.624 92.2048 230.712V230.064C92.1568 229.152 91.8448 228.36 91.2688 227.688C90.7168 227.016 90.0328 226.68 89.2168 226.68C88.4008 226.68 87.8608 227.148 87.5968 228.084C87.3568 228.828 87.2368 229.788 87.2368 230.964C87.2368 231.42 87.2488 231.804 87.2728 232.116V233.088L87.2008 234.744C87.1528 235.248 87.1288 235.8 87.1288 236.4C87.1288 237.696 87.1648 238.98 87.2368 240.252C87.3328 242.052 87.5728 243.804 87.9568 245.508C88.3408 247.284 88.9048 248.172 89.6488 248.172ZM96.86 249.792C96.668 249.792 96.5 249.732 96.356 249.612C96.212 249.492 96.104 249.336 96.032 249.144C96.008 249.096 95.996 249.024 95.996 248.928C95.996 248.616 96.164 248.364 96.5 248.172C97.172 247.884 97.676 247.452 98.012 246.876C98.372 246.276 98.624 245.58 98.768 244.788C99.2 242.436 99.416 239.88 99.416 237.12C99.416 236.088 99.404 235.308 99.38 234.78C99.212 230.724 99.068 227.868 98.948 226.212V226.068C98.948 225.852 98.996 225.684 99.092 225.564C99.188 225.444 99.356 225.36 99.596 225.312C101.132 225.024 102.356 224.88 103.268 224.88C103.748 224.88 104.108 224.892 104.348 224.916C104.9 224.94 105.32 225.108 105.608 225.42C105.896 225.732 106.04 226.164 106.04 226.716L106.076 228.624C106.124 230.304 106.148 231.564 106.148 232.404L106.112 234.132C106.112 236.676 106.208 239.892 106.4 243.78C106.496 245.532 106.58 246.888 106.652 247.848C106.676 248.28 106.604 248.592 106.436 248.784C106.292 248.976 106.04 249.096 105.68 249.144C104.888 249.192 104.468 248.82 104.42 248.028C104.492 247.332 104.528 246.636 104.528 245.94C104.528 245.244 104.516 244.668 104.492 244.212L104.456 240.108C104.456 238.116 104.42 236.076 104.348 233.988C104.3 232.26 104.228 230.628 104.132 229.092C104.036 227.556 103.94 226.62 103.844 226.284C103.7 226.308 103.4 226.368 102.944 226.464C102.488 226.56 101.864 226.644 101.072 226.716C101 227.82 100.964 228.612 100.964 229.092C100.964 229.644 101 230.124 101.072 230.532C101.12 231.18 101.168 232.128 101.216 233.376V234.168C101.216 238.056 101.18 240.684 101.108 242.052C101.06 242.436 101.036 242.736 101.036 242.952C100.94 243.96 100.844 244.728 100.748 245.256C100.508 246.528 99.776 247.824 98.552 249.144C98.216 249.528 97.676 249.744 96.932 249.792H96.86ZM111.966 248.856C111.486 248.832 111.21 248.58 111.138 248.1L111.246 239.1V236.328V231C111.246 228.648 111.258 226.884 111.282 225.708C111.282 225.564 111.354 225.432 111.498 225.312C111.666 225.192 111.87 225.132 112.11 225.132C112.302 225.132 112.494 225.192 112.686 225.312C112.878 225.432 113.022 225.588 113.118 225.78C113.334 226.164 113.442 226.728 113.442 227.472C113.442 228 113.358 228.828 113.19 229.956C113.118 230.46 113.07 231.012 113.046 231.612C113.022 232.212 113.01 232.608 113.01 232.8C112.962 233.136 112.902 233.676 112.83 234.42C112.782 235.164 112.782 235.524 112.83 235.5C113.19 235.452 113.634 235.536 114.162 235.752C114.57 235.896 114.81 235.968 114.882 235.968C115.938 236.16 116.742 236.796 117.294 237.876C117.87 238.932 118.206 240.024 118.302 241.152C118.326 241.416 118.338 241.8 118.338 242.304C118.338 243.504 118.23 244.536 118.014 245.4C117.774 247.08 116.766 248.232 114.99 248.856C114.702 248.952 114.33 249 113.874 249C113.538 249 113.166 248.988 112.758 248.964C112.374 248.916 112.11 248.88 111.966 248.856ZM113.154 247.416C113.418 247.488 113.658 247.524 113.874 247.524C114.354 247.524 114.762 247.392 115.098 247.128C115.434 246.84 115.65 246.468 115.746 246.012C115.866 245.46 115.998 244.632 116.142 243.528C116.19 243 116.238 242.58 116.286 242.268C116.31 242.124 116.322 241.908 116.322 241.62C116.322 240.612 116.13 239.688 115.746 238.848C115.362 237.984 114.81 237.504 114.09 237.408C113.586 237.312 113.214 237.252 112.974 237.228L113.154 247.416ZM125.357 249.288C124.709 249.288 123.989 249.204 123.197 249.036C122.909 248.964 122.717 248.82 122.621 248.604C122.549 248.388 122.513 248.124 122.513 247.812C122.441 246.324 122.381 244.08 122.333 241.08V238.812C122.333 237.3 122.309 236.16 122.261 235.392C122.237 235.104 122.093 232.968 121.829 228.984L121.649 226.068C121.649 225.78 121.697 225.588 121.793 225.492C121.889 225.372 122.057 225.312 122.297 225.312C123.137 225.312 123.605 225.66 123.701 226.356C123.893 227.58 124.025 228.708 124.097 229.74C124.193 231.612 124.241 233.028 124.241 233.988L124.205 236.904C124.157 238.248 124.133 239.232 124.133 239.856C124.133 241.584 124.217 243.672 124.385 246.12L124.457 247.524C124.457 247.596 124.481 247.692 124.529 247.812C124.601 247.812 125.033 247.824 125.825 247.848C126.617 247.848 127.013 247.776 127.013 247.632C127.037 247.296 127.037 246.996 127.013 246.732C127.013 246.468 127.013 246.24 127.013 246.048C126.989 245.808 126.977 245.46 126.977 245.004C126.977 242.604 126.965 240.804 126.941 239.604L126.833 235.536C126.737 232.512 126.689 230.268 126.689 228.804C126.689 227.772 126.725 226.776 126.797 225.816C126.821 225.504 126.893 225.3 127.013 225.204C127.157 225.084 127.397 225.048 127.733 225.096C128.213 225.168 128.513 225.288 128.633 225.456C128.777 225.624 128.837 225.936 128.813 226.392C128.669 227.808 128.597 229.572 128.597 231.684L128.633 234.888C128.657 235.584 128.669 236.628 128.669 238.02C128.621 240.372 128.597 242.112 128.597 243.24C128.645 244.344 128.693 245.196 128.741 245.796L128.849 247.596H132.089V246.228L132.125 240.468C132.125 239.196 132.113 238.236 132.089 237.588C132.065 236.556 132.029 235.356 131.981 233.988C131.933 232.596 131.897 231.54 131.873 230.82L131.765 227.364C131.765 226.572 131.777 225.972 131.801 225.564C131.825 225.324 131.885 225.168 131.981 225.096C132.077 225 132.269 224.952 132.557 224.952C133.013 224.976 133.337 225.096 133.529 225.312C133.721 225.528 133.805 225.864 133.781 226.32L133.817 230.964L133.853 231.864C133.901 232.68 133.925 233.28 133.925 233.664C133.925 234.192 133.913 234.648 133.889 235.032C133.865 235.416 133.841 235.728 133.817 235.968C133.721 237.024 133.673 237.816 133.673 238.344L133.709 239.28C133.757 239.712 133.781 240.036 133.781 240.252C133.805 240.636 133.805 240.984 133.781 241.296C133.781 241.584 133.781 241.824 133.781 242.016V243.78C133.781 244.284 133.793 244.728 133.817 245.112C133.841 245.496 133.865 245.82 133.889 246.084L133.961 246.876C133.961 246.972 133.985 247.092 134.033 247.236C134.105 247.38 134.153 247.488 134.177 247.56C134.273 247.8 134.321 247.98 134.321 248.1C134.321 248.484 134.093 248.736 133.637 248.856C133.157 248.976 132.557 249.036 131.837 249.036L127.409 249.108C127.073 249.108 126.737 249.144 126.401 249.216C125.921 249.264 125.573 249.288 125.357 249.288ZM142.844 249.684C142.22 249.684 141.644 249.48 141.116 249.072C140.588 248.688 140.156 248.16 139.82 247.488C139.124 246.024 138.692 244.428 138.524 242.7C138.308 241.068 138.2 239.496 138.2 237.984C138.2 237.696 138.212 237.456 138.236 237.264V236.616C138.236 236.496 138.224 236.436 138.2 236.436V235.788L138.236 233.268C138.26 232.5 138.356 231.276 138.524 229.596C138.644 228.444 138.92 227.328 139.352 226.248C139.52 225.768 139.736 225.408 140 225.168C140.264 224.904 140.564 224.772 140.9 224.772C141.86 224.772 142.724 224.952 143.492 225.312C144.26 225.648 144.908 226.128 145.436 226.752C145.916 227.352 146.324 228.096 146.66 228.984C146.996 229.848 147.236 230.772 147.38 231.756C147.524 232.764 147.596 233.832 147.596 234.96V235.248C147.596 235.992 147.608 236.664 147.632 237.264L147.668 239.316C147.668 246.228 146.06 249.684 142.844 249.684ZM142.7 248.172C143.132 248.172 143.528 248.004 143.888 247.668C144.248 247.308 144.524 246.828 144.716 246.228C145.172 245.004 145.448 243.684 145.544 242.268C145.664 241.044 145.724 239.988 145.724 239.1C145.724 238.02 145.64 236.604 145.472 234.852C145.328 233.004 145.256 231.624 145.256 230.712V230.064C145.208 229.152 144.896 228.36 144.32 227.688C143.768 227.016 143.084 226.68 142.268 226.68C141.452 226.68 140.912 227.148 140.648 228.084C140.408 228.828 140.288 229.788 140.288 230.964C140.288 231.42 140.3 231.804 140.324 232.116V233.088L140.252 234.744C140.204 235.248 140.18 235.8 140.18 236.4C140.18 237.696 140.216 238.98 140.288 240.252C140.384 242.052 140.624 243.804 141.008 245.508C141.392 247.284 141.956 248.172 142.7 248.172ZM152.756 248.928C152.444 248.832 152.276 248.628 152.252 248.316V247.776C152.204 246.768 152.156 245.256 152.108 243.24C152.012 241.488 151.952 240.144 151.928 239.208C151.856 237.744 151.772 235.548 151.676 232.62C151.652 232.116 151.628 231.42 151.604 230.532C151.58 229.644 151.568 228.972 151.568 228.516C151.544 228.252 151.532 227.88 151.532 227.4C151.532 226.848 151.556 226.44 151.604 226.176C151.7 225.432 152.108 225.084 152.828 225.132C153.5 225.132 153.86 225.516 153.908 226.284V226.716L153.872 235.788V240.072V242.232C153.872 242.568 153.896 242.964 153.944 243.42C153.992 243.852 154.028 244.164 154.052 244.356C154.172 243.66 154.364 242.952 154.628 242.232C154.916 241.488 155.096 241.032 155.168 240.864C155.528 240 155.792 239.292 155.96 238.74C156.536 236.892 157.28 234.624 158.192 231.936C158.384 231.384 158.6 230.712 158.84 229.92C159.488 227.88 159.932 226.56 160.172 225.96C160.388 225.384 160.712 225.024 161.144 224.88C161.36 224.808 161.576 224.772 161.792 224.772C162.128 224.772 162.476 224.88 162.836 225.096V226.824C162.836 228.624 162.872 230.484 162.944 232.404C162.968 232.812 162.98 233.424 162.98 234.24V235.284C162.98 235.5 162.968 235.788 162.944 236.148C162.944 236.508 162.956 236.928 162.98 237.408L163.088 247.128C163.088 247.488 163.004 247.884 162.836 248.316C162.764 248.508 162.644 248.664 162.476 248.784C162.308 248.88 162.128 248.928 161.936 248.928C161.264 248.928 160.928 248.616 160.928 247.992C160.928 247.272 160.964 246.576 161.036 245.904C161.084 244.992 161.108 244.296 161.108 243.816C161.06 239.064 161 235.512 160.928 233.16C160.928 232.8 160.88 232.212 160.784 231.396L160.676 230.1C160.46 230.34 160.34 230.496 160.316 230.568L159.74 232.332C159.356 233.58 159.056 234.504 158.84 235.104L155.708 243.816L154.088 248.244C153.896 248.748 153.608 249 153.224 249C153.152 249 152.996 248.976 152.756 248.928ZM156.392 222.972C155.816 222.972 155.264 222.744 154.736 222.288C154.232 221.832 153.98 221.328 153.98 220.776C153.98 220.536 154.052 220.344 154.196 220.2C154.34 220.056 154.544 219.972 154.808 219.948C155.12 219.924 155.384 219.948 155.6 220.02C155.84 220.068 156.056 220.212 156.248 220.452C156.464 220.716 156.692 220.848 156.932 220.848C157.196 220.848 157.448 220.668 157.688 220.308C157.784 220.14 157.868 219.996 157.94 219.876C158.012 219.732 158.072 219.612 158.12 219.516C158.384 219.06 158.696 218.832 159.056 218.832C159.104 218.832 159.2 218.856 159.344 218.904C159.536 219 159.692 219.144 159.812 219.336C159.932 219.504 159.992 219.696 159.992 219.912C159.992 220.056 159.956 220.2 159.884 220.344C159.86 220.416 159.836 220.488 159.812 220.56C159.788 220.608 159.764 220.656 159.74 220.704C159.476 221.544 159.056 222.132 158.48 222.468C157.928 222.804 157.232 222.972 156.392 222.972ZM175.043 249.36C174.515 249.36 174.191 249.132 174.071 248.676C173.975 248.388 173.927 247.98 173.927 247.452C173.927 246.42 173.975 245.148 174.071 243.636C174.191 242.196 174.251 240.912 174.251 239.784C174.251 238.512 174.287 236.604 174.359 234.06L174.431 228.372C174.431 228.156 174.395 227.832 174.323 227.4L174.215 226.5V226.32C174.215 225.768 174.299 225.36 174.467 225.096C174.635 224.832 174.947 224.7 175.403 224.7C176.027 224.7 176.711 224.88 177.455 225.24C178.199 225.6 178.739 226.056 179.075 226.608C179.771 227.76 180.119 229.2 180.119 230.928C180.119 232.224 180.011 233.316 179.795 234.204C179.579 235.068 179.207 235.872 178.679 236.616C179.327 237.24 179.759 238.044 179.975 239.028C180.215 239.988 180.335 241.2 180.335 242.664C180.335 244.128 180.083 245.4 179.579 246.48C179.003 247.704 178.163 248.544 177.059 249C176.387 249.24 175.715 249.36 175.043 249.36ZM176.195 235.572C177.443 235.548 178.067 234.096 178.067 231.216C178.067 228.12 177.575 226.5 176.591 226.356C176.327 226.908 176.195 228.204 176.195 230.244V235.572ZM175.979 247.524C176.747 247.356 177.347 246.9 177.779 246.156C178.211 245.412 178.427 244.56 178.427 243.6C178.427 242.592 178.367 241.704 178.247 240.936C178.151 240.336 178.019 239.844 177.851 239.46C177.707 239.052 177.503 238.68 177.239 238.344C176.951 237.984 176.615 237.768 176.231 237.696C176.135 239.064 176.087 240.876 176.087 243.132C176.087 243.276 176.063 243.732 176.015 244.5L175.943 245.724C175.943 245.772 175.955 245.808 175.979 245.832V245.904V247.524ZM193.912 249.36C193.216 249.36 192.868 249.096 192.868 248.568C192.868 248.448 192.868 248.196 192.868 247.812C192.868 247.428 192.892 247.068 192.94 246.732C193.036 245.868 193.084 244.848 193.084 243.672C193.084 242.544 193.036 241.02 192.94 239.1C192.892 238.02 192.844 236.352 192.796 234.096L192.688 229.704L192.652 228.192L192.616 225.492C192.616 225.108 192.832 224.892 193.264 224.844C193.696 224.82 194.056 224.94 194.344 225.204C194.632 225.468 194.776 225.804 194.776 226.212C194.776 226.812 194.752 227.76 194.704 229.056L194.596 238.308C194.572 238.62 194.56 239.04 194.56 239.568C194.584 240.096 194.596 240.612 194.596 241.116V243.276V244.572C194.548 246.084 194.608 247.344 194.776 248.352C194.824 248.688 194.764 248.94 194.596 249.108C194.452 249.276 194.224 249.36 193.912 249.36ZM185.452 249.36C185.116 249.36 184.816 249.312 184.552 249.216C184.288 249.12 184.168 248.88 184.192 248.496C184.24 247.944 184.276 247.26 184.3 246.444C184.324 245.628 184.336 245.064 184.336 244.752C184.336 243.384 184.372 241.944 184.444 240.432C184.492 239.856 184.516 238.944 184.516 237.696C184.516 237 184.504 236.172 184.48 235.212C184.456 234.252 184.432 233.532 184.408 233.052C184.384 232.644 184.36 232.164 184.336 231.612C184.312 231.06 184.3 230.448 184.3 229.776C184.252 228.96 184.228 228.324 184.228 227.868L184.192 226.932C184.192 226.812 184.192 226.572 184.192 226.212C184.192 225.828 184.252 225.528 184.372 225.312C184.516 225.096 184.756 224.988 185.092 224.988C185.404 224.988 185.668 225.12 185.884 225.384C186.1 225.624 186.208 225.912 186.208 226.248C186.208 226.512 186.232 226.956 186.28 227.58C186.328 228.684 186.352 229.56 186.352 230.208C186.352 231 186.292 231.78 186.172 232.548C186.124 232.692 186.1 232.932 186.1 233.268C186.1 233.556 186.124 233.964 186.172 234.492C186.364 234.564 186.772 234.72 187.396 234.96C188.02 235.176 188.56 235.44 189.016 235.752C189.472 236.04 189.832 236.376 190.096 236.76C190.912 238.08 191.32 239.22 191.32 240.18C191.32 241.668 191.212 243.324 190.996 245.148C190.876 246.228 190.528 247.032 189.952 247.56C189.376 248.088 188.536 248.544 187.432 248.928C187.144 249.024 186.796 249.108 186.388 249.18C185.98 249.252 185.668 249.312 185.452 249.36ZM186.172 247.416C186.46 247.464 186.676 247.488 186.82 247.488C187.3 247.488 187.696 247.32 188.008 246.984C188.848 246.168 189.268 245.196 189.268 244.068C189.316 242.964 189.34 241.968 189.34 241.08C189.34 239.496 189.22 238.476 188.98 238.02C188.812 237.492 188.476 237.048 187.972 236.688C187.468 236.328 186.892 236.076 186.244 235.932C186.076 237.636 185.992 239.544 185.992 241.656C185.992 243.456 186.052 245.376 186.172 247.416ZM200.504 249C199.736 249.048 199.376 248.664 199.424 247.848L199.46 245.364C199.484 244.836 199.496 244.02 199.496 242.916V240.252C199.496 239.076 199.484 238.188 199.46 237.588C199.436 236.82 199.424 235.68 199.424 234.168V230.784V229.884C199.424 229.236 199.4 228.696 199.352 228.264C199.328 227.832 199.244 227.376 199.1 226.896C199.052 226.704 199.028 226.56 199.028 226.464C199.028 226.056 199.172 225.696 199.46 225.384C199.772 225.072 200.156 224.904 200.612 224.88C201.26 224.856 201.884 224.82 202.484 224.772C203.108 224.724 203.708 224.64 204.284 224.52C204.5 224.424 204.74 224.484 205.004 224.7C205.268 224.892 205.424 225.108 205.472 225.348C205.52 225.54 205.472 225.732 205.328 225.924C205.184 226.092 204.992 226.212 204.752 226.284C204.248 226.428 203.156 226.596 201.476 226.788L201.152 235.68C202.256 235.8 203.108 236.112 203.708 236.616C204.308 237.12 204.716 237.996 204.932 239.244C205.196 240.228 205.328 241.284 205.328 242.412C205.328 243.132 205.256 243.876 205.112 244.644C204.776 246.204 203.972 247.356 202.7 248.1C202.556 248.196 202.34 248.328 202.052 248.496C201.788 248.664 201.524 248.796 201.26 248.892C201.02 248.964 200.768 249 200.504 249ZM201.224 247.056C201.704 246.912 202.136 246.624 202.52 246.192C202.904 245.76 203.156 245.292 203.276 244.788C203.492 243.852 203.6 242.94 203.6 242.052C203.6 241.116 203.492 240.204 203.276 239.316C203.132 238.74 202.904 238.296 202.592 237.984C202.304 237.648 201.848 237.468 201.224 237.444V247.056ZM213.086 249.684C212.462 249.684 211.886 249.48 211.358 249.072C210.83 248.688 210.398 248.16 210.062 247.488C209.366 246.024 208.934 244.428 208.766 242.7C208.55 241.068 208.442 239.496 208.442 237.984C208.442 237.696 208.454 237.456 208.478 237.264V236.616C208.478 236.496 208.466 236.436 208.442 236.436V235.788L208.478 233.268C208.502 232.5 208.598 231.276 208.766 229.596C208.886 228.444 209.162 227.328 209.594 226.248C209.762 225.768 209.978 225.408 210.242 225.168C210.506 224.904 210.806 224.772 211.142 224.772C212.102 224.772 212.966 224.952 213.734 225.312C214.502 225.648 215.15 226.128 215.678 226.752C216.158 227.352 216.566 228.096 216.902 228.984C217.238 229.848 217.478 230.772 217.622 231.756C217.766 232.764 217.838 233.832 217.838 234.96V235.248C217.838 235.992 217.85 236.664 217.874 237.264L217.91 239.316C217.91 246.228 216.302 249.684 213.086 249.684ZM212.942 248.172C213.374 248.172 213.77 248.004 214.13 247.668C214.49 247.308 214.766 246.828 214.958 246.228C215.414 245.004 215.69 243.684 215.786 242.268C215.906 241.044 215.966 239.988 215.966 239.1C215.966 238.02 215.882 236.604 215.714 234.852C215.57 233.004 215.498 231.624 215.498 230.712V230.064C215.45 229.152 215.138 228.36 214.562 227.688C214.01 227.016 213.326 226.68 212.51 226.68C211.694 226.68 211.154 227.148 210.89 228.084C210.65 228.828 210.53 229.788 210.53 230.964C210.53 231.42 210.542 231.804 210.566 232.116V233.088L210.494 234.744C210.446 235.248 210.422 235.8 210.422 236.4C210.422 237.696 210.458 238.98 210.53 240.252C210.626 242.052 210.866 243.804 211.25 245.508C211.634 247.284 212.198 248.172 212.942 248.172ZM222.638 249.252C222.326 247.98 222.17 246.216 222.17 243.96L222.242 240.756C222.29 239.796 222.314 238.728 222.314 237.552C222.17 237.216 222.098 236.916 222.098 236.652V236.544C222.338 236.088 222.458 235.056 222.458 233.448L222.494 231.792C222.518 231.264 222.53 230.676 222.53 230.028C222.53 228.612 222.434 227.496 222.242 226.68C222.314 226.344 222.434 226.056 222.602 225.816C222.77 225.552 222.974 225.42 223.214 225.42H224.798C225.47 225.42 226.058 225.576 226.562 225.888C227.066 226.176 227.45 226.596 227.714 227.148C228.194 228.132 228.434 229.296 228.434 230.64C228.434 231.6 228.422 232.356 228.398 232.908C228.35 233.604 228.23 234.24 228.038 234.816C227.966 235.128 227.858 235.392 227.714 235.608C227.594 235.8 227.414 236.04 227.174 236.328C226.838 236.736 226.286 237.12 225.518 237.48C225.206 237.648 224.798 237.804 224.294 237.948V241.8L224.366 244.104L224.438 245.22C224.534 246.564 224.582 247.704 224.582 248.64C224.582 248.928 224.462 249.168 224.222 249.36C223.982 249.576 223.706 249.684 223.394 249.684L222.638 249.252ZM224.33 236.472C225.746 236.256 226.454 234.228 226.454 230.388C226.454 229.692 226.418 229.152 226.346 228.768C226.274 228.48 226.178 228.252 226.058 228.084C225.938 227.892 225.758 227.736 225.518 227.616C225.254 227.472 224.966 227.4 224.654 227.4C224.654 227.376 224.522 227.364 224.258 227.364V229.416C224.258 230.832 224.27 232.092 224.294 233.196C224.294 234.444 224.306 235.26 224.33 235.644V236.4V236.472Z" fill="white"/>
<path d="M171.024 86.0004L171.024 86.0002L171.667 85.2131C171.922 84.9009 172.195 84.5989 172.479 84.3148C176.303 80.4908 182.094 79.815 186.617 82.278C191.524 76.469 194.198 69.1918 194.198 61.4977C194.198 59.7034 195.653 58.2488 197.447 58.2488C199.241 58.2488 200.696 59.7034 200.696 61.4977C200.696 67.4669 199.355 73.232 196.815 78.4475L208.889 66.3732C210.158 65.1042 212.215 65.1043 213.484 66.3731C214.753 67.6419 214.753 69.6988 213.484 70.9676L212.777 70.2605L213.484 70.9676L201.409 83.0421C206.625 80.5024 212.39 79.1609 218.359 79.1609C220.153 79.1609 221.608 80.6155 221.608 82.4098C221.608 84.2041 220.153 85.6588 218.359 85.6588C210.665 85.6588 203.388 88.3332 197.579 93.2402C200.042 97.7626 199.366 103.554 195.542 107.378L195.542 107.378C195.258 107.662 194.956 107.935 194.643 108.19L194.643 108.19L179.772 120.33C179.169 120.822 178.44 121.062 177.719 121.062C176.779 121.062 175.843 120.655 175.201 119.868L175.201 119.868C174.066 118.478 174.273 116.431 175.663 115.296L175.663 115.296L190.534 103.157L171.024 86.0004ZM171.024 86.0004L146.732 115.759C146.732 115.759 146.732 115.759 146.732 115.759C145.598 117.148 145.804 119.195 147.194 120.33L147.194 120.33C147.797 120.822 148.525 121.062 149.248 121.062C150.187 121.062 151.123 120.655 151.766 119.868L151.683 119.8C151.766 119.868 151.766 119.868 151.766 119.867L151.767 119.866L151.77 119.862L151.783 119.846L151.836 119.781L152.042 119.529L152.823 118.573L155.612 115.155L164.101 104.757C170.269 97.2007 176.479 89.593 176.693 89.3309L176.693 89.331L176.695 89.3285L176.7 89.323C176.816 89.1799 176.943 89.0405 177.073 88.9093C179.188 86.7948 182.632 86.7948 184.746 88.9093C184.746 88.9093 184.746 88.9093 184.747 88.9093L190.947 95.1101C193.062 97.2248 193.062 100.668 190.947 102.783L171.024 86.0004ZM190.947 102.783C190.817 102.914 190.678 103.04 190.534 103.157L190.947 102.783Z" fill="white" stroke="white" stroke-width="2"/>
<g clip-path="url(#clip0)">
<path fill-rule="evenodd" clip-rule="evenodd" d="M83.5993 115.993H95.0338H104.771C107.424 115.993 108.408 115.993 111.719 115.993H113.247H174.263C186.013 115.993 181.769 115.993 182.981 115.993C186.013 115.993 190.257 115.993 191.469 115.993L192.476 115.993H203.413H203.558H213.829C216.133 115.993 218.012 117.67 218.012 119.726V125.493C218.012 127.224 216.133 128.739 213.829 128.739L204.941 133.987L200.369 185.414C200.248 186.831 199.06 188 197.471 188H89.5409C87.9524 188 86.7641 186.831 86.6428 185.414L82.0715 133.987L73.1834 128.739C70.8795 128.739 69 126.467 69 124.411V119.726C69 117.67 70.8795 115.993 73.1834 115.993H83.4538H83.5993ZM156.911 130.254H188.438V152.543V177.97H156.911V130.254ZM137.449 130.254H150.666V177.97H137.449V130.254ZM100.527 130.254H131.447V177.97H100.527V152.543V130.254Z" fill="white"/>
<line x1="116.215" y1="179.061" x2="116.215" y2="128.198" stroke="white" stroke-width="5"/>
<line x1="173.206" y1="180.143" x2="173.206" y2="129.28" stroke="white" stroke-width="5"/>
</g>
<path d="M93 133V133C93.0004 134.794 94.4545 136.249 96.2492 136.249C98.0435 136.249 99.4982 134.794 99.4982 133V79.5019H129.424V122C129.424 122.743 129.655 124.276 130.034 125.613C130.225 126.285 130.472 126.977 130.784 127.522C130.939 127.794 131.137 128.076 131.391 128.301C131.648 128.529 132.023 128.749 132.5 128.749C132.683 128.749 132.822 128.753 132.972 128.758C133.095 128.762 133.225 128.765 133.391 128.767C133.688 128.771 134.044 128.765 134.383 128.693C134.729 128.621 135.152 128.46 135.478 128.079C135.809 127.692 135.922 127.215 135.922 126.749V77.2931L143.382 66.8382L147.781 73.0037H143.724C141.929 73.0037 140.475 74.4584 140.475 76.2527C140.475 78.047 141.929 79.5016 143.724 79.5016H150.841V105.423C150.841 107.217 152.296 108.672 154.09 108.672C155.884 108.672 157.339 107.217 157.339 105.423V76.253C157.339 75.5763 157.128 74.9165 156.735 74.366C156.735 74.366 156.735 74.3659 156.735 74.3659L146.63 60.2046V52.249C146.63 50.4547 145.176 49.0001 143.382 49.0001H106.958C105.163 49.0001 103.709 50.4547 103.709 52.249V60.2043L93.6043 74.3659C93.6043 74.3659 93.6043 74.366 93.6043 74.366C93.2114 74.9165 93 75.5763 93 76.253V133ZM110.207 55.498H140.133V57.9958H110.207V55.498ZM102.558 73.004L108.631 64.4937H137.072L131 73.004H102.558Z" fill="white" stroke="white" stroke-width="2"/>
<defs>
<clipPath id="clip0">
<rect width="149" height="102" fill="white" transform="translate(69 86)"/>
</clipPath>
</defs>
</svg>
