<svg width="302" height="302" viewBox="0 0 302 302" fill="none" xmlns="http://www.w3.org/2000/svg">
<rect width="302" height="302" rx="50" fill="#346A2B"/>
<path d="M34.4124 242.098C34.1964 242.098 33.9804 241.978 33.7644 241.738C33.5724 241.522 33.4764 241.27 33.4764 240.982C33.4764 240.574 33.5484 239.434 33.6924 237.562C33.1644 237.418 32.6364 237.346 32.1084 237.346C31.6044 237.346 30.8964 237.406 29.9844 237.526L29.1204 237.634C27.3684 237.826 25.9884 237.958 24.9804 238.03C24.8844 238.03 24.2484 238.066 23.0724 238.138C23.0724 238.378 23.0724 238.726 23.0724 239.182C23.0964 239.638 23.0964 240.01 23.0724 240.298C23.0484 240.61 22.9524 240.862 22.7844 241.054C22.6404 241.246 22.4604 241.342 22.2444 241.342C22.1244 241.342 21.9684 241.294 21.7764 241.198C21.5844 241.03 21.3804 240.706 21.1644 240.226C21.1164 240.082 21.0924 239.566 21.0924 238.678L21.0564 237.706C21.0324 237.514 21.1284 237.31 21.3444 237.094C21.5604 236.854 21.8604 236.722 22.2444 236.698C23.3244 236.626 24.0204 236.014 24.3324 234.862C24.5004 234.31 24.6564 233.65 24.8004 232.882C24.9444 232.09 25.0404 231.394 25.0884 230.794C25.4244 227.626 25.5924 225.202 25.5924 223.522C25.5924 222.946 25.5684 222.106 25.5204 221.002C25.4724 220.234 25.4484 219.67 25.4484 219.31C25.4484 218.302 25.4364 217.546 25.4124 217.042C25.4124 215.002 25.3884 213.706 25.3404 213.154C25.2924 212.674 25.3764 212.278 25.5924 211.966C25.8084 211.63 26.1444 211.438 26.6004 211.39C27.7524 211.27 28.4484 211.21 28.6884 211.21C29.1924 211.21 29.6364 211.27 30.0204 211.39C30.1884 211.438 30.3324 211.462 30.4524 211.462C30.5964 211.462 30.7044 211.474 30.7764 211.498C31.2324 211.546 31.5444 211.642 31.7124 211.786C31.9044 211.93 32.0004 212.278 32.0004 212.83L31.9644 215.314C31.9644 215.866 31.9764 216.274 32.0004 216.538C32.0724 219.154 32.2044 223.186 32.3964 228.634L32.4324 229.606C32.4804 230.83 32.5404 232.078 32.6124 233.35C32.6844 234.598 32.7804 235.474 32.9004 235.978C33.7884 235.978 34.4604 236.038 34.9164 236.158C35.3964 236.278 35.6364 236.578 35.6364 237.058C35.6364 237.178 35.6244 237.274 35.6004 237.346C35.5284 237.826 35.4564 238.354 35.3844 238.93C35.3124 239.506 35.2644 239.998 35.2404 240.406C35.2164 240.526 35.2044 240.754 35.2044 241.09C35.2044 241.426 35.1444 241.678 35.0244 241.846C34.9284 242.014 34.7244 242.098 34.4124 242.098ZM25.7724 236.41C26.8284 236.314 27.6924 236.254 28.3644 236.23L30.9204 236.05C30.9684 235.522 30.9924 235.138 30.9924 234.898C30.9924 234.562 30.9684 233.986 30.9204 233.17C30.9204 233.002 30.8964 232.726 30.8484 232.342C30.8244 231.958 30.8124 231.61 30.8124 231.298L30.5604 225.574V222.01L30.1284 213.73C30.1284 213.346 30.0924 213.046 30.0204 212.83C29.7564 212.71 29.3244 212.65 28.7244 212.65C28.1964 212.65 27.6924 212.686 27.2124 212.758V218.41V221.146C27.1404 224.41 27.0204 227.302 26.8524 229.822C26.7804 230.998 26.6244 232.222 26.3844 233.494C26.1684 234.766 25.9644 235.738 25.7724 236.41ZM41.7857 239.038C41.1617 239.038 40.5857 238.834 40.0577 238.426C39.5297 238.042 39.0977 237.514 38.7617 236.842C38.0657 235.378 37.6337 233.782 37.4657 232.054C37.2497 230.422 37.1417 228.85 37.1417 227.338C37.1417 227.05 37.1537 226.81 37.1777 226.618V225.97C37.1777 225.85 37.1657 225.79 37.1417 225.79V225.142L37.1777 222.622C37.2017 221.854 37.2977 220.63 37.4657 218.95C37.5857 217.798 37.8617 216.682 38.2937 215.602C38.4617 215.122 38.6777 214.762 38.9417 214.522C39.2057 214.258 39.5057 214.126 39.8417 214.126C40.8017 214.126 41.6657 214.306 42.4337 214.666C43.2017 215.002 43.8497 215.482 44.3777 216.106C44.8577 216.706 45.2657 217.45 45.6017 218.338C45.9377 219.202 46.1777 220.126 46.3217 221.11C46.4657 222.118 46.5377 223.186 46.5377 224.314V224.602C46.5377 225.346 46.5497 226.018 46.5737 226.618L46.6097 228.67C46.6097 235.582 45.0017 239.038 41.7857 239.038ZM41.6417 237.526C42.0737 237.526 42.4697 237.358 42.8297 237.022C43.1897 236.662 43.4657 236.182 43.6577 235.582C44.1137 234.358 44.3897 233.038 44.4857 231.622C44.6057 230.398 44.6657 229.342 44.6657 228.454C44.6657 227.374 44.5817 225.958 44.4137 224.206C44.2697 222.358 44.1977 220.978 44.1977 220.066V219.418C44.1497 218.506 43.8377 217.714 43.2617 217.042C42.7097 216.37 42.0257 216.034 41.2097 216.034C40.3937 216.034 39.8537 216.502 39.5897 217.438C39.3497 218.182 39.2297 219.142 39.2297 220.318C39.2297 220.774 39.2417 221.158 39.2657 221.47V222.442L39.1937 224.098C39.1457 224.602 39.1217 225.154 39.1217 225.754C39.1217 227.05 39.1577 228.334 39.2297 229.606C39.3257 231.406 39.5657 233.158 39.9497 234.862C40.3337 236.638 40.8977 237.526 41.6417 237.526ZM55.3703 238.858C54.8423 238.858 54.2783 238.774 53.6783 238.606C53.1023 238.462 52.6583 238.294 52.3463 238.102C50.7383 237.07 49.9343 234.25 49.9343 229.642V228.67V227.554V226.69C49.9343 225.73 49.9463 224.878 49.9703 224.134C49.9943 223.366 50.0423 222.538 50.1143 221.65C50.1863 220.714 50.2943 219.958 50.4383 219.382C50.5823 218.782 50.8223 218.11 51.1583 217.366C51.4463 216.67 51.7943 216.13 52.2023 215.746C52.6343 215.362 53.1863 215.038 53.8583 214.774C54.4583 214.51 55.2023 214.378 56.0903 214.378C56.4503 214.378 56.7263 214.462 56.9183 214.63C57.1103 214.798 57.2063 215.014 57.2063 215.278C57.2063 215.518 57.1223 215.734 56.9543 215.926C56.8103 216.118 56.6303 216.226 56.4143 216.25H54.7223C54.2423 216.25 53.8223 216.55 53.4623 217.15C53.1023 217.75 52.8503 218.53 52.7063 219.49C52.3943 221.266 52.2383 222.706 52.2383 223.81V223.99L52.1663 227.446C52.1183 228.478 52.0943 229.642 52.0943 230.938C52.0943 231.85 52.1303 232.594 52.2023 233.17C52.3223 234.034 52.5263 234.754 52.8143 235.33C53.1023 235.978 53.5943 236.446 54.2903 236.734C54.6503 236.878 55.0463 236.95 55.4783 236.95C55.7423 236.95 56.0063 236.854 56.2703 236.662C56.5823 236.662 56.8343 236.734 57.0263 236.878C57.2423 236.998 57.3503 237.19 57.3503 237.454C57.3503 238.39 56.6903 238.858 55.3703 238.858ZM62.617 237.778L62.581 236.374C62.557 235.966 62.545 235.51 62.545 235.006L62.581 233.782C62.509 233.518 62.329 230.89 62.041 225.898C61.753 220.906 61.585 217.702 61.537 216.286C60.145 216.238 59.257 216.094 58.873 215.854C58.609 215.662 58.477 215.446 58.477 215.206C58.477 215.014 58.597 214.846 58.837 214.702C59.101 214.534 59.365 214.45 59.629 214.45C60.301 214.45 61.117 214.498 62.077 214.594C62.989 214.714 63.805 214.774 64.525 214.774H64.813H65.101C65.845 214.774 66.217 215.062 66.217 215.638C66.217 215.926 66.097 216.166 65.857 216.358C65.617 216.526 65.341 216.61 65.029 216.61C64.813 216.61 64.501 216.574 64.093 216.502L63.373 216.358L63.337 216.538L63.301 216.718C63.301 218.854 63.505 222.262 63.913 226.942C64.297 231.334 64.489 234.742 64.489 237.166C64.489 237.454 64.357 237.706 64.093 237.922C63.853 238.138 63.577 238.246 63.265 238.246L62.617 237.778ZM76.9039 238.678C76.3519 238.678 75.9439 238.594 75.6799 238.426C75.4159 238.258 75.2839 237.946 75.2839 237.49C75.2839 236.77 75.1639 235.546 74.9239 233.818L74.7799 233.062L71.2159 232.522C71.0719 233.074 70.8679 234.19 70.6039 235.87C70.4599 237.046 70.2319 237.826 69.9199 238.21C69.7519 238.426 69.5119 238.534 69.1999 238.534C68.9119 238.534 68.6479 238.45 68.4079 238.282C68.1679 238.09 68.0479 237.862 68.0479 237.598L68.1199 237.418L68.1559 237.274C69.7399 231.106 70.9399 225.022 71.7559 219.022C71.7559 218.926 71.7679 218.77 71.7919 218.554C71.8159 218.314 71.8399 217.978 71.8639 217.546C71.9359 216.658 72.0079 215.95 72.0799 215.422C72.1759 214.894 72.3199 214.498 72.5119 214.234H73.7359C74.0719 214.234 74.3599 214.318 74.5999 214.486C74.8399 214.63 74.9599 214.846 74.9599 215.134C74.9599 216.958 75.2119 219.67 75.7159 223.27C76.1959 226.966 76.4359 229.558 76.4359 231.046C76.4359 231.19 76.4959 231.562 76.6159 232.162C76.7359 232.714 76.7959 233.074 76.7959 233.242C76.7959 233.41 76.9159 234.13 77.1559 235.402C77.3719 236.554 77.4799 237.298 77.4799 237.634V237.67C77.4799 238.198 77.2879 238.534 76.9039 238.678ZM74.5279 231.766C74.4559 231.406 74.4199 230.962 74.4199 230.434C74.4199 228.274 74.2279 225.514 73.8439 222.154L73.4839 218.41C72.4519 224.05 71.7439 228.31 71.3599 231.19C71.7199 231.43 72.7759 231.622 74.5279 231.766ZM81.6137 238.714C81.0857 238.714 80.7617 238.486 80.6417 238.03C80.5457 237.742 80.4977 237.334 80.4977 236.806C80.4977 235.774 80.5457 234.502 80.6417 232.99C80.7617 231.55 80.8217 230.266 80.8217 229.138C80.8217 227.866 80.8577 225.958 80.9297 223.414L81.0017 217.726C81.0017 217.51 80.9657 217.186 80.8937 216.754L80.7857 215.854V215.674C80.7857 215.122 80.8697 214.714 81.0377 214.45C81.2057 214.186 81.5177 214.054 81.9737 214.054C82.5977 214.054 83.2817 214.234 84.0257 214.594C84.7697 214.954 85.3097 215.41 85.6457 215.962C86.3417 217.114 86.6897 218.554 86.6897 220.282C86.6897 221.578 86.5817 222.67 86.3657 223.558C86.1497 224.422 85.7777 225.226 85.2497 225.97C85.8977 226.594 86.3297 227.398 86.5457 228.382C86.7857 229.342 86.9057 230.554 86.9057 232.018C86.9057 233.482 86.6537 234.754 86.1497 235.834C85.5737 237.058 84.7337 237.898 83.6297 238.354C82.9577 238.594 82.2857 238.714 81.6137 238.714ZM82.7657 224.926C84.0137 224.902 84.6377 223.45 84.6377 220.57C84.6377 217.474 84.1457 215.854 83.1617 215.71C82.8977 216.262 82.7657 217.558 82.7657 219.598V224.926ZM82.5497 236.878C83.3177 236.71 83.9177 236.254 84.3497 235.51C84.7817 234.766 84.9977 233.914 84.9977 232.954C84.9977 231.946 84.9377 231.058 84.8177 230.29C84.7217 229.69 84.5897 229.198 84.4217 228.814C84.2777 228.406 84.0737 228.034 83.8097 227.698C83.5217 227.338 83.1857 227.122 82.8017 227.05C82.7057 228.418 82.6577 230.23 82.6577 232.486C82.6577 232.63 82.6337 233.086 82.5857 233.854L82.5137 235.078C82.5137 235.126 82.5257 235.162 82.5497 235.186V235.258V236.878ZM92.3114 238.426C92.2154 238.402 92.0594 238.378 91.8434 238.354C91.6274 238.33 91.4474 238.27 91.3034 238.174C90.9434 237.934 90.7994 237.526 90.8714 236.95L90.9074 236.158C91.0034 234.862 91.0514 233.89 91.0514 233.242C91.0514 229.474 91.0154 225.682 90.9434 221.866C90.9434 219.898 90.8834 217.81 90.7634 215.602C90.7394 215.218 90.8234 214.894 91.0154 214.63C91.2314 214.366 91.4954 214.234 91.8074 214.234C92.0954 214.234 92.3834 214.366 92.6714 214.63C92.9834 214.894 93.1274 215.206 93.1034 215.566C92.9354 216.286 92.8514 217.726 92.8514 219.886V222.766C92.8514 223.294 92.8754 224.134 92.9234 225.286C92.9954 225.19 93.2234 224.746 93.6074 223.954C93.6554 223.858 93.7394 223.714 93.8594 223.522C93.9794 223.306 94.0634 223.09 94.1114 222.874C94.9034 220.474 95.5514 218.626 96.0554 217.33C96.2714 216.634 96.5594 216.046 96.9194 215.566C97.2794 215.062 97.7714 214.714 98.3954 214.522C98.6114 214.45 98.8994 214.474 99.2594 214.594C99.6434 214.714 99.8954 214.858 100.015 215.026C100.159 215.194 100.231 215.398 100.231 215.638C100.231 215.878 100.147 216.094 99.9794 216.286C99.8354 216.478 99.6434 216.598 99.4034 216.646C98.8034 216.742 98.3354 216.958 97.9994 217.294C97.6634 217.63 97.4114 217.99 97.2434 218.374C97.0994 218.734 96.9194 219.286 96.7034 220.03L95.2634 223.558C95.1914 223.726 95.0834 224.014 94.9394 224.422C94.8194 224.83 94.6994 225.142 94.5794 225.358C94.5314 225.43 94.4594 225.502 94.3634 225.574C94.2674 225.646 94.1834 225.718 94.1114 225.79C94.2794 225.67 94.4954 225.706 94.7594 225.898C95.0474 226.09 95.3354 226.354 95.6234 226.69C95.8154 227.074 95.9474 227.494 96.0194 227.95C96.1154 228.406 96.1754 228.67 96.1994 228.742C96.2474 229.126 96.2954 229.414 96.3434 229.606C96.6314 230.374 96.8354 231.082 96.9554 231.73C97.0754 232.354 97.1594 233.098 97.2074 233.962C97.2794 234.826 97.5194 235.582 97.9274 236.23C98.0474 236.254 98.1794 236.278 98.3234 236.302C98.4914 236.326 98.6714 236.35 98.8634 236.374C99.2474 236.398 99.4994 236.638 99.6194 237.094C99.6434 237.142 99.6554 237.226 99.6554 237.346C99.6554 237.61 99.5354 237.862 99.2954 238.102C98.9354 238.462 98.4794 238.642 97.9274 238.642C97.5194 238.642 97.1234 238.534 96.7394 238.318C96.3794 238.102 96.1154 237.814 95.9474 237.454C95.8034 237.214 95.6834 236.89 95.5874 236.482C95.4194 235.45 95.2754 234.406 95.1554 233.35C95.0594 231.886 94.9514 230.782 94.8314 230.038C94.7354 229.27 94.5074 228.538 94.1474 227.842C94.0514 227.674 93.9554 227.554 93.8594 227.482C93.7634 227.386 93.6314 227.338 93.4634 227.338C93.3194 227.338 93.1394 227.374 92.9234 227.446C92.8754 229.174 92.8514 230.854 92.8514 232.486C92.8514 233.518 92.8994 235.09 92.9954 237.202C93.0194 237.466 92.9714 237.682 92.8514 237.85C92.7554 237.994 92.5754 238.186 92.3114 238.426ZM110.408 238.678C109.856 238.678 109.448 238.594 109.184 238.426C108.92 238.258 108.788 237.946 108.788 237.49C108.788 236.77 108.668 235.546 108.428 233.818L108.284 233.062L104.72 232.522C104.576 233.074 104.372 234.19 104.108 235.87C103.964 237.046 103.736 237.826 103.424 238.21C103.256 238.426 103.016 238.534 102.704 238.534C102.416 238.534 102.152 238.45 101.912 238.282C101.672 238.09 101.552 237.862 101.552 237.598L101.624 237.418L101.66 237.274C103.244 231.106 104.444 225.022 105.26 219.022C105.26 218.926 105.272 218.77 105.296 218.554C105.32 218.314 105.344 217.978 105.368 217.546C105.44 216.658 105.512 215.95 105.584 215.422C105.68 214.894 105.824 214.498 106.016 214.234H107.24C107.576 214.234 107.864 214.318 108.104 214.486C108.344 214.63 108.464 214.846 108.464 215.134C108.464 216.958 108.716 219.67 109.22 223.27C109.7 226.966 109.94 229.558 109.94 231.046C109.94 231.19 110 231.562 110.12 232.162C110.24 232.714 110.3 233.074 110.3 233.242C110.3 233.41 110.42 234.13 110.66 235.402C110.876 236.554 110.984 237.298 110.984 237.634V237.67C110.984 238.198 110.792 238.534 110.408 238.678ZM108.032 231.766C107.96 231.406 107.924 230.962 107.924 230.434C107.924 228.274 107.732 225.514 107.348 222.154L106.988 218.41C105.956 224.05 105.248 228.31 104.864 231.19C105.224 231.43 106.28 231.622 108.032 231.766ZM127.632 238.318C127.32 238.366 127.056 238.294 126.84 238.102C126.624 237.886 126.516 237.598 126.516 237.238C126.444 236.086 126.408 234.946 126.408 233.818C126.408 232.282 126.444 230.758 126.516 229.246C126.564 227.71 126.588 226.582 126.588 225.862C126.324 224.158 126.168 221.41 126.12 217.618C126.12 216.73 126.108 216.01 126.084 215.458C124.86 215.458 123.972 215.434 123.42 215.386H123.204C122.844 215.386 122.652 215.578 122.628 215.962L122.592 218.554C122.592 219.802 122.628 220.558 122.7 220.822C122.748 221.11 122.772 221.302 122.772 221.398C122.772 221.59 122.748 221.878 122.7 222.262C122.652 222.646 122.628 222.934 122.628 223.126C122.628 223.486 122.688 223.798 122.808 224.062C122.904 224.278 122.94 224.578 122.916 224.962C122.916 225.346 122.916 225.634 122.916 225.826C122.94 226.57 122.928 227.662 122.88 229.102C122.832 230.254 122.808 231.106 122.808 231.658C122.808 232.354 122.832 233.146 122.88 234.034C122.928 234.898 122.964 235.51 122.988 235.87L123.06 236.878C123.084 237.262 123 237.574 122.808 237.814C122.64 238.03 122.388 238.138 122.052 238.138C121.932 238.138 121.776 238.114 121.584 238.066C121.368 237.994 121.224 237.874 121.152 237.706C121.08 237.538 121.032 237.322 121.008 237.058L120.9 234.034L120.936 229.678C120.888 227.086 120.864 225.154 120.864 223.882L120.828 220.966C120.804 219.598 120.744 218.146 120.648 216.61L120.576 215.134V214.918C120.576 214.678 120.624 214.51 120.72 214.414C120.816 214.294 120.996 214.198 121.26 214.126C121.74 214.006 122.172 213.946 122.556 213.946C122.772 213.946 122.928 213.958 123.024 213.982C123.216 213.982 123.504 214.006 123.888 214.054C124.416 214.102 124.836 214.126 125.148 214.126C125.604 214.126 126.024 214.078 126.408 213.982C126.672 213.91 127.008 213.97 127.416 214.162C127.824 214.33 128.052 214.582 128.1 214.918C128.148 215.254 128.172 215.518 128.172 215.71C128.172 215.902 128.16 216.046 128.136 216.142C128.04 216.43 127.992 216.778 127.992 217.186C127.992 217.402 128.004 217.642 128.028 217.906C128.052 218.17 128.064 218.446 128.064 218.734C128.064 218.974 128.052 219.166 128.028 219.31C128.004 219.526 127.992 219.874 127.992 220.354C127.992 221.146 128.064 222.262 128.208 223.702L128.316 224.674C128.34 224.89 128.352 225.214 128.352 225.646C128.352 226.15 128.34 226.522 128.316 226.762C128.316 226.954 128.304 227.194 128.28 227.482C128.28 227.746 128.292 228.07 128.316 228.454C128.292 229.006 128.304 229.834 128.352 230.938L128.388 231.73L128.604 237.382C128.604 237.646 128.532 237.862 128.388 238.03C128.268 238.174 128.016 238.27 127.632 238.318ZM137.129 239.038C136.505 239.038 135.929 238.834 135.401 238.426C134.873 238.042 134.441 237.514 134.105 236.842C133.409 235.378 132.977 233.782 132.809 232.054C132.593 230.422 132.485 228.85 132.485 227.338C132.485 227.05 132.497 226.81 132.521 226.618V225.97C132.521 225.85 132.509 225.79 132.485 225.79V225.142L132.521 222.622C132.545 221.854 132.641 220.63 132.809 218.95C132.929 217.798 133.205 216.682 133.637 215.602C133.805 215.122 134.021 214.762 134.285 214.522C134.549 214.258 134.849 214.126 135.185 214.126C136.145 214.126 137.009 214.306 137.777 214.666C138.545 215.002 139.193 215.482 139.721 216.106C140.201 216.706 140.609 217.45 140.945 218.338C141.281 219.202 141.521 220.126 141.665 221.11C141.809 222.118 141.881 223.186 141.881 224.314V224.602C141.881 225.346 141.893 226.018 141.917 226.618L141.953 228.67C141.953 235.582 140.345 239.038 137.129 239.038ZM136.985 237.526C137.417 237.526 137.813 237.358 138.173 237.022C138.533 236.662 138.809 236.182 139.001 235.582C139.457 234.358 139.733 233.038 139.829 231.622C139.949 230.398 140.009 229.342 140.009 228.454C140.009 227.374 139.925 225.958 139.757 224.206C139.613 222.358 139.541 220.978 139.541 220.066V219.418C139.493 218.506 139.181 217.714 138.605 217.042C138.053 216.37 137.369 216.034 136.553 216.034C135.737 216.034 135.197 216.502 134.933 217.438C134.693 218.182 134.573 219.142 134.573 220.318C134.573 220.774 134.585 221.158 134.609 221.47V222.442L134.537 224.098C134.489 224.602 134.465 225.154 134.465 225.754C134.465 227.05 134.501 228.334 134.573 229.606C134.669 231.406 134.909 233.158 135.293 234.862C135.677 236.638 136.241 237.526 136.985 237.526ZM153.508 238.714C152.98 238.714 152.656 238.486 152.536 238.03C152.44 237.742 152.392 237.334 152.392 236.806C152.392 235.774 152.44 234.502 152.536 232.99C152.656 231.55 152.716 230.266 152.716 229.138C152.716 227.866 152.752 225.958 152.824 223.414L152.896 217.726C152.896 217.51 152.86 217.186 152.788 216.754L152.68 215.854V215.674C152.68 215.122 152.764 214.714 152.932 214.45C153.1 214.186 153.412 214.054 153.868 214.054C154.492 214.054 155.176 214.234 155.92 214.594C156.664 214.954 157.204 215.41 157.54 215.962C158.236 217.114 158.584 218.554 158.584 220.282C158.584 221.578 158.476 222.67 158.26 223.558C158.044 224.422 157.672 225.226 157.144 225.97C157.792 226.594 158.224 227.398 158.44 228.382C158.68 229.342 158.8 230.554 158.8 232.018C158.8 233.482 158.548 234.754 158.044 235.834C157.468 237.058 156.628 237.898 155.524 238.354C154.852 238.594 154.18 238.714 153.508 238.714ZM154.66 224.926C155.908 224.902 156.532 223.45 156.532 220.57C156.532 217.474 156.04 215.854 155.056 215.71C154.792 216.262 154.66 217.558 154.66 219.598V224.926ZM154.444 236.878C155.212 236.71 155.812 236.254 156.244 235.51C156.676 234.766 156.892 233.914 156.892 232.954C156.892 231.946 156.832 231.058 156.712 230.29C156.616 229.69 156.484 229.198 156.316 228.814C156.172 228.406 155.968 228.034 155.704 227.698C155.416 227.338 155.08 227.122 154.696 227.05C154.6 228.418 154.552 230.23 154.552 232.486C154.552 232.63 154.528 233.086 154.48 233.854L154.408 235.078C154.408 235.126 154.42 235.162 154.444 235.186V235.258V236.878ZM167.554 238.858C167.026 238.858 166.462 238.774 165.862 238.606C165.286 238.462 164.842 238.294 164.53 238.102C162.922 237.07 162.118 234.25 162.118 229.642V228.67V227.554V226.69C162.118 225.73 162.13 224.878 162.154 224.134C162.178 223.366 162.226 222.538 162.298 221.65C162.37 220.714 162.478 219.958 162.622 219.382C162.766 218.782 163.006 218.11 163.342 217.366C163.63 216.67 163.978 216.13 164.386 215.746C164.818 215.362 165.37 215.038 166.042 214.774C166.642 214.51 167.386 214.378 168.274 214.378C168.634 214.378 168.91 214.462 169.102 214.63C169.294 214.798 169.39 215.014 169.39 215.278C169.39 215.518 169.306 215.734 169.138 215.926C168.994 216.118 168.814 216.226 168.598 216.25H166.906C166.426 216.25 166.006 216.55 165.646 217.15C165.286 217.75 165.034 218.53 164.89 219.49C164.578 221.266 164.422 222.706 164.422 223.81V223.99L164.35 227.446C164.302 228.478 164.278 229.642 164.278 230.938C164.278 231.85 164.314 232.594 164.386 233.17C164.506 234.034 164.71 234.754 164.998 235.33C165.286 235.978 165.778 236.446 166.474 236.734C166.834 236.878 167.23 236.95 167.662 236.95C167.926 236.95 168.19 236.854 168.454 236.662C168.766 236.662 169.018 236.734 169.21 236.878C169.426 236.998 169.534 237.19 169.534 237.454C169.534 238.39 168.874 238.858 167.554 238.858ZM174.441 238.822C174.129 238.822 173.841 238.714 173.577 238.498C173.337 238.282 173.205 238.018 173.181 237.706V236.77V236.05C173.157 235.834 173.145 235.582 173.145 235.294C173.145 234.79 173.109 234.022 173.037 232.99L172.965 230.686C172.965 229.51 173.001 227.758 173.073 225.43C173.169 223.342 173.217 221.59 173.217 220.174C173.217 219.838 173.181 219.334 173.109 218.662C173.037 217.966 173.001 217.462 173.001 217.15C173.001 215.446 173.505 214.594 174.513 214.594C175.305 214.594 176.217 214.75 177.249 215.062C178.305 215.374 178.833 215.746 178.833 216.178C178.833 216.418 178.725 216.646 178.509 216.862C178.317 217.054 178.077 217.21 177.789 217.33C176.781 216.97 175.869 216.73 175.053 216.61C175.077 216.97 175.089 217.486 175.089 218.158C175.089 219.118 175.077 219.982 175.053 220.75C174.981 221.902 174.945 222.766 174.945 223.342L175.053 223.918L175.629 223.882C175.821 223.858 176.061 223.846 176.349 223.846C177.501 223.846 178.077 224.182 178.077 224.854C178.077 225.118 177.969 225.346 177.753 225.538C177.537 225.706 177.261 225.79 176.925 225.79C176.493 225.79 176.157 225.766 175.917 225.718H175.017C175.065 226.342 175.089 227.254 175.089 228.454C175.089 229.654 175.077 230.734 175.053 231.694C174.981 233.158 174.945 234.25 174.945 234.97C174.945 236.314 174.969 236.986 175.017 236.986L176.205 236.95C176.613 236.926 177.105 236.914 177.681 236.914C178.593 236.914 179.049 237.202 179.049 237.778C179.049 238.114 178.893 238.366 178.581 238.534C178.293 238.726 177.933 238.822 177.501 238.822H174.441ZM184.167 238.282C183.855 238.186 183.687 237.982 183.663 237.67V237.13C183.615 236.122 183.567 234.61 183.519 232.594C183.423 230.842 183.363 229.498 183.339 228.562C183.267 227.098 183.183 224.902 183.087 221.974C183.063 221.47 183.039 220.774 183.015 219.886C182.991 218.998 182.979 218.326 182.979 217.87C182.955 217.606 182.943 217.234 182.943 216.754C182.943 216.202 182.967 215.794 183.015 215.53C183.111 214.786 183.519 214.438 184.239 214.486C184.911 214.486 185.271 214.87 185.319 215.638V216.07L185.283 225.142V229.426V231.586C185.283 231.922 185.307 232.318 185.355 232.774C185.403 233.206 185.439 233.518 185.463 233.71C185.583 233.014 185.775 232.306 186.039 231.586C186.327 230.842 186.507 230.386 186.579 230.218C186.939 229.354 187.203 228.646 187.371 228.094C187.947 226.246 188.691 223.978 189.603 221.29C189.795 220.738 190.011 220.066 190.251 219.274C190.899 217.234 191.343 215.914 191.583 215.314C191.799 214.738 192.123 214.378 192.555 214.234C192.771 214.162 192.987 214.126 193.203 214.126C193.539 214.126 193.887 214.234 194.247 214.45V216.178C194.247 217.978 194.283 219.838 194.355 221.758C194.379 222.166 194.391 222.778 194.391 223.594V224.638C194.391 224.854 194.379 225.142 194.355 225.502C194.355 225.862 194.367 226.282 194.391 226.762L194.499 236.482C194.499 236.842 194.415 237.238 194.247 237.67C194.175 237.862 194.055 238.018 193.887 238.138C193.719 238.234 193.539 238.282 193.347 238.282C192.675 238.282 192.339 237.97 192.339 237.346C192.339 236.626 192.375 235.93 192.447 235.258C192.495 234.346 192.519 233.65 192.519 233.17C192.471 228.418 192.411 224.866 192.339 222.514C192.339 222.154 192.291 221.566 192.195 220.75L192.087 219.454C191.871 219.694 191.751 219.85 191.727 219.922L191.151 221.686C190.767 222.934 190.467 223.858 190.251 224.458L187.119 233.17L185.499 237.598C185.307 238.102 185.019 238.354 184.635 238.354C184.563 238.354 184.407 238.33 184.167 238.282ZM187.803 212.326C187.227 212.326 186.675 212.098 186.147 211.642C185.643 211.186 185.391 210.682 185.391 210.13C185.391 209.89 185.463 209.698 185.607 209.554C185.751 209.41 185.955 209.326 186.219 209.302C186.531 209.278 186.795 209.302 187.011 209.374C187.251 209.422 187.467 209.566 187.659 209.806C187.875 210.07 188.103 210.202 188.343 210.202C188.607 210.202 188.859 210.022 189.099 209.662C189.195 209.494 189.279 209.35 189.351 209.23C189.423 209.086 189.483 208.966 189.531 208.87C189.795 208.414 190.107 208.186 190.467 208.186C190.515 208.186 190.611 208.21 190.755 208.258C190.947 208.354 191.103 208.498 191.223 208.69C191.343 208.858 191.403 209.05 191.403 209.266C191.403 209.41 191.367 209.554 191.295 209.698C191.271 209.77 191.247 209.842 191.223 209.914C191.199 209.962 191.175 210.01 191.151 210.058C190.887 210.898 190.467 211.486 189.891 211.822C189.339 212.158 188.643 212.326 187.803 212.326ZM219.918 240.226C219.174 240.226 218.802 239.482 218.802 237.994V235.69V233.386C218.802 232.186 218.718 230.614 218.55 228.67C218.358 226.486 218.262 224.986 218.262 224.17L218.334 221.938C218.382 221.29 218.406 220.558 218.406 219.742C218.31 220.054 217.914 221.71 217.218 224.71C216.522 227.614 215.802 230.302 215.058 232.774C214.338 235.15 213.75 236.338 213.294 236.338C212.838 236.338 212.466 236.206 212.178 235.942C211.914 235.654 211.782 235.27 211.782 234.79C211.782 233.734 211.35 231.49 210.486 228.058C209.646 224.626 208.878 221.818 208.182 219.634L207.966 223.702C207.774 227.134 207.642 229.99 207.57 232.27C207.522 234.478 207.498 235.99 207.498 236.806C207.498 236.998 207.51 237.178 207.534 237.346V237.85C207.534 238.258 207.45 238.558 207.282 238.75C207.114 238.966 206.802 239.074 206.346 239.074C206.106 239.074 205.878 238.978 205.662 238.786C205.446 238.618 205.338 238.426 205.338 238.21C205.338 235.762 205.518 232.09 205.878 227.194C206.238 222.298 206.418 218.626 206.418 216.178C206.274 215.962 206.202 215.734 206.202 215.494C206.202 215.206 206.334 214.99 206.598 214.846C206.886 214.678 207.222 214.594 207.606 214.594C207.918 214.594 208.494 215.722 209.334 217.978C210.174 220.234 211.014 222.79 211.854 225.646C212.694 228.502 213.234 230.566 213.474 231.838C213.666 231.19 213.822 230.59 213.942 230.038L214.158 229.174C214.926 225.814 215.694 222.778 216.462 220.066C216.918 218.41 217.362 217.114 217.794 216.178C218.226 215.17 218.622 214.666 218.982 214.666C219.318 214.666 219.618 214.762 219.882 214.954C220.17 215.122 220.314 215.35 220.314 215.638C220.314 217.366 220.386 219.958 220.53 223.414C220.698 226.63 220.782 229.126 220.782 230.902L220.746 232.81L220.674 234.718C220.674 235.006 220.71 235.438 220.782 236.014L220.89 237.274C220.914 237.49 220.926 237.658 220.926 237.778C220.95 237.898 220.962 237.97 220.962 237.994C221.082 238.306 221.142 238.534 221.142 238.678C221.142 239.086 221.022 239.446 220.782 239.758C220.542 240.07 220.254 240.226 219.918 240.226ZM229.801 239.038C229.177 239.038 228.601 238.834 228.073 238.426C227.545 238.042 227.113 237.514 226.777 236.842C226.081 235.378 225.649 233.782 225.481 232.054C225.265 230.422 225.157 228.85 225.157 227.338C225.157 227.05 225.169 226.81 225.193 226.618V225.97C225.193 225.85 225.181 225.79 225.157 225.79V225.142L225.193 222.622C225.217 221.854 225.313 220.63 225.481 218.95C225.601 217.798 225.877 216.682 226.309 215.602C226.477 215.122 226.693 214.762 226.957 214.522C227.221 214.258 227.521 214.126 227.857 214.126C228.817 214.126 229.681 214.306 230.449 214.666C231.217 215.002 231.865 215.482 232.393 216.106C232.873 216.706 233.281 217.45 233.617 218.338C233.953 219.202 234.193 220.126 234.337 221.11C234.481 222.118 234.553 223.186 234.553 224.314V224.602C234.553 225.346 234.565 226.018 234.589 226.618L234.625 228.67C234.625 235.582 233.017 239.038 229.801 239.038ZM229.657 237.526C230.089 237.526 230.485 237.358 230.845 237.022C231.205 236.662 231.481 236.182 231.673 235.582C232.129 234.358 232.405 233.038 232.501 231.622C232.621 230.398 232.681 229.342 232.681 228.454C232.681 227.374 232.597 225.958 232.429 224.206C232.285 222.358 232.213 220.978 232.213 220.066V219.418C232.165 218.506 231.853 217.714 231.277 217.042C230.725 216.37 230.041 216.034 229.225 216.034C228.409 216.034 227.869 216.502 227.605 217.438C227.365 218.182 227.245 219.142 227.245 220.318C227.245 220.774 227.257 221.158 227.281 221.47V222.442L227.209 224.098C227.161 224.602 227.137 225.154 227.137 225.754C227.137 227.05 227.173 228.334 227.245 229.606C227.341 231.406 227.581 233.158 227.965 234.862C228.349 236.638 228.913 237.526 229.657 237.526ZM243.386 238.858C242.858 238.858 242.294 238.774 241.694 238.606C241.118 238.462 240.674 238.294 240.362 238.102C238.754 237.07 237.95 234.25 237.95 229.642V228.67V227.554V226.69C237.95 225.73 237.962 224.878 237.986 224.134C238.01 223.366 238.058 222.538 238.13 221.65C238.202 220.714 238.31 219.958 238.454 219.382C238.598 218.782 238.838 218.11 239.174 217.366C239.462 216.67 239.81 216.13 240.218 215.746C240.65 215.362 241.202 215.038 241.874 214.774C242.474 214.51 243.218 214.378 244.106 214.378C244.466 214.378 244.742 214.462 244.934 214.63C245.126 214.798 245.222 215.014 245.222 215.278C245.222 215.518 245.138 215.734 244.97 215.926C244.826 216.118 244.646 216.226 244.43 216.25H242.738C242.258 216.25 241.838 216.55 241.478 217.15C241.118 217.75 240.866 218.53 240.722 219.49C240.41 221.266 240.254 222.706 240.254 223.81V223.99L240.182 227.446C240.134 228.478 240.11 229.642 240.11 230.938C240.11 231.85 240.146 232.594 240.218 233.17C240.338 234.034 240.542 234.754 240.83 235.33C241.118 235.978 241.61 236.446 242.306 236.734C242.666 236.878 243.062 236.95 243.494 236.95C243.758 236.95 244.022 236.854 244.286 236.662C244.598 236.662 244.85 236.734 245.042 236.878C245.258 236.998 245.366 237.19 245.366 237.454C245.366 238.39 244.706 238.858 243.386 238.858ZM250.093 238.426C249.997 238.402 249.841 238.378 249.625 238.354C249.409 238.33 249.229 238.27 249.085 238.174C248.725 237.934 248.581 237.526 248.653 236.95L248.689 236.158C248.785 234.862 248.833 233.89 248.833 233.242C248.833 229.474 248.797 225.682 248.725 221.866C248.725 219.898 248.665 217.81 248.545 215.602C248.521 215.218 248.605 214.894 248.797 214.63C249.013 214.366 249.277 214.234 249.589 214.234C249.877 214.234 250.165 214.366 250.453 214.63C250.765 214.894 250.909 215.206 250.885 215.566C250.717 216.286 250.633 217.726 250.633 219.886V222.766C250.633 223.294 250.657 224.134 250.705 225.286C250.777 225.19 251.005 224.746 251.389 223.954C251.437 223.858 251.521 223.714 251.641 223.522C251.761 223.306 251.845 223.09 251.893 222.874C252.685 220.474 253.333 218.626 253.837 217.33C254.053 216.634 254.341 216.046 254.701 215.566C255.061 215.062 255.553 214.714 256.177 214.522C256.393 214.45 256.681 214.474 257.041 214.594C257.425 214.714 257.677 214.858 257.797 215.026C257.941 215.194 258.013 215.398 258.013 215.638C258.013 215.878 257.929 216.094 257.761 216.286C257.617 216.478 257.425 216.598 257.185 216.646C256.585 216.742 256.117 216.958 255.781 217.294C255.445 217.63 255.193 217.99 255.025 218.374C254.881 218.734 254.701 219.286 254.485 220.03L253.045 223.558C252.973 223.726 252.865 224.014 252.721 224.422C252.601 224.83 252.481 225.142 252.361 225.358C252.313 225.43 252.241 225.502 252.145 225.574C252.049 225.646 251.965 225.718 251.893 225.79C252.061 225.67 252.277 225.706 252.541 225.898C252.829 226.09 253.117 226.354 253.405 226.69C253.597 227.074 253.729 227.494 253.801 227.95C253.897 228.406 253.957 228.67 253.981 228.742C254.029 229.126 254.077 229.414 254.125 229.606C254.413 230.374 254.617 231.082 254.737 231.73C254.857 232.354 254.941 233.098 254.989 233.962C255.061 234.826 255.301 235.582 255.709 236.23C255.829 236.254 255.961 236.278 256.105 236.302C256.273 236.326 256.453 236.35 256.645 236.374C257.029 236.398 257.281 236.638 257.401 237.094C257.425 237.142 257.437 237.226 257.437 237.346C257.437 237.61 257.317 237.862 257.077 238.102C256.717 238.462 256.261 238.642 255.709 238.642C255.301 238.642 254.905 238.534 254.521 238.318C254.161 238.102 253.897 237.814 253.729 237.454C253.585 237.214 253.465 236.89 253.369 236.482C253.201 235.45 253.057 234.406 252.937 233.35C252.841 231.886 252.733 230.782 252.613 230.038C252.517 229.27 252.289 228.538 251.929 227.842C251.833 227.674 251.737 227.554 251.641 227.482C251.545 227.386 251.413 227.338 251.245 227.338C251.101 227.338 250.921 227.374 250.705 227.446C250.657 229.174 250.633 230.854 250.633 232.486C250.633 233.518 250.681 235.09 250.777 237.202C250.801 237.466 250.753 237.682 250.633 237.85C250.537 237.994 250.357 238.186 250.093 238.426ZM262.141 238.714C261.613 238.714 261.289 238.486 261.169 238.03C261.073 237.742 261.025 237.334 261.025 236.806C261.025 235.774 261.073 234.502 261.169 232.99C261.289 231.55 261.349 230.266 261.349 229.138C261.349 227.866 261.385 225.958 261.457 223.414L261.529 217.726C261.529 217.51 261.493 217.186 261.421 216.754L261.313 215.854V215.674C261.313 215.122 261.397 214.714 261.565 214.45C261.733 214.186 262.045 214.054 262.501 214.054C263.125 214.054 263.809 214.234 264.553 214.594C265.297 214.954 265.837 215.41 266.173 215.962C266.869 217.114 267.217 218.554 267.217 220.282C267.217 221.578 267.109 222.67 266.893 223.558C266.677 224.422 266.305 225.226 265.777 225.97C266.425 226.594 266.857 227.398 267.073 228.382C267.313 229.342 267.433 230.554 267.433 232.018C267.433 233.482 267.181 234.754 266.677 235.834C266.101 237.058 265.261 237.898 264.157 238.354C263.485 238.594 262.813 238.714 262.141 238.714ZM263.293 224.926C264.541 224.902 265.165 223.45 265.165 220.57C265.165 217.474 264.673 215.854 263.689 215.71C263.425 216.262 263.293 217.558 263.293 219.598V224.926ZM263.077 236.878C263.845 236.71 264.445 236.254 264.877 235.51C265.309 234.766 265.525 233.914 265.525 232.954C265.525 231.946 265.465 231.058 265.345 230.29C265.249 229.69 265.117 229.198 264.949 228.814C264.805 228.406 264.601 228.034 264.337 227.698C264.049 227.338 263.713 227.122 263.329 227.05C263.233 228.418 263.185 230.23 263.185 232.486C263.185 232.63 263.161 233.086 263.113 233.854L263.041 235.078C263.041 235.126 263.053 235.162 263.077 235.186V235.258V236.878ZM273.019 238.822C272.707 238.822 272.419 238.714 272.155 238.498C271.915 238.282 271.783 238.018 271.759 237.706V236.77V236.05C271.735 235.834 271.723 235.582 271.723 235.294C271.723 234.79 271.687 234.022 271.615 232.99L271.543 230.686C271.543 229.51 271.579 227.758 271.651 225.43C271.747 223.342 271.795 221.59 271.795 220.174C271.795 219.838 271.759 219.334 271.687 218.662C271.615 217.966 271.579 217.462 271.579 217.15C271.579 215.446 272.083 214.594 273.091 214.594C273.883 214.594 274.795 214.75 275.827 215.062C276.883 215.374 277.411 215.746 277.411 216.178C277.411 216.418 277.303 216.646 277.087 216.862C276.895 217.054 276.655 217.21 276.367 217.33C275.359 216.97 274.447 216.73 273.631 216.61C273.655 216.97 273.667 217.486 273.667 218.158C273.667 219.118 273.655 219.982 273.631 220.75C273.559 221.902 273.523 222.766 273.523 223.342L273.631 223.918L274.207 223.882C274.399 223.858 274.639 223.846 274.927 223.846C276.079 223.846 276.655 224.182 276.655 224.854C276.655 225.118 276.547 225.346 276.331 225.538C276.115 225.706 275.839 225.79 275.503 225.79C275.071 225.79 274.735 225.766 274.495 225.718H273.595C273.643 226.342 273.667 227.254 273.667 228.454C273.667 229.654 273.655 230.734 273.631 231.694C273.559 233.158 273.523 234.25 273.523 234.97C273.523 236.314 273.547 236.986 273.595 236.986L274.783 236.95C275.191 236.926 275.683 236.914 276.259 236.914C277.171 236.914 277.627 237.202 277.627 237.778C277.627 238.114 277.471 238.366 277.159 238.534C276.871 238.726 276.511 238.822 276.079 238.822H273.019ZM93.2003 274.282C92.8883 274.186 92.7203 273.982 92.6963 273.67V273.13C92.6483 272.122 92.6003 270.61 92.5523 268.594C92.4563 266.842 92.3963 265.498 92.3723 264.562C92.3003 263.098 92.2163 260.902 92.1203 257.974C92.0963 257.47 92.0723 256.774 92.0483 255.886C92.0243 254.998 92.0123 254.326 92.0123 253.87C91.9883 253.606 91.9763 253.234 91.9763 252.754C91.9763 252.202 92.0003 251.794 92.0483 251.53C92.1443 250.786 92.5523 250.438 93.2723 250.486C93.9443 250.486 94.3043 250.87 94.3523 251.638V252.07L94.3163 261.142V265.426V267.586C94.3163 267.922 94.3403 268.318 94.3883 268.774C94.4363 269.206 94.4723 269.518 94.4963 269.71C94.6163 269.014 94.8083 268.306 95.0723 267.586C95.3603 266.842 95.5403 266.386 95.6123 266.218C95.9723 265.354 96.2363 264.646 96.4043 264.094C96.9803 262.246 97.7243 259.978 98.6363 257.29C98.8283 256.738 99.0443 256.066 99.2843 255.274C99.9323 253.234 100.376 251.914 100.616 251.314C100.832 250.738 101.156 250.378 101.588 250.234C101.804 250.162 102.02 250.126 102.236 250.126C102.572 250.126 102.92 250.234 103.28 250.45V252.178C103.28 253.978 103.316 255.838 103.388 257.758C103.412 258.166 103.424 258.778 103.424 259.594V260.638C103.424 260.854 103.412 261.142 103.388 261.502C103.388 261.862 103.4 262.282 103.424 262.762L103.532 272.482C103.532 272.842 103.448 273.238 103.28 273.67C103.208 273.862 103.088 274.018 102.92 274.138C102.752 274.234 102.572 274.282 102.38 274.282C101.708 274.282 101.372 273.97 101.372 273.346C101.372 272.626 101.408 271.93 101.48 271.258C101.528 270.346 101.552 269.65 101.552 269.17C101.504 264.418 101.444 260.866 101.372 258.514C101.372 258.154 101.324 257.566 101.228 256.75L101.12 255.454C100.904 255.694 100.784 255.85 100.76 255.922L100.184 257.686C99.8003 258.934 99.5003 259.858 99.2843 260.458L96.1523 269.17L94.5323 273.598C94.3403 274.102 94.0523 274.354 93.6683 274.354C93.5963 274.354 93.4403 274.33 93.2003 274.282ZM118.655 275.038C118.031 275.038 117.455 274.834 116.927 274.426C116.399 274.042 115.967 273.514 115.631 272.842C114.935 271.378 114.503 269.782 114.335 268.054C114.119 266.422 114.011 264.85 114.011 263.338C114.011 263.05 114.023 262.81 114.047 262.618V261.97C114.047 261.85 114.035 261.79 114.011 261.79V261.142L114.047 258.622C114.071 257.854 114.167 256.63 114.335 254.95C114.455 253.798 114.731 252.682 115.163 251.602C115.331 251.122 115.547 250.762 115.811 250.522C116.075 250.258 116.375 250.126 116.711 250.126C117.671 250.126 118.535 250.306 119.303 250.666C120.071 251.002 120.719 251.482 121.247 252.106C121.727 252.706 122.135 253.45 122.471 254.338C122.807 255.202 123.047 256.126 123.191 257.11C123.335 258.118 123.407 259.186 123.407 260.314V260.602C123.407 261.346 123.419 262.018 123.443 262.618L123.479 264.67C123.479 271.582 121.871 275.038 118.655 275.038ZM118.511 273.526C118.943 273.526 119.339 273.358 119.699 273.022C120.059 272.662 120.335 272.182 120.527 271.582C120.983 270.358 121.259 269.038 121.355 267.622C121.475 266.398 121.535 265.342 121.535 264.454C121.535 263.374 121.451 261.958 121.283 260.206C121.139 258.358 121.067 256.978 121.067 256.066V255.418C121.019 254.506 120.707 253.714 120.131 253.042C119.579 252.37 118.895 252.034 118.079 252.034C117.263 252.034 116.723 252.502 116.459 253.438C116.219 254.182 116.099 255.142 116.099 256.318C116.099 256.774 116.111 257.158 116.135 257.47V258.442L116.063 260.098C116.015 260.602 115.991 261.154 115.991 261.754C115.991 263.05 116.027 264.334 116.099 265.606C116.195 267.406 116.435 269.158 116.819 270.862C117.203 272.638 117.767 273.526 118.511 273.526ZM128.819 274.354C128.051 274.402 127.691 274.018 127.739 273.202L127.775 270.718C127.799 270.19 127.811 269.374 127.811 268.27V265.606C127.811 264.43 127.799 263.542 127.775 262.942C127.751 262.174 127.739 261.034 127.739 259.522V256.138V255.238C127.739 254.59 127.715 254.05 127.667 253.618C127.643 253.186 127.559 252.73 127.415 252.25C127.367 252.058 127.343 251.914 127.343 251.818C127.343 251.41 127.487 251.05 127.775 250.738C128.087 250.426 128.471 250.258 128.927 250.234C129.575 250.21 130.199 250.174 130.799 250.126C131.423 250.078 132.023 249.994 132.599 249.874C132.815 249.778 133.055 249.838 133.319 250.054C133.583 250.246 133.739 250.462 133.787 250.702C133.835 250.894 133.787 251.086 133.643 251.278C133.499 251.446 133.307 251.566 133.067 251.638C132.563 251.782 131.471 251.95 129.791 252.142L129.467 261.034C130.571 261.154 131.423 261.466 132.023 261.97C132.623 262.474 133.031 263.35 133.247 264.598C133.511 265.582 133.643 266.638 133.643 267.766C133.643 268.486 133.571 269.23 133.427 269.998C133.091 271.558 132.287 272.71 131.015 273.454C130.871 273.55 130.655 273.682 130.367 273.85C130.103 274.018 129.839 274.15 129.575 274.246C129.335 274.318 129.083 274.354 128.819 274.354ZM129.539 272.41C130.019 272.266 130.451 271.978 130.835 271.546C131.219 271.114 131.471 270.646 131.591 270.142C131.807 269.206 131.915 268.294 131.915 267.406C131.915 266.47 131.807 265.558 131.591 264.67C131.447 264.094 131.219 263.65 130.907 263.338C130.619 263.002 130.163 262.822 129.539 262.798V272.41ZM136.937 275.146C136.745 275.146 136.577 275.086 136.433 274.966C136.289 274.846 136.181 274.69 136.109 274.498C136.085 274.45 136.073 274.378 136.073 274.282C136.073 273.97 136.241 273.718 136.577 273.526C137.249 273.238 137.753 272.806 138.089 272.23C138.449 271.63 138.701 270.934 138.845 270.142C139.277 267.79 139.493 265.234 139.493 262.474C139.493 261.442 139.481 260.662 139.457 260.134C139.289 256.078 139.145 253.222 139.025 251.566V251.422C139.025 251.206 139.073 251.038 139.169 250.918C139.265 250.798 139.433 250.714 139.673 250.666C141.209 250.378 142.433 250.234 143.345 250.234C143.825 250.234 144.185 250.246 144.425 250.27C144.977 250.294 145.397 250.462 145.685 250.774C145.973 251.086 146.117 251.518 146.117 252.07L146.153 253.978C146.201 255.658 146.225 256.918 146.225 257.758L146.189 259.486C146.189 262.03 146.285 265.246 146.477 269.134C146.573 270.886 146.657 272.242 146.729 273.202C146.753 273.634 146.681 273.946 146.513 274.138C146.369 274.33 146.117 274.45 145.757 274.498C144.965 274.546 144.545 274.174 144.497 273.382C144.569 272.686 144.605 271.99 144.605 271.294C144.605 270.598 144.593 270.022 144.569 269.566L144.533 265.462C144.533 263.47 144.497 261.43 144.425 259.342C144.377 257.614 144.305 255.982 144.209 254.446C144.113 252.91 144.017 251.974 143.921 251.638C143.777 251.662 143.477 251.722 143.021 251.818C142.565 251.914 141.941 251.998 141.149 252.07C141.077 253.174 141.041 253.966 141.041 254.446C141.041 254.998 141.077 255.478 141.149 255.886C141.197 256.534 141.245 257.482 141.293 258.73V259.522C141.293 263.41 141.257 266.038 141.185 267.406C141.137 267.79 141.113 268.09 141.113 268.306C141.017 269.314 140.921 270.082 140.825 270.61C140.585 271.882 139.853 273.178 138.629 274.498C138.293 274.882 137.753 275.098 137.009 275.146H136.937ZM158.379 274.678C157.827 274.678 157.419 274.594 157.155 274.426C156.891 274.258 156.759 273.946 156.759 273.49C156.759 272.77 156.639 271.546 156.399 269.818L156.255 269.062L152.691 268.522C152.547 269.074 152.343 270.19 152.079 271.87C151.935 273.046 151.707 273.826 151.395 274.21C151.227 274.426 150.987 274.534 150.675 274.534C150.387 274.534 150.123 274.45 149.883 274.282C149.643 274.09 149.523 273.862 149.523 273.598L149.595 273.418L149.631 273.274C151.215 267.106 152.415 261.022 153.231 255.022C153.231 254.926 153.243 254.77 153.267 254.554C153.291 254.314 153.315 253.978 153.339 253.546C153.411 252.658 153.483 251.95 153.555 251.422C153.651 250.894 153.795 250.498 153.987 250.234H155.211C155.547 250.234 155.835 250.318 156.075 250.486C156.315 250.63 156.435 250.846 156.435 251.134C156.435 252.958 156.687 255.67 157.191 259.27C157.671 262.966 157.911 265.558 157.911 267.046C157.911 267.19 157.971 267.562 158.091 268.162C158.211 268.714 158.271 269.074 158.271 269.242C158.271 269.41 158.391 270.13 158.631 271.402C158.847 272.554 158.955 273.298 158.955 273.634V273.67C158.955 274.198 158.763 274.534 158.379 274.678ZM156.003 267.766C155.931 267.406 155.895 266.962 155.895 266.434C155.895 264.274 155.703 261.514 155.319 258.154L154.959 254.41C153.927 260.05 153.219 264.31 152.835 267.19C153.195 267.43 154.251 267.622 156.003 267.766ZM166.868 274.858C166.34 274.858 165.776 274.774 165.176 274.606C164.6 274.462 164.156 274.294 163.844 274.102C162.236 273.07 161.432 270.25 161.432 265.642V264.67V263.554V262.69C161.432 261.73 161.444 260.878 161.468 260.134C161.492 259.366 161.54 258.538 161.612 257.65C161.684 256.714 161.792 255.958 161.936 255.382C162.08 254.782 162.32 254.11 162.656 253.366C162.944 252.67 163.292 252.13 163.7 251.746C164.132 251.362 164.684 251.038 165.356 250.774C165.956 250.51 166.7 250.378 167.588 250.378C167.948 250.378 168.224 250.462 168.416 250.63C168.608 250.798 168.704 251.014 168.704 251.278C168.704 251.518 168.62 251.734 168.452 251.926C168.308 252.118 168.128 252.226 167.912 252.25H166.22C165.74 252.25 165.32 252.55 164.96 253.15C164.6 253.75 164.348 254.53 164.204 255.49C163.892 257.266 163.736 258.706 163.736 259.81V259.99L163.664 263.446C163.616 264.478 163.592 265.642 163.592 266.938C163.592 267.85 163.628 268.594 163.7 269.17C163.82 270.034 164.024 270.754 164.312 271.33C164.6 271.978 165.092 272.446 165.788 272.734C166.148 272.878 166.544 272.95 166.976 272.95C167.24 272.95 167.504 272.854 167.768 272.662C168.08 272.662 168.332 272.734 168.524 272.878C168.74 272.998 168.848 273.19 168.848 273.454C168.848 274.39 168.188 274.858 166.868 274.858ZM174.115 273.778L174.079 272.374C174.055 271.966 174.043 271.51 174.043 271.006L174.079 269.782C174.007 269.518 173.827 266.89 173.539 261.898C173.251 256.906 173.083 253.702 173.035 252.286C171.643 252.238 170.755 252.094 170.371 251.854C170.107 251.662 169.975 251.446 169.975 251.206C169.975 251.014 170.095 250.846 170.335 250.702C170.599 250.534 170.863 250.45 171.127 250.45C171.799 250.45 172.615 250.498 173.575 250.594C174.487 250.714 175.303 250.774 176.023 250.774H176.311H176.599C177.343 250.774 177.715 251.062 177.715 251.638C177.715 251.926 177.595 252.166 177.355 252.358C177.115 252.526 176.839 252.61 176.527 252.61C176.311 252.61 175.999 252.574 175.591 252.502L174.871 252.358L174.835 252.538L174.799 252.718C174.799 254.854 175.003 258.262 175.411 262.942C175.795 267.334 175.987 270.742 175.987 273.166C175.987 273.454 175.855 273.706 175.591 273.922C175.351 274.138 175.075 274.246 174.763 274.246L174.115 273.778ZM180.554 274.678C180.338 274.63 180.158 274.558 180.014 274.462C179.894 274.39 179.822 274.246 179.798 274.03C179.822 273.886 179.882 273.73 179.978 273.562C180.074 273.394 180.17 273.298 180.266 273.274C180.482 273.25 180.638 273.178 180.734 273.058C180.83 272.938 180.914 272.77 180.986 272.554C181.01 272.41 181.082 272.05 181.202 271.474C181.322 270.898 181.394 270.346 181.418 269.818L181.454 269.206C181.454 268.918 181.43 268.51 181.382 267.982C181.334 267.454 181.31 267.07 181.31 266.83C181.31 265.438 181.826 264.07 182.858 262.726C181.466 261.454 180.77 260.062 180.77 258.55V257.398C180.77 256.15 180.866 255.214 181.058 254.59C181.226 253.942 181.538 253.234 181.994 252.466C182.162 252.106 182.39 251.83 182.678 251.638C182.966 251.422 183.278 251.23 183.614 251.062C183.974 250.894 184.25 250.762 184.442 250.666C184.586 250.594 184.79 250.522 185.054 250.45C185.342 250.378 185.57 250.246 185.738 250.054C186.05 249.934 186.362 249.874 186.674 249.874C187.13 249.874 187.526 249.982 187.862 250.198C188.222 250.414 188.402 250.666 188.402 250.954C188.402 251.986 188.378 253.606 188.33 255.814L188.222 260.926L188.186 262.942L188.222 264.958C188.27 266.062 188.366 267.622 188.51 269.638L188.654 271.978C188.678 272.194 188.714 272.434 188.762 272.698C188.81 272.962 188.834 273.178 188.834 273.346C188.834 273.994 188.498 274.318 187.826 274.318C187.538 274.318 187.274 274.246 187.034 274.102C186.818 273.958 186.698 273.754 186.674 273.49C186.602 272.938 186.566 272.374 186.566 271.798L186.458 262.834C185.618 262.978 184.994 263.134 184.586 263.302C184.178 263.47 183.878 263.698 183.686 263.986C183.518 264.25 183.386 264.634 183.29 265.138C183.218 265.45 183.182 265.918 183.182 266.542C183.182 266.854 183.206 267.298 183.254 267.874L183.29 269.242C183.29 270.274 183.23 271.15 183.11 271.87C182.99 272.566 182.726 273.226 182.318 273.85C182.126 274.162 181.862 274.39 181.526 274.534C181.19 274.678 180.866 274.726 180.554 274.678ZM184.118 261.754C184.214 261.778 184.37 261.79 184.586 261.79C185.09 261.79 185.738 261.682 186.53 261.466C186.53 260.842 186.506 259.882 186.458 258.586C186.386 257.362 186.35 256.15 186.35 254.95C186.35 253.942 186.386 252.922 186.458 251.89C185.81 251.986 185.234 252.154 184.73 252.394C184.226 252.634 183.89 252.898 183.722 253.186C183.098 254.362 182.774 255.514 182.75 256.642C182.75 257.914 182.774 258.85 182.822 259.45C182.846 259.978 182.966 260.47 183.182 260.926C183.398 261.382 183.71 261.658 184.118 261.754ZM207.666 276.226C206.922 276.226 206.55 275.482 206.55 273.994V271.69V269.386C206.55 268.186 206.466 266.614 206.298 264.67C206.106 262.486 206.01 260.986 206.01 260.17L206.082 257.938C206.13 257.29 206.154 256.558 206.154 255.742C206.058 256.054 205.662 257.71 204.966 260.71C204.27 263.614 203.55 266.302 202.806 268.774C202.086 271.15 201.498 272.338 201.042 272.338C200.586 272.338 200.214 272.206 199.926 271.942C199.662 271.654 199.53 271.27 199.53 270.79C199.53 269.734 199.098 267.49 198.234 264.058C197.394 260.626 196.626 257.818 195.93 255.634L195.714 259.702C195.522 263.134 195.39 265.99 195.318 268.27C195.27 270.478 195.246 271.99 195.246 272.806C195.246 272.998 195.258 273.178 195.282 273.346V273.85C195.282 274.258 195.198 274.558 195.03 274.75C194.862 274.966 194.55 275.074 194.094 275.074C193.854 275.074 193.626 274.978 193.41 274.786C193.194 274.618 193.086 274.426 193.086 274.21C193.086 271.762 193.266 268.09 193.626 263.194C193.986 258.298 194.166 254.626 194.166 252.178C194.022 251.962 193.95 251.734 193.95 251.494C193.95 251.206 194.082 250.99 194.346 250.846C194.634 250.678 194.97 250.594 195.354 250.594C195.666 250.594 196.242 251.722 197.082 253.978C197.922 256.234 198.762 258.79 199.602 261.646C200.442 264.502 200.982 266.566 201.222 267.838C201.414 267.19 201.57 266.59 201.69 266.038L201.906 265.174C202.674 261.814 203.442 258.778 204.21 256.066C204.666 254.41 205.11 253.114 205.542 252.178C205.974 251.17 206.37 250.666 206.73 250.666C207.066 250.666 207.366 250.762 207.63 250.954C207.918 251.122 208.062 251.35 208.062 251.638C208.062 253.366 208.134 255.958 208.278 259.414C208.446 262.63 208.53 265.126 208.53 266.902L208.494 268.81L208.422 270.718C208.422 271.006 208.458 271.438 208.53 272.014L208.638 273.274C208.662 273.49 208.674 273.658 208.674 273.778C208.698 273.898 208.71 273.97 208.71 273.994C208.83 274.306 208.89 274.534 208.89 274.678C208.89 275.086 208.77 275.446 208.53 275.758C208.29 276.07 208.002 276.226 207.666 276.226Z" fill="white"/>
<path fill-rule="evenodd" clip-rule="evenodd" d="M150.218 38.0004C115.36 37.8829 86.8871 65.3852 85.7491 99.8103L85.7141 101.947C86.2935 118.821 92.0827 134.905 102.279 148.157L104.674 151.257C114.407 163.529 125.973 174.3 138.96 183.179L142.087 185.266L142.543 185.621C146.994 188.793 153.004 188.793 157.456 185.621L157.836 185.312C168.14 178.684 177.643 170.898 186.155 162.105C203.46 143.939 213.89 123.585 214.284 102.913L214.285 102.145C214.403 67.4895 186.755 39.1675 152.148 38.0352L150.218 38.0004ZM150.179 49.3818C178.756 49.4787 201.958 72.1215 202.82 100.319L202.844 102.806C202.513 120.137 193.362 137.994 177.882 154.245C169.989 162.398 161.138 169.645 151.539 175.81L150.9 176.286C150.383 176.731 149.616 176.731 149.099 176.286L148.477 175.821C134.178 166.563 121.628 154.874 111.401 141.289C103.163 130.582 98.282 117.781 97.2994 104.428L97.1551 101.75C97.2521 73.3425 120.015 50.2632 148.362 49.4062L150.179 49.3818ZM150 78.5103C136.474 78.5103 125.509 89.4172 125.509 102.872C125.509 116.326 136.474 127.233 150 127.233C163.525 127.233 174.49 116.326 174.49 102.872C174.49 89.4172 163.525 78.5103 150 78.5103ZM150 89.8905C157.207 89.8905 163.049 95.7021 163.049 102.871C163.049 110.04 157.207 115.852 150 115.852C142.793 115.852 136.95 110.04 136.95 102.871C136.95 95.7021 142.793 89.8905 150 89.8905Z" fill="white"/>
</svg>
