<svg width="60" height="60" viewBox="0 0 60 60" fill="none" xmlns="http://www.w3.org/2000/svg">
<path fill-rule="evenodd" clip-rule="evenodd" d="M30.1181 0C13.6148 0 0.236206 13.4315 0.236206 30C0.236206 46.5685 13.6148 60 30.1181 60C46.6214 60 60 46.5685 60 30C60 13.4315 46.6214 0 30.1181 0ZM23.5481 14.0967C25.2481 14.019 25.7913 14 30.1196 14H30.1146C34.4442 14 34.9854 14.019 36.6854 14.0967C38.382 14.1747 39.5408 14.4444 40.5568 14.8401C41.606 15.2484 42.4925 15.7951 43.379 16.6851C44.2655 17.5744 44.81 18.4671 45.2184 19.5194C45.6102 20.5368 45.8791 21.6995 45.9588 23.4028C46.0352 25.1095 46.0551 25.6548 46.0551 30.0002C46.0551 34.3456 46.0352 34.8896 45.9588 36.5963C45.8791 38.299 45.6102 39.462 45.2184 40.4797C44.81 41.5317 44.2655 42.4243 43.379 43.3137C42.4935 44.2037 41.6056 44.7517 40.5578 45.1604C39.5438 45.556 38.3843 45.8257 36.6877 45.9037C34.9877 45.9814 34.4462 46.0004 30.1176 46.0004C25.7896 46.0004 25.2468 45.9814 23.5468 45.9037C21.8505 45.8257 20.6921 45.556 19.6781 45.1604C18.6305 44.7517 17.7414 44.2037 16.8559 43.3137C15.9697 42.4243 15.4252 41.5317 15.0178 40.4793C14.624 39.462 14.3554 38.2993 14.2774 36.5959C14.2003 34.8893 14.1811 34.3456 14.1811 30.0002C14.1811 25.6548 14.201 25.1092 14.277 23.4025C14.3534 21.6998 14.6223 20.5368 15.0174 19.5191C15.4258 18.4671 15.9704 17.5744 16.8569 16.6851C17.7427 15.7954 18.6319 15.2487 19.6801 14.8401C20.6934 14.4444 21.8515 14.1747 23.5481 14.0967Z" fill="url(#paint0_linear)"/>
<path fill-rule="evenodd" clip-rule="evenodd" d="M28.6899 16.8834C28.9675 16.883 29.2662 16.8831 29.5884 16.8832L30.1196 16.8834C34.3748 16.8834 34.8792 16.8987 36.5596 16.9754C38.1134 17.0467 38.9568 17.3074 39.5186 17.5264C40.2623 17.8164 40.7925 18.1631 41.35 18.7231C41.9078 19.2831 42.2531 19.8164 42.5426 20.5631C42.7608 21.1264 43.0207 21.9731 43.0915 23.5331C43.1678 25.2198 43.1844 25.7265 43.1844 29.9965C43.1844 34.2666 43.1678 34.7732 43.0915 36.4599C43.0204 38.0199 42.7608 38.8666 42.5426 39.43C42.2538 40.1766 41.9078 40.7083 41.35 41.268C40.7922 41.828 40.2626 42.1747 39.5186 42.4647C38.9574 42.6847 38.1134 42.9447 36.5596 43.016C34.8795 43.0927 34.3748 43.1093 30.1196 43.1093C25.864 43.1093 25.3597 43.0927 23.6797 43.016C22.1258 42.944 21.2824 42.6833 20.7203 42.4643C19.9766 42.1743 19.4454 41.8277 18.8876 41.2676C18.3297 40.7076 17.9844 40.1756 17.6949 39.4286C17.4768 38.8653 17.2168 38.0186 17.1461 36.4586C17.0697 34.7719 17.0544 34.2652 17.0544 29.9925C17.0544 25.7198 17.0697 25.2158 17.1461 23.5291C17.2171 21.9691 17.4768 21.1224 17.6949 20.5584C17.9838 19.8118 18.3297 19.2784 18.8876 18.7184C19.4454 18.1584 19.9766 17.8117 20.7203 17.5211C21.2821 17.3011 22.1258 17.0411 23.6797 16.9694C25.1499 16.9027 25.7196 16.8827 28.6899 16.8794V16.8834ZM38.6267 19.5401C37.5709 19.5401 36.7143 20.3991 36.7143 21.4594C36.7143 22.5194 37.5709 23.3794 38.6267 23.3794C39.6826 23.3794 40.5392 22.5194 40.5392 21.4594C40.5392 20.3994 39.6826 19.5394 38.6267 19.5394V19.5401ZM21.9352 30.0002C21.9352 25.4625 25.5998 21.7835 30.1196 21.7835H30.1193C34.6391 21.7835 38.3027 25.4625 38.3027 30.0002C38.3027 34.5379 34.6395 38.2153 30.1196 38.2153C25.5998 38.2153 21.9352 34.5379 21.9352 30.0002Z" fill="url(#paint1_linear)"/>
<path d="M30.1196 24.6667C33.0534 24.6667 35.432 27.0544 35.432 30.0001C35.432 32.9455 33.0534 35.3335 30.1196 35.3335C27.1855 35.3335 24.8073 32.9455 24.8073 30.0001C24.8073 27.0544 27.1855 24.6667 30.1196 24.6667V24.6667Z" fill="url(#paint2_linear)"/>
<defs>
<linearGradient id="paint0_linear" x1="30.1181" y1="0" x2="30.1181" y2="60" gradientUnits="userSpaceOnUse">
<stop stop-color="#A65BE1"/>
<stop offset="1" stop-color="#F9700C" stop-opacity="0.65"/>
</linearGradient>
<linearGradient id="paint1_linear" x1="30.1194" y1="16.8794" x2="30.1194" y2="43.1093" gradientUnits="userSpaceOnUse">
<stop stop-color="#A65BE1"/>
<stop offset="1" stop-color="#F9700C" stop-opacity="0.65"/>
</linearGradient>
<linearGradient id="paint2_linear" x1="30.1196" y1="24.6667" x2="30.1196" y2="35.3335" gradientUnits="userSpaceOnUse">
<stop stop-color="#A65BE1"/>
<stop offset="1" stop-color="#F9700C" stop-opacity="0.65"/>
</linearGradient>
</defs>
</svg>
