<svg width="61" height="60" viewBox="0 0 61 60" fill="none" xmlns="http://www.w3.org/2000/svg">
<path fill-rule="evenodd" clip-rule="evenodd" d="M30.5001 0C13.9967 0 0.618164 13.4315 0.618164 30C0.618164 46.5685 13.9967 60 30.5001 60C47.0034 60 60.3819 46.5685 60.3819 30C60.3819 13.4315 47.0034 0 30.5001 0ZM32.9331 39.4703C32.6384 39.7821 32.0632 39.8451 32.0632 39.8451H30.1581C30.1581 39.8451 25.9552 40.094 22.2527 36.2962C18.215 32.1528 14.6496 23.9319 14.6496 23.9319C14.6496 23.9319 14.4438 23.3927 14.6668 23.1331C14.9178 22.8396 15.6021 22.8212 15.6021 22.8212L20.1559 22.792C20.1559 22.792 20.5846 22.8611 20.8917 23.0839C21.1458 23.2683 21.2877 23.6109 21.2877 23.6109C21.2877 23.6109 22.0235 25.4452 22.9978 27.1044C24.9013 30.3445 25.7868 31.0528 26.4322 30.7056C27.3738 30.2001 27.0917 26.1258 27.0917 26.1258C27.0917 26.1258 27.1088 24.6479 26.6177 23.9888C26.2374 23.4787 25.5202 23.3297 25.2038 23.2882C24.9465 23.2544 25.3675 22.6676 25.9131 22.4048C26.7331 22.01 28.1798 21.987 29.89 22.0039C31.2229 22.0177 31.6064 22.0991 32.1271 22.2236C33.3356 22.5109 33.2978 23.4319 33.2164 25.4196C33.1921 26.0141 33.1638 26.704 33.1638 27.5008C33.1638 27.6799 33.1585 27.8708 33.1531 28.0671C33.1248 29.0854 33.0925 30.2516 33.7734 30.6856C34.1226 30.9068 34.9753 30.7179 37.1095 27.1475C38.1213 25.4544 38.879 23.4649 38.879 23.4649C38.879 23.4649 39.0458 23.11 39.303 22.9579C39.5665 22.8027 39.9219 22.8504 39.9219 22.8504L44.7141 22.8212C44.7141 22.8212 46.1546 22.6507 46.3869 23.2928C46.6317 23.9642 45.8491 25.5343 43.891 28.1061C42.0332 30.5469 41.1294 31.4452 41.2128 32.2399C41.2737 32.8203 41.8612 33.3454 42.9884 34.3758C45.3421 36.5294 45.973 37.6624 46.1245 37.9346C46.1371 37.9572 46.1464 37.9738 46.1531 37.9846C47.2085 39.7099 44.9823 39.8451 44.9823 39.8451L40.7248 39.9035C40.7248 39.9035 39.8112 40.0817 38.6077 39.2675C37.9773 38.8413 37.3612 38.1453 36.7744 37.4823C35.8783 36.4698 35.0505 35.5345 34.3439 35.7554C33.1576 36.1272 33.1934 38.6453 33.1934 38.6453C33.1934 38.6453 33.2028 39.1845 32.9331 39.4703Z" fill="#3B89FE"/>
</svg>
