<svg width="291" height="86" viewBox="0 0 291 86" fill="none" xmlns="http://www.w3.org/2000/svg">
<path d="M15 62.27C13.85 62.87 12.62 63.17 11.32 63.17C9.72 62.97 8.19 62.57 6.71 61.97C5.24 61.37 4.15 60.65 3.45 59.8C3.05 57.35 2.72 55.1 2.47 53.05C2.22 51 2.02 49.06 1.87 47.24C1.72 45.41 1.62 43.66 1.57 41.99C1.52 40.31 1.5 38.62 1.5 36.92C1.5 34.67 1.52 32.3 1.57 29.8C1.62 27.3 1.69 24.64 1.76 21.81C1.84 18.99 1.9 15.96 1.95 12.74C2 9.51 2.02 6 2.02 2.2C2.67 2.2 3.65 2.39 4.95 2.76C6.25 3.14 7.54 3.57 8.81 4.07C10.09 4.57 11.22 5.09 12.22 5.61C13.22 6.14 13.77 6.57 13.87 6.92C13.37 8.32 12.94 10.15 12.56 12.4C12.19 14.65 11.89 17.15 11.66 19.9C11.44 22.65 11.27 25.55 11.17 28.6C11.07 31.65 11.02 34.67 11.02 37.67C11.02 39.92 11.05 41.94 11.1 43.71C11.15 45.49 11.21 47.09 11.29 48.51C11.36 49.94 11.47 51.26 11.62 52.49C11.77 53.71 11.95 54.92 12.15 56.12C13.55 51.87 15.09 47.62 16.76 43.37C18.44 39.12 20.16 35.04 21.94 31.11C23.71 27.19 25.47 23.52 27.22 20.12C28.97 16.72 30.64 13.76 32.21 11.24C33.79 8.71 35.2 6.71 36.45 5.24C37.7 3.76 34 2.2 39.52 2.87C38.5 0.5 38.5 0.5 41.29 3.51C41.91 3.84 45.95 2.31 46.5 2.76C47.05 3.21 44.1 5.62 44.55 6.17C45 6.72 56.25 5.62 56.5 6.17C54.65 6.82 41.76 10 39.64 12.4C37.51 14.8 35.37 17.69 33.22 21.06C31.07 24.44 28.99 28.11 26.96 32.09C24.94 36.06 23.11 39.95 21.49 43.75C19.86 47.55 18.47 51.1 17.32 54.4C16.17 57.7 15.4 60.32 15 62.27Z" fill="#346A2B"/>
<path d="M59.63 26.42C59.42 29.52 58.88 32.19 57.98 34.41C57.08 36.64 55.79 38.59 54.11 40.26C52.44 41.94 50.4 43.45 48 44.8C45.6 46.15 42.8 47.45 39.6 48.7C39.6 49 39.59 49.31 39.56 49.64C39.54 49.96 39.53 50.3 39.53 50.65C39.53 51.3 39.58 51.97 39.68 52.67C39.77 53.37 39.95 54.02 40.2 54.62C40.45 55.22 40.8 55.71 41.25 56.09C41.7 56.46 42.28 56.65 42.98 56.65C44.33 56.65 45.65 56.35 46.95 55.75C48.25 55.15 49.49 54.41 50.66 53.54C51.84 52.66 52.94 51.71 53.96 50.69C54.99 49.66 55.9 48.72 56.7 47.87C57.2 48.32 57.62 48.75 57.98 49.15C55.73 52.15 53.26 54.64 50.59 56.61C47.91 58.59 45.38 59.85 42.98 60.4C39.53 60 36.84 58.74 34.91 56.61C32.99 54.49 32.03 51.92 32.03 48.92C32.03 46.87 32.31 44.79 32.89 42.66C33.46 40.54 34.26 38.49 35.29 36.51C36.31 34.54 37.51 32.67 38.89 30.92C40.26 29.17 41.74 27.65 43.31 26.35C44.89 25.05 46.51 24.02 48.19 23.27C49.86 22.52 51.53 22.15 53.18 22.15C55.48 22.45 57.62 23.87 59.63 26.42ZM54.45 28.9C53.1 29.1 51.7 29.65 50.25 30.55C48.8 31.45 47.44 32.65 46.16 34.15C44.89 35.65 43.73 37.4 42.68 39.4C41.63 41.4 40.8 43.55 40.2 45.85C44.2 43.85 47.53 41.39 50.18 38.46C52.82 35.54 54.25 32.35 54.45 28.9Z" fill="#346A2B"/>
<path d="M47.92 79.82C47.92 79.52 47.2802 76 48.5001 77.5C48.7101 77.25 52.42 84.66 47.92 79.5C48.52 80.05 50.07 79.7 50.5 80C50.92 80.3 51.26 80.07 51.64 80.27C52.01 80.47 52.1 76.45 52.5 76.5C52.9 76.55 53.68 80.72 54.22 80.72C56.83 80.72 59.3 80.04 61.65 78.66C64 77.29 66.21 75.3 68.29 72.7C70.36 70.1 72.25 66.92 73.95 63.17C75.65 59.42 77.15 55.17 78.45 50.42C77.85 51.02 77.11 51.69 76.24 52.41C75.36 53.14 74.45 53.82 73.5 54.47C72.55 55.12 71.61 55.72 70.69 56.27C69.76 56.82 68.98 57.22 68.33 57.47C67.48 57.32 66.69 56.96 65.96 56.39C65.24 55.81 64.6 55.1 64.05 54.25C63.5 53.4 63.08 52.44 62.78 51.36C62.48 50.29 62.33 49.15 62.33 47.95C62.33 46 62.69 44 63.41 41.95C64.14 39.9 65.1 37.89 66.3 35.91C67.5 33.94 68.91 32.07 70.54 30.32C72.16 28.57 73.89 27.05 75.71 25.75C77.54 24.45 79.39 23.41 81.26 22.64C83.14 21.86 84.98 21.47 86.78 21.47C88.52 21.47 89.84 21.84 90.71 22.56C91.59 23.29 92.23 24.52 92.63 26.27C92.08 25.97 91.37 25.82 90.53 25.82C89.33 25.82 87.94 26.3 86.36 27.25C84.79 28.2 83.19 29.44 81.56 30.96C79.94 32.49 78.32 34.24 76.73 36.21C75.13 38.19 73.71 40.2 72.49 42.25C71.26 44.3 70.26 46.3 69.49 48.25C68.71 50.2 68.33 51.95 68.33 53.5C68.33 53.85 68.35 54.06 68.4 54.14C68.45 54.21 68.53 54.25 68.63 54.25C69.08 54.25 69.69 54 70.46 53.5C71.24 53 72.11 52.36 73.09 51.59C74.06 50.81 75.08 49.91 76.13 48.89C77.18 47.86 78.17 46.82 79.13 45.77C81.28 43.37 83.24 40.69 85.01 37.71C86.79 34.74 88.2 31.85 89.25 29.05C90.6 29.15 91.8 29.37 92.85 29.72C93.9 30.07 94.63 30.45 95.03 30.85C93.32 34.75 91.96 38.02 90.94 40.67C89.91 43.32 89.03 45.67 88.28 47.72C86.93 51.32 85.66 54.61 84.49 57.59C83.31 60.56 82.11 63.31 80.89 65.84C79.66 68.36 78.34 70.71 76.91 72.89C75.49 75.06 73.88 77.15 72.08 79.15C71.23 80.1 70.26 80.94 69.19 81.66C68.11 82.39 67.01 83 65.89 83.5C64.76 84 63.66 84.37 62.59 84.62C61.51 84.87 60.53 85 59.63 85C58.43 85 57.2 84.86 55.95 84.59C54.7 84.31 49.3 85.48 48.22 85C47.15 84.53 49.3001 82.63 48.5001 82C47.7001 81.38 41.4998 79.82 47.92 79.82Z" fill="#346A2B"/>
<path d="M122.5 26C123 26 123.5 29.5 124.5 26.5C125.18 26.67 125.75 27.84 126.3 28.11C126.85 28.39 128.12 28.2 128.5 28.5C128.87 28.8 127.25 29.7 128.5 30C126.5 31.5 125.84 33.87 125 36C124.15 38.12 123.5 40 123 42C122.5 44 122.24 46.02 121.91 47.72C121.59 49.42 121.43 50.9 121.43 52.15C121.43 53.55 121.58 54.71 121.88 55.64C122.18 56.56 122.68 57.22 123.38 57.62C122.78 58.02 122 58.35 121.05 58.6C120.1 58.85 119.25 58.97 118.5 58.97C115.8 58.97 114.45 57.12 114.45 53.42C114.45 50.57 115.4 46.67 117.3 41.72C116.3 44.01 115.15 46.16 113.85 48.19C112.55 50.2 111.23 51.97 109.88 53.52C108.53 55.06 107.16 56.32 105.79 57.3C104.41 58.26 103.15 58.85 102 59.05C100.15 59.05 98.65 58.21 97.5 56.52C96.35 54.85 95.78 52.7 95.78 50.09C95.78 47.27 96.38 44.31 97.58 41.2C98.78 38.09 100.31 35.2 102.19 32.54C104.06 29.87 106.1 27.65 108.3 25.87C110.5 24.09 112.63 23.2 114.68 23.2C115.18 23.35 115.74 23.65 116.36 24.1C116.99 24.55 117.59 25.07 118.16 25.67C118.74 26.26 119.23 26.87 119.63 27.5C120.02 28.12 120.25 28.66 120.3 29.11C118.3 29.41 116.24 30.39 114.11 32.02C111.99 33.67 110.06 35.66 108.34 37.97C106.61 40.3 105.2 42.77 104.1 45.42C103 48.06 102.45 50.54 102.45 52.82C102.45 53.77 102.8 54.37 103.5 54.62C104.95 54.32 106.63 53.09 108.53 50.91C110.42 48.74 112.73 45.37 115.43 40.82C115.93 39.92 116.49 38.92 117.11 37.82C117.74 36.72 118.37 35.57 119.03 34.37C119.68 33.17 120.31 31.96 120.94 30.74C121.56 29.51 121.95 27.15 122.5 26Z" fill="#346A2B"/>
<path d="M145.2 15.74C145 15.01 144.84 14.16 144.71 13.19C144.59 12.22 146.5 10.95 146.5 9.06C135.5 10.5 145.23 6.1 145.28 4.86C145.33 3.64 137.5 -0.500008 145.28 2.09C148.2 -2 150.34 3.04 153.11 3.45C155.89 3.86 158.72 4.22 161.63 4.55C164.53 4.89 167.42 5.05 170.33 5.05C173.23 5.05 176.03 5.05 178.73 5.05C182.42 5.05 185.4 4.99 187.65 4.86C188.45 6.05 188.95 7.45 189.15 9.06C189.35 10.69 189.45 12.2 189.45 13.6C183.7 15.91 178.25 18.86 173.1 22.44C167.95 26 163.28 29.74 159.08 33.64C154.88 37.52 151.25 41.37 148.2 45.16C145.15 48.96 142.88 52.26 141.38 55.07C142.28 54.9 143.2 54.74 144.15 54.59C145.1 54.44 146.12 54.3 147.23 54.19C148.33 54.06 149.55 53.95 150.9 53.82C152.25 53.71 153.8 53.65 155.55 53.65C158 53.65 160.15 53.46 162 53.07C163.85 52.69 165.43 52.27 166.73 51.82C168.02 51.39 169.06 50.97 169.84 50.59C170.61 50.2 171.17 49.89 171.53 49.62C171.73 50.07 171.96 50.74 172.24 51.62C172.51 52.52 172.76 53.5 172.99 54.56C173.21 55.62 173.4 56.71 173.55 57.82C173.7 58.94 173.78 59.96 173.78 60.9C173.78 61.4 173.76 61.74 173.74 61.91C173.71 62.07 173.68 62.26 173.63 62.46C171.38 62.46 169.11 62.34 166.84 62.1C164.56 61.86 162.3 61.75 160.05 61.75C157.05 61.75 153.94 61.91 150.71 62.24C147.49 62.56 144.39 63.06 141.41 63.74C138.44 64.41 135.71 65.27 133.24 66.32C130.76 67.37 128.78 68.62 127.28 70.07C126.88 68.77 126.46 67.66 126.04 66.74C125.61 65.81 125.4 64.69 125.4 63.39C125.4 62.09 125.66 61.05 126.19 60.27C126.71 59.5 127.43 58.86 128.33 58.36C131.33 54.05 134.74 49.79 138.56 45.55C142.39 41.32 146.48 37.24 150.83 33.27C155.18 29.32 159.68 25.55 164.33 21.97C168.98 18.4 173.63 15.12 178.28 12.17C175.28 12.17 172.1 12.17 168.75 12.17C166.4 12.17 164.08 12.17 161.78 12.17C159.47 12.17 157.3 12.31 155.25 12.6C153.2 12.87 151.31 13.29 149.59 13.81C147.86 14.35 146.4 14.99 145.2 15.74Z" fill="#FFC530"/>
<path d="M192.38 60.1C189.53 59.8 187.25 58.55 185.55 56.35C183.85 54.15 183 51.35 183 47.95C183 45.95 183.3 43.87 183.9 41.72C184.5 39.57 185.35 37.49 186.45 35.46C187.55 33.44 188.85 31.52 190.35 29.72C191.85 27.92 193.48 26.37 195.23 25.07C197.98 23.02 200.55 22 202.95 22C204.55 22.85 206.12 24.62 207.68 27.32C207.92 27.32 208.15 27.31 208.35 27.29C208.55 27.26 208.78 27.25 209.03 27.25C211.67 27.25 213 29.6 213 34.3C213 37.45 212.49 40.44 211.46 43.26C210.44 46.09 209.01 48.65 207.19 50.95C205.36 53.25 203.19 55.19 200.66 56.76C198.14 58.34 195.38 59.45 192.38 60.1ZM196.2 36.47C195.35 37.62 194.55 38.87 193.8 40.22C193.05 41.57 192.4 42.94 191.85 44.31C191.3 45.69 190.88 47.01 190.58 48.29C190.28 49.56 190.13 50.7 190.13 51.7C190.13 52.9 190.33 54.05 190.73 55.15C191.12 56.25 191.57 56.87 192.08 57.02C194.33 56.52 196.39 55.59 198.26 54.21C200.14 52.84 201.76 51.12 203.14 49.07C204.51 47.02 205.59 44.7 206.36 42.1C207.14 39.5 207.53 36.72 207.53 33.77C207.53 32.47 207.45 31.45 207.3 30.7C207.15 29.95 206.9 29.3 206.55 28.75C204.35 29.4 202.39 30.45 200.66 31.9C198.94 33.35 197.45 34.87 196.2 36.47Z" fill="#FFC530"/>
<path d="M228.75 21.1C230.05 21.5 231.28 22.39 232.43 23.76C233.58 25.14 234.43 26.65 234.98 28.3C234.43 29.65 233.58 31.27 232.43 33.17C231.28 35.07 230.13 37.01 228.98 38.99C227.83 40.96 226.79 42.84 225.86 44.61C224.94 46.39 224.4 47.85 224.25 49C225.05 48.15 225.94 47.16 226.91 46.04C227.89 44.91 228.84 43.79 229.76 42.66C230.69 41.54 231.55 40.51 232.35 39.59C233.15 38.66 233.78 37.97 234.23 37.52C235.18 36.52 236.3 35.36 237.6 34.04C238.9 32.71 240.26 31.46 241.69 30.29C243.11 29.11 244.55 28.11 246 27.29C247.45 26.46 248.78 26.05 249.98 26.05C251.28 26.05 252.36 26.49 253.24 27.36C254.11 28.24 254.8 29.15 255.3 30.1C255.3 30.2 255.11 30.34 254.74 30.51C254.36 30.69 253.83 31.17 253.13 31.97C252.43 32.87 251.64 34.11 250.76 35.69C249.89 37.26 249.04 38.96 248.21 40.79C247.39 42.61 246.7 44.47 246.15 46.37C245.6 48.27 245.33 50 245.33 51.55C245.33 52.8 245.49 53.6 245.81 53.95C246.14 54.3 246.9 52 247.5 52C248.05 52 248.33 54.35 248.93 54.1C249.53 53.85 252.65 49.5 253 49.5C253.2 49.6 250.71 54.04 250.84 54.36C250.96 54.69 251.03 54.97 251.03 55.22C250.63 55.57 253.791 57.31 253.241 57.66C252.691 58.01 248.48 56.95 247.88 57.25C247.28 57.55 246.69 57.8 246.11 58C245.54 58.2 245.03 58.3 244.58 58.3C243.13 58.3 241.94 58.09 241.01 57.66C240.09 57.24 239.36 56.67 238.84 55.97C238.31 55.27 237.95 54.44 237.75 53.46C237.55 52.49 237.45 51.45 237.45 50.35C237.45 49.75 237.5 49.07 237.6 48.32C237.7 47.57 237.9 46.69 238.2 45.66C238.5 44.64 238.93 43.41 239.48 41.99C240.03 40.56 240.73 38.85 241.58 36.85C241.48 36.85 240.8 37.2 239.55 37.9C238.3 38.6 236.95 39.67 235.5 41.12C233.15 43.37 231.04 45.6 229.16 47.8C227.29 50 225.38 52.45 223.43 55.15C222.33 56.7 221.36 58.01 220.54 59.09C219.71 60.16 219 60.87 218.4 61.22C217.35 60.62 216.58 59.79 216.08 58.71C215.58 57.64 215.2 56.52 214.95 55.37C214.95 54.42 215.09 53.22 215.36 51.77C215.64 50.32 216.01 48.71 216.49 46.94C216.96 45.16 217.55 43.3 218.25 41.35C218.95 39.4 219.73 37.45 220.58 35.5C222.48 31.1 224.21 27.65 225.79 25.15C227.36 22.65 228.35 21.3 228.75 21.1Z" fill="#FFC530"/>
<path d="M282.98 27.17C283.48 27.17 284.06 27.26 284.74 27.44C285.41 27.61 286.03 27.84 286.58 28.11C287.13 28.39 287.59 28.67 287.96 28.97C288.34 29.27 288.53 29.55 288.53 29.8C287.53 31.9 286.6 34.01 285.75 36.14C284.9 38.26 284.18 40.3 283.58 42.25C282.98 44.2 282.51 46.02 282.19 47.72C281.86 49.42 281.7 50.9 281.7 52.15C281.7 53.55 281.85 54.71 282.15 55.64C282.45 56.56 286.8 54.6 287.5 55C286.9 55.4 282.28 58.35 281.33 58.6C280.38 58.85 279.53 58.97 278.78 58.97C276.08 58.97 274.73 57.12 274.73 53.42C274.73 50.57 275.68 46.67 277.58 41.72C276.58 44.01 275.43 46.16 274.13 48.19C272.83 50.2 271.5 51.97 270.15 53.52C268.8 55.06 267.44 56.32 266.06 57.3C264.69 58.26 263.43 58.85 262.28 59.05C260.43 59.05 258.93 58.21 257.78 56.52C256.63 54.85 256.05 52.7 256.05 50.09C256.05 47.27 256.65 44.31 257.85 41.2C259.05 38.09 260.59 35.2 262.46 32.54C264.34 29.87 266.38 27.65 268.58 25.87C270.78 24.09 272.9 23.2 274.95 23.2C275.45 23.35 276.01 23.65 276.64 24.1C277.26 24.55 277.86 25.07 278.44 25.67C279.01 26.26 279.5 26.87 279.9 27.5C280.3 28.12 280.53 28.66 280.58 29.11C278.58 29.41 276.51 30.39 274.39 32.02C272.26 33.67 270.34 35.66 268.61 37.97C266.89 40.3 265.48 42.77 264.38 45.42C263.28 48.06 262.73 50.54 262.73 52.82C262.73 53.77 263.08 54.37 263.78 54.62C265.23 54.32 266.9 53.09 268.8 50.91C270.7 48.74 273 45.37 275.7 40.82C276.2 39.92 276.76 38.92 277.39 37.82C278.01 36.72 278.65 35.57 279.3 34.37C279.95 33.17 280.59 31.96 281.21 30.74C281.84 29.51 282.43 28.32 282.98 27.17Z" fill="#FFC530"/>
</svg>
